M48
; DRILL file {KiCad 7.0.1} date Wed May 31 14:16:05 2023
; FORMAT={-:-/ absolute / inch / decimal}
; #@! TF.CreationDate,2023-05-31T14:16:05+01:00
; #@! TF.GenerationSoftware,Kicad,Pcbnew,7.0.1
; #@! TF.FileFunction,Plated,1,4,PTH
FMAT,2
INCH
; #@! TA.AperFunction,Plated,PTH,ViaDrill
T1C0.0079
; #@! TA.AperFunction,Plated,PTH,ComponentDrill
T2C0.0079
; #@! TA.AperFunction,Plated,PTH,ComponentDrill
T3C0.0080
; #@! TA.AperFunction,Plated,PTH,ViaDrill
T4C0.0157
; #@! TA.AperFunction,Plated,PTH,ComponentDrill
T5C0.0157
; #@! TA.AperFunction,Plated,PTH,ComponentDrill
T6C0.0197
; #@! TA.AperFunction,Plated,PTH,ComponentDrill
T7C0.0315
; #@! TA.AperFunction,Plated,PTH,ComponentDrill
T8C0.0394
; #@! TA.AperFunction,Plated,PTH,ComponentDrill
T9C0.0512
; #@! TA.AperFunction,Plated,PTH,ComponentDrill
T10C0.0598
; #@! TA.AperFunction,Plated,PTH,ComponentDrill
T11C0.0730
; #@! TA.AperFunction,Plated,PTH,ComponentDrill
T12C0.1260
%
G90
G05
T1
X4.7146Y-4.0599
X4.7146Y-4.0875
X4.7185Y-3.7725
X4.7185Y-3.8001
X4.7421Y-4.0599
X4.7421Y-4.0875
X4.7461Y-3.7725
X4.7461Y-3.8001
X4.7697Y-4.0599
X4.7697Y-4.0875
X4.7736Y-3.7725
X4.7736Y-3.8001
X4.8228Y-3.622
X4.8819Y-3.563
X4.9272Y-3.8237
X4.9272Y-4.0324
X4.9409Y-3.622
X4.9488Y-4.4961
X4.9488Y-4.622
X4.9606Y-3.5039
X4.9961Y-4.622
X5.0Y-3.563
X5.0Y-3.6811
X5.0Y-4.252
X5.029Y-4.656
X5.0315Y-4.5276
X5.0394Y-3.5354
X5.0453Y-3.7607
X5.0453Y-4.0954
X5.0472Y-4.7598
X5.0591Y-3.622
X5.1142Y-4.1949
X5.1181Y-3.563
X5.1181Y-3.6811
X5.1181Y-3.7992
X5.1181Y-3.9173
X5.1181Y-4.1535
X5.1772Y-3.622
X5.1772Y-3.7402
X5.1772Y-3.8583
X5.1772Y-3.9764
X5.1772Y-4.0945
X5.2295Y-4.9957
X5.2362Y-3.6811
X5.2362Y-3.7992
X5.2362Y-3.9173
X5.2362Y-4.0354
X5.2768Y-3.2087
X5.2953Y-3.622
X5.2953Y-3.7402
X5.2953Y-3.8583
X5.2953Y-3.9764
X5.312Y-4.8612
X5.3425Y-4.8346
X5.343Y-4.78
X5.3543Y-3.6811
X5.3543Y-3.7992
X5.3543Y-3.9173
X5.3819Y-4.81
X5.4134Y-3.622
X5.4134Y-3.7402
X5.4134Y-3.8583
X5.4134Y-4.8425
X5.4173Y-4.6929
X5.4252Y-5.0157
X5.4252Y-5.063
X5.4488Y-5.0394
X5.4488Y-5.0866
X5.4724Y-3.6811
X5.4724Y-4.7402
X5.5118Y-4.4094
X5.5118Y-4.4567
X5.5118Y-4.5079
X5.5138Y-5.0591
X5.5315Y-3.622
X5.5315Y-3.7402
X5.5433Y-4.0079
X5.5433Y-4.1024
X5.5551Y-4.2205
X5.5551Y-4.2756
X5.5906Y-3.6811
X5.6122Y-5.0591
X5.6181Y-4.8602
X5.6181Y-4.9094
X5.6378Y-4.8858
X5.6693Y-4.6457
X5.6732Y-4.685
X5.7047Y-4.7087
X5.7087Y-4.2717
X5.7362Y-3.3543
X5.7677Y-4.2126
X5.7677Y-4.2717
X5.7776Y-3.3661
X5.7795Y-3.5827
X5.815Y-3.6339
X5.8268Y-4.1535
X5.8268Y-4.2126
X5.8268Y-4.2717
X5.8465Y-3.3976
X5.8465Y-3.4449
X5.8858Y-4.2126
X5.8858Y-4.2717
X5.9213Y-3.4331
X5.9449Y-4.2126
X5.9449Y-4.2717
X5.9449Y-4.5669
X5.9685Y-3.8541
X5.9693Y-3.9289
X5.9843Y-3.7008
X5.9843Y-3.7795
X5.9843Y-4.5276
X6.0039Y-4.2126
X6.0039Y-4.2717
X6.0079Y-3.3346
X6.0236Y-3.7402
X6.0236Y-3.8189
X6.0236Y-4.0354
X6.0236Y-4.4882
X6.0236Y-4.5669
X6.063Y-4.2126
X6.063Y-4.2717
X6.063Y-4.5276
X6.0748Y-4.1811
X6.1024Y-4.4882
X6.1024Y-4.5669
X6.1181Y-4.1811
X6.122Y-4.2717
X6.1319Y-4.311
X6.1319Y-4.4094
X6.2028Y-5.0591
X6.2795Y-3.563
X6.3004Y-3.2087
X6.3091Y-4.6594
X6.3102Y-4.7094
X6.3386Y-3.622
X6.3976Y-3.563
X6.3976Y-3.6811
X6.3976Y-4.6457
X6.4173Y-4.5079
X6.4173Y-4.7047
X6.4281Y-5.0531
X6.4567Y-3.622
X6.4567Y-3.7402
X6.5157Y-3.563
X6.5157Y-3.6811
X6.5157Y-3.7992
X6.5748Y-3.622
X6.5748Y-3.7402
X6.5748Y-3.8583
X6.5748Y-3.9764
X6.6299Y-4.6417
X6.6339Y-3.4449
X6.6339Y-3.563
X6.6339Y-3.6811
X6.6339Y-3.7992
X6.6339Y-3.9173
X6.6929Y-3.5039
X6.6929Y-3.622
X6.6929Y-3.7402
X6.6929Y-3.8583
X6.7126Y-4.7362
X6.752Y-3.4449
X6.752Y-3.563
X6.752Y-3.6811
X6.752Y-3.7992
X6.7598Y-4.7362
X6.7913Y-3.3937
X6.811Y-3.5039
X6.811Y-3.622
X6.811Y-3.7402
X6.811Y-3.8268
X6.8543Y-3.8268
X6.8543Y-3.9488
X6.8701Y-3.4449
X6.8701Y-3.563
X6.8701Y-3.6811
X6.937Y-4.8701
X6.9921Y-2.6083
X6.9921Y-2.7283
X7.0157Y-4.8701
X7.0354Y-4.8465
X7.0551Y-4.8701
X7.0787Y-3.9232
X7.1228Y-2.5996
X7.1732Y-3.1378
X7.185Y-2.5236
X7.2559Y-2.5315
X7.2736Y-2.4489
X7.2795Y-2.311
X7.2913Y-2.4764
X7.2932Y-2.4291
X7.3189Y-2.4016
X7.3228Y-4.6654
X7.3287Y-2.311
X7.3425Y-3.0512
X7.3425Y-3.1299
X7.3425Y-3.2087
X7.3543Y-4.8701
X7.3602Y-2.6919
X7.3819Y-3.0906
X7.3819Y-3.1693
X7.3819Y-3.248
X7.3819Y-4.6063
X7.3858Y-2.4685
X7.3937Y-2.6811
X7.4168Y-2.7053
X7.4213Y-3.0512
X7.4213Y-3.1299
X7.4213Y-3.2087
X7.4213Y-3.2874
X7.4331Y-4.8701
X7.437Y-2.378
X7.437Y-2.4803
X7.439Y-4.4587
X7.4419Y-4.2047
X7.4528Y-4.8465
X7.4606Y-3.0906
X7.4606Y-3.1693
X7.4606Y-3.248
X7.4606Y-3.3268
X7.4724Y-4.3031
X7.4724Y-4.8701
X7.4843Y-2.378
X7.4843Y-2.4803
X7.7205Y-4.2165
X7.7205Y-4.4685
T2
X5.874Y-4.7405
X5.874Y-4.8005
X5.904Y-4.7104
X5.904Y-4.7705
X5.904Y-4.8305
X5.9341Y-4.7405
X5.9341Y-4.8005
X5.9641Y-4.7104
X5.9641Y-4.7705
X5.9641Y-4.8305
X5.9941Y-4.7405
X5.9941Y-4.8005
T3
X4.8711Y-3.928
X4.9144Y-3.8847
X4.9144Y-3.928
X4.9144Y-3.9713
X4.9577Y-3.928
T4
X7.1457Y-3.0039
X7.4473Y-2.8937
T5
X7.189Y-2.224
X7.2047Y-2.1965
X7.2362Y-2.1965
X7.252Y-2.224
X7.2677Y-2.1965
X7.2835Y-2.224
X7.315Y-2.224
X7.3307Y-2.1965
X7.3465Y-2.224
X7.3622Y-2.1965
X7.3937Y-2.1965
X7.4094Y-2.224
T7
X5.0043Y-2.7811
X5.0043Y-3.2811
X5.1043Y-2.7811
X5.1043Y-3.2811
X5.2043Y-2.7811
X5.2043Y-3.2811
X5.3043Y-2.7811
X5.3043Y-3.2811
X5.4043Y-2.7811
X5.4043Y-3.2811
X5.5043Y-2.7811
X5.5043Y-3.2811
X5.6043Y-2.7811
X5.6043Y-3.2811
X5.6693Y-2.9815
X5.6693Y-3.0799
X5.7043Y-2.7811
X5.7043Y-3.2811
X6.028Y-2.7811
X6.028Y-3.2811
X6.128Y-2.7811
X6.128Y-3.2811
X6.228Y-2.7811
X6.228Y-3.2811
X6.328Y-2.7811
X6.328Y-3.2811
X6.428Y-2.7811
X6.428Y-3.2811
X6.528Y-2.7811
X6.528Y-3.2811
X6.628Y-2.7811
X6.628Y-3.2811
X6.6929Y-2.9815
X6.6929Y-3.0799
X6.728Y-2.7811
X6.728Y-3.2811
T8
X4.0709Y-4.5246
X4.0709Y-4.6246
X4.0709Y-4.8041
X4.0709Y-4.9041
X4.1142Y-3.5663
X4.1142Y-3.6663
X4.1142Y-3.7663
X4.1142Y-3.8663
X4.1142Y-3.9663
X4.4094Y-3.5665
X4.4094Y-3.6665
X4.4094Y-3.7665
X4.4094Y-3.8665
X4.4094Y-3.9665
X4.526Y-4.8701
X4.626Y-4.8701
X4.6496Y-4.5246
X4.6496Y-4.6246
X4.726Y-4.8701
X4.9134Y-2.5094
X5.0049Y-2.9303
X5.0049Y-3.0307
X5.0049Y-3.1311
X5.0134Y-2.5094
X5.1049Y-2.9303
X5.1049Y-3.0307
X5.1049Y-3.1311
X5.1134Y-2.5094
X5.2047Y-3.4933
X5.2134Y-2.5094
X5.3047Y-3.4933
X5.3134Y-2.5094
X5.4047Y-3.4933
X5.4134Y-2.5094
X5.5047Y-3.4933
X5.5134Y-2.5094
X5.6134Y-2.5094
X5.7134Y-2.5094
X5.8134Y-2.5094
X5.9732Y-2.5094
X6.0285Y-2.9303
X6.0285Y-3.0307
X6.0285Y-3.1311
X6.0732Y-2.5094
X6.1285Y-2.9303
X6.1285Y-3.0307
X6.1285Y-3.1311
X6.1732Y-2.5094
X6.2283Y-3.4933
X6.2732Y-2.5094
X6.3016Y-3.8937
X6.3283Y-3.4933
X6.3732Y-2.5094
X6.4016Y-3.8937
X6.4283Y-3.4933
X6.4732Y-2.5094
X6.5016Y-3.8937
X6.5283Y-3.4933
X6.5732Y-2.5094
X6.6732Y-2.5094
X7.1654Y-3.5484
X7.1654Y-3.6484
X7.1654Y-3.7484
X7.1654Y-3.8484
X7.1654Y-3.9484
X7.4606Y-3.5484
X7.4606Y-3.6484
X7.4606Y-3.7484
X7.4606Y-3.8484
X7.4606Y-3.9484
T9
X4.2677Y-2.4291
X4.2677Y-3.315
T10
X4.3094Y-2.126
X4.5094Y-2.126
T11
X4.6791Y-2.8819
X4.6791Y-3.0669
X4.6791Y-3.2519
T12
X4.0551Y-2.0866
X4.4488Y-4.3898
X7.185Y-4.3898
X7.6575Y-2.0866
T6
G00X7.1224Y-2.0394
M15
G01X7.1224Y-2.0157
M16
G05
G00X7.1366Y-2.2126
M15
G01X7.1366Y-2.189
M16
G05
G00X7.4618Y-2.2126
M15
G01X7.4618Y-2.189
M16
G05
G00X7.476Y-2.0394
M15
G01X7.476Y-2.0157
M16
G05
T0
M30
