%TF.GenerationSoftware,KiCad,Pcbnew,7.0.1*%
%TF.CreationDate,2023-06-08T02:50:05+01:00*%
%TF.ProjectId,DE10-lite_shield,44453130-2d6c-4697-9465-5f736869656c,rev?*%
%TF.SameCoordinates,Original*%
%TF.FileFunction,Drillmap*%
%TF.FilePolarity,Positive*%
%FSLAX45Y45*%
G04 Gerber Fmt 4.5, Leading zero omitted, Abs format (unit mm)*
G04 Created by KiCad (PCBNEW 7.0.1) date 2023-06-08 02:50:05*
%MOMM*%
%LPD*%
G01*
G04 APERTURE LIST*
%ADD10C,0.100000*%
%ADD11C,0.200000*%
%ADD12C,0.065000*%
%ADD13C,0.270000*%
G04 APERTURE END LIST*
D10*
X17800000Y-5950000D02*
G75*
G03*
X17900000Y-5850000I0J100000D01*
G01*
X19450000Y-5700000D02*
G75*
G03*
X19350000Y-5800000I0J-100000D01*
G01*
X19750000Y-12700000D02*
X19750000Y-9000000D01*
X10100000Y-10550000D02*
X10550000Y-10550000D01*
X17900000Y-5100000D02*
X17900000Y-5850000D01*
X19450000Y-13000000D02*
G75*
G03*
X19750000Y-12700000I0J300000D01*
G01*
X11850000Y-5100000D02*
G75*
G03*
X11750000Y-5000000I-100000J0D01*
G01*
X18000000Y-5000000D02*
G75*
G03*
X17900000Y-5100000I0J-100000D01*
G01*
X19650000Y-8900000D02*
X19450000Y-8900000D01*
X11850000Y-5850000D02*
G75*
G03*
X11950000Y-5950000I100000J0D01*
G01*
X10100000Y-11150000D02*
G75*
G03*
X10000000Y-11250000I0J-100000D01*
G01*
X19750000Y-9000000D02*
G75*
G03*
X19650000Y-8900000I-100000J0D01*
G01*
X10000000Y-5300000D02*
X10000000Y-10450000D01*
X19450000Y-5000000D02*
X18000000Y-5000000D01*
X19350000Y-8800000D02*
G75*
G03*
X19450000Y-8900000I100000J0D01*
G01*
X11750000Y-5000000D02*
X10300000Y-5000000D01*
X19450000Y-5700000D02*
X19650000Y-5700000D01*
X19750000Y-5300000D02*
G75*
G03*
X19450000Y-5000000I-300000J0D01*
G01*
X10300000Y-13000000D02*
X19450000Y-13000000D01*
X10650000Y-10650000D02*
G75*
G03*
X10550000Y-10550000I-100000J0D01*
G01*
X11850000Y-5850000D02*
X11850000Y-5100000D01*
X10000000Y-10450000D02*
G75*
G03*
X10100000Y-10550000I100000J0D01*
G01*
X19350000Y-8800000D02*
X19350000Y-5800000D01*
X10000000Y-12700000D02*
G75*
G03*
X10300000Y-13000000I300000J0D01*
G01*
X19650000Y-5700000D02*
G75*
G03*
X19750000Y-5600000I0J100000D01*
G01*
X17800000Y-5950000D02*
X11950000Y-5950000D01*
X10300000Y-5000000D02*
G75*
G03*
X10000000Y-5300000I0J-300000D01*
G01*
X10000000Y-11250000D02*
X10000000Y-12700000D01*
X10550000Y-11150000D02*
G75*
G03*
X10650000Y-11050000I0J100000D01*
G01*
X10550000Y-11150000D02*
X10100000Y-11150000D01*
X19750000Y-5600000D02*
X19750000Y-5300000D01*
X10650000Y-10650000D02*
X10650000Y-11050000D01*
D11*
D12*
X18147500Y-5681500D02*
X18212500Y-5746500D01*
X18212500Y-5681500D02*
X18147500Y-5746500D01*
X18867500Y-5681500D02*
X18932500Y-5746500D01*
X18932500Y-5681500D02*
X18867500Y-5746500D01*
D13*
X10975000Y-7295000D02*
G75*
G03*
X10975000Y-7295000I-135000J0D01*
G01*
D11*
X10242619Y-13317524D02*
X10242619Y-13117524D01*
X10242619Y-13117524D02*
X10290238Y-13117524D01*
X10290238Y-13117524D02*
X10318809Y-13127048D01*
X10318809Y-13127048D02*
X10337857Y-13146095D01*
X10337857Y-13146095D02*
X10347381Y-13165143D01*
X10347381Y-13165143D02*
X10356905Y-13203238D01*
X10356905Y-13203238D02*
X10356905Y-13231810D01*
X10356905Y-13231810D02*
X10347381Y-13269905D01*
X10347381Y-13269905D02*
X10337857Y-13288952D01*
X10337857Y-13288952D02*
X10318809Y-13308000D01*
X10318809Y-13308000D02*
X10290238Y-13317524D01*
X10290238Y-13317524D02*
X10242619Y-13317524D01*
X10442619Y-13317524D02*
X10442619Y-13184190D01*
X10442619Y-13222286D02*
X10452143Y-13203238D01*
X10452143Y-13203238D02*
X10461667Y-13193714D01*
X10461667Y-13193714D02*
X10480714Y-13184190D01*
X10480714Y-13184190D02*
X10499762Y-13184190D01*
X10566428Y-13317524D02*
X10566428Y-13184190D01*
X10566428Y-13117524D02*
X10556905Y-13127048D01*
X10556905Y-13127048D02*
X10566428Y-13136571D01*
X10566428Y-13136571D02*
X10575952Y-13127048D01*
X10575952Y-13127048D02*
X10566428Y-13117524D01*
X10566428Y-13117524D02*
X10566428Y-13136571D01*
X10690238Y-13317524D02*
X10671190Y-13308000D01*
X10671190Y-13308000D02*
X10661667Y-13288952D01*
X10661667Y-13288952D02*
X10661667Y-13117524D01*
X10795000Y-13317524D02*
X10775952Y-13308000D01*
X10775952Y-13308000D02*
X10766428Y-13288952D01*
X10766428Y-13288952D02*
X10766428Y-13117524D01*
X11023571Y-13317524D02*
X11023571Y-13117524D01*
X11023571Y-13117524D02*
X11090238Y-13260381D01*
X11090238Y-13260381D02*
X11156905Y-13117524D01*
X11156905Y-13117524D02*
X11156905Y-13317524D01*
X11337857Y-13317524D02*
X11337857Y-13212762D01*
X11337857Y-13212762D02*
X11328333Y-13193714D01*
X11328333Y-13193714D02*
X11309286Y-13184190D01*
X11309286Y-13184190D02*
X11271190Y-13184190D01*
X11271190Y-13184190D02*
X11252143Y-13193714D01*
X11337857Y-13308000D02*
X11318809Y-13317524D01*
X11318809Y-13317524D02*
X11271190Y-13317524D01*
X11271190Y-13317524D02*
X11252143Y-13308000D01*
X11252143Y-13308000D02*
X11242619Y-13288952D01*
X11242619Y-13288952D02*
X11242619Y-13269905D01*
X11242619Y-13269905D02*
X11252143Y-13250857D01*
X11252143Y-13250857D02*
X11271190Y-13241333D01*
X11271190Y-13241333D02*
X11318809Y-13241333D01*
X11318809Y-13241333D02*
X11337857Y-13231810D01*
X11433095Y-13184190D02*
X11433095Y-13384190D01*
X11433095Y-13193714D02*
X11452143Y-13184190D01*
X11452143Y-13184190D02*
X11490238Y-13184190D01*
X11490238Y-13184190D02*
X11509286Y-13193714D01*
X11509286Y-13193714D02*
X11518809Y-13203238D01*
X11518809Y-13203238D02*
X11528333Y-13222286D01*
X11528333Y-13222286D02*
X11528333Y-13279429D01*
X11528333Y-13279429D02*
X11518809Y-13298476D01*
X11518809Y-13298476D02*
X11509286Y-13308000D01*
X11509286Y-13308000D02*
X11490238Y-13317524D01*
X11490238Y-13317524D02*
X11452143Y-13317524D01*
X11452143Y-13317524D02*
X11433095Y-13308000D01*
X11614047Y-13298476D02*
X11623571Y-13308000D01*
X11623571Y-13308000D02*
X11614047Y-13317524D01*
X11614047Y-13317524D02*
X11604524Y-13308000D01*
X11604524Y-13308000D02*
X11614047Y-13298476D01*
X11614047Y-13298476D02*
X11614047Y-13317524D01*
X11614047Y-13193714D02*
X11623571Y-13203238D01*
X11623571Y-13203238D02*
X11614047Y-13212762D01*
X11614047Y-13212762D02*
X11604524Y-13203238D01*
X11604524Y-13203238D02*
X11614047Y-13193714D01*
X11614047Y-13193714D02*
X11614047Y-13212762D01*
D12*
X9930000Y-13612500D02*
X9995000Y-13677500D01*
X9995000Y-13612500D02*
X9930000Y-13677500D01*
D11*
X10280714Y-13537524D02*
X10299762Y-13537524D01*
X10299762Y-13537524D02*
X10318809Y-13547048D01*
X10318809Y-13547048D02*
X10328333Y-13556571D01*
X10328333Y-13556571D02*
X10337857Y-13575619D01*
X10337857Y-13575619D02*
X10347381Y-13613714D01*
X10347381Y-13613714D02*
X10347381Y-13661333D01*
X10347381Y-13661333D02*
X10337857Y-13699429D01*
X10337857Y-13699429D02*
X10328333Y-13718476D01*
X10328333Y-13718476D02*
X10318809Y-13728000D01*
X10318809Y-13728000D02*
X10299762Y-13737524D01*
X10299762Y-13737524D02*
X10280714Y-13737524D01*
X10280714Y-13737524D02*
X10261667Y-13728000D01*
X10261667Y-13728000D02*
X10252143Y-13718476D01*
X10252143Y-13718476D02*
X10242619Y-13699429D01*
X10242619Y-13699429D02*
X10233095Y-13661333D01*
X10233095Y-13661333D02*
X10233095Y-13613714D01*
X10233095Y-13613714D02*
X10242619Y-13575619D01*
X10242619Y-13575619D02*
X10252143Y-13556571D01*
X10252143Y-13556571D02*
X10261667Y-13547048D01*
X10261667Y-13547048D02*
X10280714Y-13537524D01*
X10433095Y-13718476D02*
X10442619Y-13728000D01*
X10442619Y-13728000D02*
X10433095Y-13737524D01*
X10433095Y-13737524D02*
X10423571Y-13728000D01*
X10423571Y-13728000D02*
X10433095Y-13718476D01*
X10433095Y-13718476D02*
X10433095Y-13737524D01*
X10614048Y-13537524D02*
X10575952Y-13537524D01*
X10575952Y-13537524D02*
X10556905Y-13547048D01*
X10556905Y-13547048D02*
X10547381Y-13556571D01*
X10547381Y-13556571D02*
X10528333Y-13585143D01*
X10528333Y-13585143D02*
X10518809Y-13623238D01*
X10518809Y-13623238D02*
X10518809Y-13699429D01*
X10518809Y-13699429D02*
X10528333Y-13718476D01*
X10528333Y-13718476D02*
X10537857Y-13728000D01*
X10537857Y-13728000D02*
X10556905Y-13737524D01*
X10556905Y-13737524D02*
X10595000Y-13737524D01*
X10595000Y-13737524D02*
X10614048Y-13728000D01*
X10614048Y-13728000D02*
X10623571Y-13718476D01*
X10623571Y-13718476D02*
X10633095Y-13699429D01*
X10633095Y-13699429D02*
X10633095Y-13651810D01*
X10633095Y-13651810D02*
X10623571Y-13632762D01*
X10623571Y-13632762D02*
X10614048Y-13623238D01*
X10614048Y-13623238D02*
X10595000Y-13613714D01*
X10595000Y-13613714D02*
X10556905Y-13613714D01*
X10556905Y-13613714D02*
X10537857Y-13623238D01*
X10537857Y-13623238D02*
X10528333Y-13632762D01*
X10528333Y-13632762D02*
X10518809Y-13651810D01*
X10814048Y-13537524D02*
X10718809Y-13537524D01*
X10718809Y-13537524D02*
X10709286Y-13632762D01*
X10709286Y-13632762D02*
X10718809Y-13623238D01*
X10718809Y-13623238D02*
X10737857Y-13613714D01*
X10737857Y-13613714D02*
X10785476Y-13613714D01*
X10785476Y-13613714D02*
X10804524Y-13623238D01*
X10804524Y-13623238D02*
X10814048Y-13632762D01*
X10814048Y-13632762D02*
X10823571Y-13651810D01*
X10823571Y-13651810D02*
X10823571Y-13699429D01*
X10823571Y-13699429D02*
X10814048Y-13718476D01*
X10814048Y-13718476D02*
X10804524Y-13728000D01*
X10804524Y-13728000D02*
X10785476Y-13737524D01*
X10785476Y-13737524D02*
X10737857Y-13737524D01*
X10737857Y-13737524D02*
X10718809Y-13728000D01*
X10718809Y-13728000D02*
X10709286Y-13718476D01*
X10947381Y-13537524D02*
X10966429Y-13537524D01*
X10966429Y-13537524D02*
X10985476Y-13547048D01*
X10985476Y-13547048D02*
X10995000Y-13556571D01*
X10995000Y-13556571D02*
X11004524Y-13575619D01*
X11004524Y-13575619D02*
X11014048Y-13613714D01*
X11014048Y-13613714D02*
X11014048Y-13661333D01*
X11014048Y-13661333D02*
X11004524Y-13699429D01*
X11004524Y-13699429D02*
X10995000Y-13718476D01*
X10995000Y-13718476D02*
X10985476Y-13728000D01*
X10985476Y-13728000D02*
X10966429Y-13737524D01*
X10966429Y-13737524D02*
X10947381Y-13737524D01*
X10947381Y-13737524D02*
X10928333Y-13728000D01*
X10928333Y-13728000D02*
X10918809Y-13718476D01*
X10918809Y-13718476D02*
X10909286Y-13699429D01*
X10909286Y-13699429D02*
X10899762Y-13661333D01*
X10899762Y-13661333D02*
X10899762Y-13613714D01*
X10899762Y-13613714D02*
X10909286Y-13575619D01*
X10909286Y-13575619D02*
X10918809Y-13556571D01*
X10918809Y-13556571D02*
X10928333Y-13547048D01*
X10928333Y-13547048D02*
X10947381Y-13537524D01*
X11099762Y-13737524D02*
X11099762Y-13604190D01*
X11099762Y-13623238D02*
X11109286Y-13613714D01*
X11109286Y-13613714D02*
X11128333Y-13604190D01*
X11128333Y-13604190D02*
X11156905Y-13604190D01*
X11156905Y-13604190D02*
X11175952Y-13613714D01*
X11175952Y-13613714D02*
X11185476Y-13632762D01*
X11185476Y-13632762D02*
X11185476Y-13737524D01*
X11185476Y-13632762D02*
X11195000Y-13613714D01*
X11195000Y-13613714D02*
X11214047Y-13604190D01*
X11214047Y-13604190D02*
X11242619Y-13604190D01*
X11242619Y-13604190D02*
X11261667Y-13613714D01*
X11261667Y-13613714D02*
X11271190Y-13632762D01*
X11271190Y-13632762D02*
X11271190Y-13737524D01*
X11366428Y-13737524D02*
X11366428Y-13604190D01*
X11366428Y-13623238D02*
X11375952Y-13613714D01*
X11375952Y-13613714D02*
X11395000Y-13604190D01*
X11395000Y-13604190D02*
X11423571Y-13604190D01*
X11423571Y-13604190D02*
X11442619Y-13613714D01*
X11442619Y-13613714D02*
X11452143Y-13632762D01*
X11452143Y-13632762D02*
X11452143Y-13737524D01*
X11452143Y-13632762D02*
X11461667Y-13613714D01*
X11461667Y-13613714D02*
X11480714Y-13604190D01*
X11480714Y-13604190D02*
X11509286Y-13604190D01*
X11509286Y-13604190D02*
X11528333Y-13613714D01*
X11528333Y-13613714D02*
X11537857Y-13632762D01*
X11537857Y-13632762D02*
X11537857Y-13737524D01*
X11928333Y-13528000D02*
X11756905Y-13785143D01*
X12185476Y-13537524D02*
X12204524Y-13537524D01*
X12204524Y-13537524D02*
X12223571Y-13547048D01*
X12223571Y-13547048D02*
X12233095Y-13556571D01*
X12233095Y-13556571D02*
X12242619Y-13575619D01*
X12242619Y-13575619D02*
X12252143Y-13613714D01*
X12252143Y-13613714D02*
X12252143Y-13661333D01*
X12252143Y-13661333D02*
X12242619Y-13699429D01*
X12242619Y-13699429D02*
X12233095Y-13718476D01*
X12233095Y-13718476D02*
X12223571Y-13728000D01*
X12223571Y-13728000D02*
X12204524Y-13737524D01*
X12204524Y-13737524D02*
X12185476Y-13737524D01*
X12185476Y-13737524D02*
X12166429Y-13728000D01*
X12166429Y-13728000D02*
X12156905Y-13718476D01*
X12156905Y-13718476D02*
X12147381Y-13699429D01*
X12147381Y-13699429D02*
X12137857Y-13661333D01*
X12137857Y-13661333D02*
X12137857Y-13613714D01*
X12137857Y-13613714D02*
X12147381Y-13575619D01*
X12147381Y-13575619D02*
X12156905Y-13556571D01*
X12156905Y-13556571D02*
X12166429Y-13547048D01*
X12166429Y-13547048D02*
X12185476Y-13537524D01*
X12337857Y-13718476D02*
X12347381Y-13728000D01*
X12347381Y-13728000D02*
X12337857Y-13737524D01*
X12337857Y-13737524D02*
X12328333Y-13728000D01*
X12328333Y-13728000D02*
X12337857Y-13718476D01*
X12337857Y-13718476D02*
X12337857Y-13737524D01*
X12471190Y-13537524D02*
X12490238Y-13537524D01*
X12490238Y-13537524D02*
X12509286Y-13547048D01*
X12509286Y-13547048D02*
X12518810Y-13556571D01*
X12518810Y-13556571D02*
X12528333Y-13575619D01*
X12528333Y-13575619D02*
X12537857Y-13613714D01*
X12537857Y-13613714D02*
X12537857Y-13661333D01*
X12537857Y-13661333D02*
X12528333Y-13699429D01*
X12528333Y-13699429D02*
X12518810Y-13718476D01*
X12518810Y-13718476D02*
X12509286Y-13728000D01*
X12509286Y-13728000D02*
X12490238Y-13737524D01*
X12490238Y-13737524D02*
X12471190Y-13737524D01*
X12471190Y-13737524D02*
X12452143Y-13728000D01*
X12452143Y-13728000D02*
X12442619Y-13718476D01*
X12442619Y-13718476D02*
X12433095Y-13699429D01*
X12433095Y-13699429D02*
X12423571Y-13661333D01*
X12423571Y-13661333D02*
X12423571Y-13613714D01*
X12423571Y-13613714D02*
X12433095Y-13575619D01*
X12433095Y-13575619D02*
X12442619Y-13556571D01*
X12442619Y-13556571D02*
X12452143Y-13547048D01*
X12452143Y-13547048D02*
X12471190Y-13537524D01*
X12614048Y-13556571D02*
X12623571Y-13547048D01*
X12623571Y-13547048D02*
X12642619Y-13537524D01*
X12642619Y-13537524D02*
X12690238Y-13537524D01*
X12690238Y-13537524D02*
X12709286Y-13547048D01*
X12709286Y-13547048D02*
X12718810Y-13556571D01*
X12718810Y-13556571D02*
X12728333Y-13575619D01*
X12728333Y-13575619D02*
X12728333Y-13594667D01*
X12728333Y-13594667D02*
X12718810Y-13623238D01*
X12718810Y-13623238D02*
X12604524Y-13737524D01*
X12604524Y-13737524D02*
X12728333Y-13737524D01*
X12909286Y-13537524D02*
X12814048Y-13537524D01*
X12814048Y-13537524D02*
X12804524Y-13632762D01*
X12804524Y-13632762D02*
X12814048Y-13623238D01*
X12814048Y-13623238D02*
X12833095Y-13613714D01*
X12833095Y-13613714D02*
X12880714Y-13613714D01*
X12880714Y-13613714D02*
X12899762Y-13623238D01*
X12899762Y-13623238D02*
X12909286Y-13632762D01*
X12909286Y-13632762D02*
X12918810Y-13651810D01*
X12918810Y-13651810D02*
X12918810Y-13699429D01*
X12918810Y-13699429D02*
X12909286Y-13718476D01*
X12909286Y-13718476D02*
X12899762Y-13728000D01*
X12899762Y-13728000D02*
X12880714Y-13737524D01*
X12880714Y-13737524D02*
X12833095Y-13737524D01*
X12833095Y-13737524D02*
X12814048Y-13728000D01*
X12814048Y-13728000D02*
X12804524Y-13718476D01*
X13090238Y-13537524D02*
X13052143Y-13537524D01*
X13052143Y-13537524D02*
X13033095Y-13547048D01*
X13033095Y-13547048D02*
X13023571Y-13556571D01*
X13023571Y-13556571D02*
X13004524Y-13585143D01*
X13004524Y-13585143D02*
X12995000Y-13623238D01*
X12995000Y-13623238D02*
X12995000Y-13699429D01*
X12995000Y-13699429D02*
X13004524Y-13718476D01*
X13004524Y-13718476D02*
X13014048Y-13728000D01*
X13014048Y-13728000D02*
X13033095Y-13737524D01*
X13033095Y-13737524D02*
X13071191Y-13737524D01*
X13071191Y-13737524D02*
X13090238Y-13728000D01*
X13090238Y-13728000D02*
X13099762Y-13718476D01*
X13099762Y-13718476D02*
X13109286Y-13699429D01*
X13109286Y-13699429D02*
X13109286Y-13651810D01*
X13109286Y-13651810D02*
X13099762Y-13632762D01*
X13099762Y-13632762D02*
X13090238Y-13623238D01*
X13090238Y-13623238D02*
X13071191Y-13613714D01*
X13071191Y-13613714D02*
X13033095Y-13613714D01*
X13033095Y-13613714D02*
X13014048Y-13623238D01*
X13014048Y-13623238D02*
X13004524Y-13632762D01*
X13004524Y-13632762D02*
X12995000Y-13651810D01*
X13185476Y-13537524D02*
X13185476Y-13575619D01*
X13261667Y-13537524D02*
X13261667Y-13575619D01*
X13556905Y-13813714D02*
X13547381Y-13804190D01*
X13547381Y-13804190D02*
X13528333Y-13775619D01*
X13528333Y-13775619D02*
X13518810Y-13756571D01*
X13518810Y-13756571D02*
X13509286Y-13728000D01*
X13509286Y-13728000D02*
X13499762Y-13680381D01*
X13499762Y-13680381D02*
X13499762Y-13642286D01*
X13499762Y-13642286D02*
X13509286Y-13594667D01*
X13509286Y-13594667D02*
X13518810Y-13566095D01*
X13518810Y-13566095D02*
X13528333Y-13547048D01*
X13528333Y-13547048D02*
X13547381Y-13518476D01*
X13547381Y-13518476D02*
X13556905Y-13508952D01*
X13623572Y-13556571D02*
X13633095Y-13547048D01*
X13633095Y-13547048D02*
X13652143Y-13537524D01*
X13652143Y-13537524D02*
X13699762Y-13537524D01*
X13699762Y-13537524D02*
X13718810Y-13547048D01*
X13718810Y-13547048D02*
X13728333Y-13556571D01*
X13728333Y-13556571D02*
X13737857Y-13575619D01*
X13737857Y-13575619D02*
X13737857Y-13594667D01*
X13737857Y-13594667D02*
X13728333Y-13623238D01*
X13728333Y-13623238D02*
X13614048Y-13737524D01*
X13614048Y-13737524D02*
X13737857Y-13737524D01*
X13975953Y-13737524D02*
X13975953Y-13537524D01*
X14061667Y-13737524D02*
X14061667Y-13632762D01*
X14061667Y-13632762D02*
X14052143Y-13613714D01*
X14052143Y-13613714D02*
X14033095Y-13604190D01*
X14033095Y-13604190D02*
X14004524Y-13604190D01*
X14004524Y-13604190D02*
X13985476Y-13613714D01*
X13985476Y-13613714D02*
X13975953Y-13623238D01*
X14185476Y-13737524D02*
X14166429Y-13728000D01*
X14166429Y-13728000D02*
X14156905Y-13718476D01*
X14156905Y-13718476D02*
X14147381Y-13699429D01*
X14147381Y-13699429D02*
X14147381Y-13642286D01*
X14147381Y-13642286D02*
X14156905Y-13623238D01*
X14156905Y-13623238D02*
X14166429Y-13613714D01*
X14166429Y-13613714D02*
X14185476Y-13604190D01*
X14185476Y-13604190D02*
X14214048Y-13604190D01*
X14214048Y-13604190D02*
X14233095Y-13613714D01*
X14233095Y-13613714D02*
X14242619Y-13623238D01*
X14242619Y-13623238D02*
X14252143Y-13642286D01*
X14252143Y-13642286D02*
X14252143Y-13699429D01*
X14252143Y-13699429D02*
X14242619Y-13718476D01*
X14242619Y-13718476D02*
X14233095Y-13728000D01*
X14233095Y-13728000D02*
X14214048Y-13737524D01*
X14214048Y-13737524D02*
X14185476Y-13737524D01*
X14366429Y-13737524D02*
X14347381Y-13728000D01*
X14347381Y-13728000D02*
X14337857Y-13708952D01*
X14337857Y-13708952D02*
X14337857Y-13537524D01*
X14518810Y-13728000D02*
X14499762Y-13737524D01*
X14499762Y-13737524D02*
X14461667Y-13737524D01*
X14461667Y-13737524D02*
X14442619Y-13728000D01*
X14442619Y-13728000D02*
X14433095Y-13708952D01*
X14433095Y-13708952D02*
X14433095Y-13632762D01*
X14433095Y-13632762D02*
X14442619Y-13613714D01*
X14442619Y-13613714D02*
X14461667Y-13604190D01*
X14461667Y-13604190D02*
X14499762Y-13604190D01*
X14499762Y-13604190D02*
X14518810Y-13613714D01*
X14518810Y-13613714D02*
X14528334Y-13632762D01*
X14528334Y-13632762D02*
X14528334Y-13651810D01*
X14528334Y-13651810D02*
X14433095Y-13670857D01*
X14604524Y-13728000D02*
X14623572Y-13737524D01*
X14623572Y-13737524D02*
X14661667Y-13737524D01*
X14661667Y-13737524D02*
X14680715Y-13728000D01*
X14680715Y-13728000D02*
X14690238Y-13708952D01*
X14690238Y-13708952D02*
X14690238Y-13699429D01*
X14690238Y-13699429D02*
X14680715Y-13680381D01*
X14680715Y-13680381D02*
X14661667Y-13670857D01*
X14661667Y-13670857D02*
X14633095Y-13670857D01*
X14633095Y-13670857D02*
X14614048Y-13661333D01*
X14614048Y-13661333D02*
X14604524Y-13642286D01*
X14604524Y-13642286D02*
X14604524Y-13632762D01*
X14604524Y-13632762D02*
X14614048Y-13613714D01*
X14614048Y-13613714D02*
X14633095Y-13604190D01*
X14633095Y-13604190D02*
X14661667Y-13604190D01*
X14661667Y-13604190D02*
X14680715Y-13613714D01*
X14756905Y-13813714D02*
X14766429Y-13804190D01*
X14766429Y-13804190D02*
X14785476Y-13775619D01*
X14785476Y-13775619D02*
X14795000Y-13756571D01*
X14795000Y-13756571D02*
X14804524Y-13728000D01*
X14804524Y-13728000D02*
X14814048Y-13680381D01*
X14814048Y-13680381D02*
X14814048Y-13642286D01*
X14814048Y-13642286D02*
X14804524Y-13594667D01*
X14804524Y-13594667D02*
X14795000Y-13566095D01*
X14795000Y-13566095D02*
X14785476Y-13547048D01*
X14785476Y-13547048D02*
X14766429Y-13518476D01*
X14766429Y-13518476D02*
X14756905Y-13508952D01*
X15118810Y-13813714D02*
X15109286Y-13804190D01*
X15109286Y-13804190D02*
X15090238Y-13775619D01*
X15090238Y-13775619D02*
X15080715Y-13756571D01*
X15080715Y-13756571D02*
X15071191Y-13728000D01*
X15071191Y-13728000D02*
X15061667Y-13680381D01*
X15061667Y-13680381D02*
X15061667Y-13642286D01*
X15061667Y-13642286D02*
X15071191Y-13594667D01*
X15071191Y-13594667D02*
X15080715Y-13566095D01*
X15080715Y-13566095D02*
X15090238Y-13547048D01*
X15090238Y-13547048D02*
X15109286Y-13518476D01*
X15109286Y-13518476D02*
X15118810Y-13508952D01*
X15195000Y-13604190D02*
X15195000Y-13737524D01*
X15195000Y-13623238D02*
X15204524Y-13613714D01*
X15204524Y-13613714D02*
X15223572Y-13604190D01*
X15223572Y-13604190D02*
X15252143Y-13604190D01*
X15252143Y-13604190D02*
X15271191Y-13613714D01*
X15271191Y-13613714D02*
X15280715Y-13632762D01*
X15280715Y-13632762D02*
X15280715Y-13737524D01*
X15404524Y-13737524D02*
X15385476Y-13728000D01*
X15385476Y-13728000D02*
X15375953Y-13718476D01*
X15375953Y-13718476D02*
X15366429Y-13699429D01*
X15366429Y-13699429D02*
X15366429Y-13642286D01*
X15366429Y-13642286D02*
X15375953Y-13623238D01*
X15375953Y-13623238D02*
X15385476Y-13613714D01*
X15385476Y-13613714D02*
X15404524Y-13604190D01*
X15404524Y-13604190D02*
X15433096Y-13604190D01*
X15433096Y-13604190D02*
X15452143Y-13613714D01*
X15452143Y-13613714D02*
X15461667Y-13623238D01*
X15461667Y-13623238D02*
X15471191Y-13642286D01*
X15471191Y-13642286D02*
X15471191Y-13699429D01*
X15471191Y-13699429D02*
X15461667Y-13718476D01*
X15461667Y-13718476D02*
X15452143Y-13728000D01*
X15452143Y-13728000D02*
X15433096Y-13737524D01*
X15433096Y-13737524D02*
X15404524Y-13737524D01*
X15528334Y-13604190D02*
X15604524Y-13604190D01*
X15556905Y-13537524D02*
X15556905Y-13708952D01*
X15556905Y-13708952D02*
X15566429Y-13728000D01*
X15566429Y-13728000D02*
X15585476Y-13737524D01*
X15585476Y-13737524D02*
X15604524Y-13737524D01*
X15823572Y-13604190D02*
X15823572Y-13804190D01*
X15823572Y-13613714D02*
X15842619Y-13604190D01*
X15842619Y-13604190D02*
X15880715Y-13604190D01*
X15880715Y-13604190D02*
X15899762Y-13613714D01*
X15899762Y-13613714D02*
X15909286Y-13623238D01*
X15909286Y-13623238D02*
X15918810Y-13642286D01*
X15918810Y-13642286D02*
X15918810Y-13699429D01*
X15918810Y-13699429D02*
X15909286Y-13718476D01*
X15909286Y-13718476D02*
X15899762Y-13728000D01*
X15899762Y-13728000D02*
X15880715Y-13737524D01*
X15880715Y-13737524D02*
X15842619Y-13737524D01*
X15842619Y-13737524D02*
X15823572Y-13728000D01*
X16033096Y-13737524D02*
X16014048Y-13728000D01*
X16014048Y-13728000D02*
X16004524Y-13708952D01*
X16004524Y-13708952D02*
X16004524Y-13537524D01*
X16195000Y-13737524D02*
X16195000Y-13632762D01*
X16195000Y-13632762D02*
X16185477Y-13613714D01*
X16185477Y-13613714D02*
X16166429Y-13604190D01*
X16166429Y-13604190D02*
X16128334Y-13604190D01*
X16128334Y-13604190D02*
X16109286Y-13613714D01*
X16195000Y-13728000D02*
X16175953Y-13737524D01*
X16175953Y-13737524D02*
X16128334Y-13737524D01*
X16128334Y-13737524D02*
X16109286Y-13728000D01*
X16109286Y-13728000D02*
X16099762Y-13708952D01*
X16099762Y-13708952D02*
X16099762Y-13689905D01*
X16099762Y-13689905D02*
X16109286Y-13670857D01*
X16109286Y-13670857D02*
X16128334Y-13661333D01*
X16128334Y-13661333D02*
X16175953Y-13661333D01*
X16175953Y-13661333D02*
X16195000Y-13651810D01*
X16261667Y-13604190D02*
X16337857Y-13604190D01*
X16290238Y-13537524D02*
X16290238Y-13708952D01*
X16290238Y-13708952D02*
X16299762Y-13728000D01*
X16299762Y-13728000D02*
X16318810Y-13737524D01*
X16318810Y-13737524D02*
X16337857Y-13737524D01*
X16480715Y-13728000D02*
X16461667Y-13737524D01*
X16461667Y-13737524D02*
X16423572Y-13737524D01*
X16423572Y-13737524D02*
X16404524Y-13728000D01*
X16404524Y-13728000D02*
X16395000Y-13708952D01*
X16395000Y-13708952D02*
X16395000Y-13632762D01*
X16395000Y-13632762D02*
X16404524Y-13613714D01*
X16404524Y-13613714D02*
X16423572Y-13604190D01*
X16423572Y-13604190D02*
X16461667Y-13604190D01*
X16461667Y-13604190D02*
X16480715Y-13613714D01*
X16480715Y-13613714D02*
X16490238Y-13632762D01*
X16490238Y-13632762D02*
X16490238Y-13651810D01*
X16490238Y-13651810D02*
X16395000Y-13670857D01*
X16661667Y-13737524D02*
X16661667Y-13537524D01*
X16661667Y-13728000D02*
X16642619Y-13737524D01*
X16642619Y-13737524D02*
X16604524Y-13737524D01*
X16604524Y-13737524D02*
X16585477Y-13728000D01*
X16585477Y-13728000D02*
X16575953Y-13718476D01*
X16575953Y-13718476D02*
X16566429Y-13699429D01*
X16566429Y-13699429D02*
X16566429Y-13642286D01*
X16566429Y-13642286D02*
X16575953Y-13623238D01*
X16575953Y-13623238D02*
X16585477Y-13613714D01*
X16585477Y-13613714D02*
X16604524Y-13604190D01*
X16604524Y-13604190D02*
X16642619Y-13604190D01*
X16642619Y-13604190D02*
X16661667Y-13613714D01*
X16737858Y-13813714D02*
X16747381Y-13804190D01*
X16747381Y-13804190D02*
X16766429Y-13775619D01*
X16766429Y-13775619D02*
X16775953Y-13756571D01*
X16775953Y-13756571D02*
X16785477Y-13728000D01*
X16785477Y-13728000D02*
X16795000Y-13680381D01*
X16795000Y-13680381D02*
X16795000Y-13642286D01*
X16795000Y-13642286D02*
X16785477Y-13594667D01*
X16785477Y-13594667D02*
X16775953Y-13566095D01*
X16775953Y-13566095D02*
X16766429Y-13547048D01*
X16766429Y-13547048D02*
X16747381Y-13518476D01*
X16747381Y-13518476D02*
X16737858Y-13508952D01*
X9995000Y-13909000D02*
G75*
G03*
X9995000Y-13909000I-100000J0D01*
G01*
X10233095Y-13820571D02*
X10242619Y-13811048D01*
X10242619Y-13811048D02*
X10261667Y-13801524D01*
X10261667Y-13801524D02*
X10309286Y-13801524D01*
X10309286Y-13801524D02*
X10328333Y-13811048D01*
X10328333Y-13811048D02*
X10337857Y-13820571D01*
X10337857Y-13820571D02*
X10347381Y-13839619D01*
X10347381Y-13839619D02*
X10347381Y-13858667D01*
X10347381Y-13858667D02*
X10337857Y-13887238D01*
X10337857Y-13887238D02*
X10223571Y-14001524D01*
X10223571Y-14001524D02*
X10347381Y-14001524D01*
X10433095Y-13982476D02*
X10442619Y-13992000D01*
X10442619Y-13992000D02*
X10433095Y-14001524D01*
X10433095Y-14001524D02*
X10423571Y-13992000D01*
X10423571Y-13992000D02*
X10433095Y-13982476D01*
X10433095Y-13982476D02*
X10433095Y-14001524D01*
X10509286Y-13801524D02*
X10642619Y-13801524D01*
X10642619Y-13801524D02*
X10556905Y-14001524D01*
X10756905Y-13801524D02*
X10775952Y-13801524D01*
X10775952Y-13801524D02*
X10795000Y-13811048D01*
X10795000Y-13811048D02*
X10804524Y-13820571D01*
X10804524Y-13820571D02*
X10814048Y-13839619D01*
X10814048Y-13839619D02*
X10823571Y-13877714D01*
X10823571Y-13877714D02*
X10823571Y-13925333D01*
X10823571Y-13925333D02*
X10814048Y-13963429D01*
X10814048Y-13963429D02*
X10804524Y-13982476D01*
X10804524Y-13982476D02*
X10795000Y-13992000D01*
X10795000Y-13992000D02*
X10775952Y-14001524D01*
X10775952Y-14001524D02*
X10756905Y-14001524D01*
X10756905Y-14001524D02*
X10737857Y-13992000D01*
X10737857Y-13992000D02*
X10728333Y-13982476D01*
X10728333Y-13982476D02*
X10718809Y-13963429D01*
X10718809Y-13963429D02*
X10709286Y-13925333D01*
X10709286Y-13925333D02*
X10709286Y-13877714D01*
X10709286Y-13877714D02*
X10718809Y-13839619D01*
X10718809Y-13839619D02*
X10728333Y-13820571D01*
X10728333Y-13820571D02*
X10737857Y-13811048D01*
X10737857Y-13811048D02*
X10756905Y-13801524D01*
X10947381Y-13801524D02*
X10966429Y-13801524D01*
X10966429Y-13801524D02*
X10985476Y-13811048D01*
X10985476Y-13811048D02*
X10995000Y-13820571D01*
X10995000Y-13820571D02*
X11004524Y-13839619D01*
X11004524Y-13839619D02*
X11014048Y-13877714D01*
X11014048Y-13877714D02*
X11014048Y-13925333D01*
X11014048Y-13925333D02*
X11004524Y-13963429D01*
X11004524Y-13963429D02*
X10995000Y-13982476D01*
X10995000Y-13982476D02*
X10985476Y-13992000D01*
X10985476Y-13992000D02*
X10966429Y-14001524D01*
X10966429Y-14001524D02*
X10947381Y-14001524D01*
X10947381Y-14001524D02*
X10928333Y-13992000D01*
X10928333Y-13992000D02*
X10918809Y-13982476D01*
X10918809Y-13982476D02*
X10909286Y-13963429D01*
X10909286Y-13963429D02*
X10899762Y-13925333D01*
X10899762Y-13925333D02*
X10899762Y-13877714D01*
X10899762Y-13877714D02*
X10909286Y-13839619D01*
X10909286Y-13839619D02*
X10918809Y-13820571D01*
X10918809Y-13820571D02*
X10928333Y-13811048D01*
X10928333Y-13811048D02*
X10947381Y-13801524D01*
X11099762Y-14001524D02*
X11099762Y-13868190D01*
X11099762Y-13887238D02*
X11109286Y-13877714D01*
X11109286Y-13877714D02*
X11128333Y-13868190D01*
X11128333Y-13868190D02*
X11156905Y-13868190D01*
X11156905Y-13868190D02*
X11175952Y-13877714D01*
X11175952Y-13877714D02*
X11185476Y-13896762D01*
X11185476Y-13896762D02*
X11185476Y-14001524D01*
X11185476Y-13896762D02*
X11195000Y-13877714D01*
X11195000Y-13877714D02*
X11214047Y-13868190D01*
X11214047Y-13868190D02*
X11242619Y-13868190D01*
X11242619Y-13868190D02*
X11261667Y-13877714D01*
X11261667Y-13877714D02*
X11271190Y-13896762D01*
X11271190Y-13896762D02*
X11271190Y-14001524D01*
X11366428Y-14001524D02*
X11366428Y-13868190D01*
X11366428Y-13887238D02*
X11375952Y-13877714D01*
X11375952Y-13877714D02*
X11395000Y-13868190D01*
X11395000Y-13868190D02*
X11423571Y-13868190D01*
X11423571Y-13868190D02*
X11442619Y-13877714D01*
X11442619Y-13877714D02*
X11452143Y-13896762D01*
X11452143Y-13896762D02*
X11452143Y-14001524D01*
X11452143Y-13896762D02*
X11461667Y-13877714D01*
X11461667Y-13877714D02*
X11480714Y-13868190D01*
X11480714Y-13868190D02*
X11509286Y-13868190D01*
X11509286Y-13868190D02*
X11528333Y-13877714D01*
X11528333Y-13877714D02*
X11537857Y-13896762D01*
X11537857Y-13896762D02*
X11537857Y-14001524D01*
X11928333Y-13792000D02*
X11756905Y-14049143D01*
X12185476Y-13801524D02*
X12204524Y-13801524D01*
X12204524Y-13801524D02*
X12223571Y-13811048D01*
X12223571Y-13811048D02*
X12233095Y-13820571D01*
X12233095Y-13820571D02*
X12242619Y-13839619D01*
X12242619Y-13839619D02*
X12252143Y-13877714D01*
X12252143Y-13877714D02*
X12252143Y-13925333D01*
X12252143Y-13925333D02*
X12242619Y-13963429D01*
X12242619Y-13963429D02*
X12233095Y-13982476D01*
X12233095Y-13982476D02*
X12223571Y-13992000D01*
X12223571Y-13992000D02*
X12204524Y-14001524D01*
X12204524Y-14001524D02*
X12185476Y-14001524D01*
X12185476Y-14001524D02*
X12166429Y-13992000D01*
X12166429Y-13992000D02*
X12156905Y-13982476D01*
X12156905Y-13982476D02*
X12147381Y-13963429D01*
X12147381Y-13963429D02*
X12137857Y-13925333D01*
X12137857Y-13925333D02*
X12137857Y-13877714D01*
X12137857Y-13877714D02*
X12147381Y-13839619D01*
X12147381Y-13839619D02*
X12156905Y-13820571D01*
X12156905Y-13820571D02*
X12166429Y-13811048D01*
X12166429Y-13811048D02*
X12185476Y-13801524D01*
X12337857Y-13982476D02*
X12347381Y-13992000D01*
X12347381Y-13992000D02*
X12337857Y-14001524D01*
X12337857Y-14001524D02*
X12328333Y-13992000D01*
X12328333Y-13992000D02*
X12337857Y-13982476D01*
X12337857Y-13982476D02*
X12337857Y-14001524D01*
X12537857Y-14001524D02*
X12423571Y-14001524D01*
X12480714Y-14001524D02*
X12480714Y-13801524D01*
X12480714Y-13801524D02*
X12461667Y-13830095D01*
X12461667Y-13830095D02*
X12442619Y-13849143D01*
X12442619Y-13849143D02*
X12423571Y-13858667D01*
X12661667Y-13801524D02*
X12680714Y-13801524D01*
X12680714Y-13801524D02*
X12699762Y-13811048D01*
X12699762Y-13811048D02*
X12709286Y-13820571D01*
X12709286Y-13820571D02*
X12718810Y-13839619D01*
X12718810Y-13839619D02*
X12728333Y-13877714D01*
X12728333Y-13877714D02*
X12728333Y-13925333D01*
X12728333Y-13925333D02*
X12718810Y-13963429D01*
X12718810Y-13963429D02*
X12709286Y-13982476D01*
X12709286Y-13982476D02*
X12699762Y-13992000D01*
X12699762Y-13992000D02*
X12680714Y-14001524D01*
X12680714Y-14001524D02*
X12661667Y-14001524D01*
X12661667Y-14001524D02*
X12642619Y-13992000D01*
X12642619Y-13992000D02*
X12633095Y-13982476D01*
X12633095Y-13982476D02*
X12623571Y-13963429D01*
X12623571Y-13963429D02*
X12614048Y-13925333D01*
X12614048Y-13925333D02*
X12614048Y-13877714D01*
X12614048Y-13877714D02*
X12623571Y-13839619D01*
X12623571Y-13839619D02*
X12633095Y-13820571D01*
X12633095Y-13820571D02*
X12642619Y-13811048D01*
X12642619Y-13811048D02*
X12661667Y-13801524D01*
X12899762Y-13801524D02*
X12861667Y-13801524D01*
X12861667Y-13801524D02*
X12842619Y-13811048D01*
X12842619Y-13811048D02*
X12833095Y-13820571D01*
X12833095Y-13820571D02*
X12814048Y-13849143D01*
X12814048Y-13849143D02*
X12804524Y-13887238D01*
X12804524Y-13887238D02*
X12804524Y-13963429D01*
X12804524Y-13963429D02*
X12814048Y-13982476D01*
X12814048Y-13982476D02*
X12823571Y-13992000D01*
X12823571Y-13992000D02*
X12842619Y-14001524D01*
X12842619Y-14001524D02*
X12880714Y-14001524D01*
X12880714Y-14001524D02*
X12899762Y-13992000D01*
X12899762Y-13992000D02*
X12909286Y-13982476D01*
X12909286Y-13982476D02*
X12918810Y-13963429D01*
X12918810Y-13963429D02*
X12918810Y-13915810D01*
X12918810Y-13915810D02*
X12909286Y-13896762D01*
X12909286Y-13896762D02*
X12899762Y-13887238D01*
X12899762Y-13887238D02*
X12880714Y-13877714D01*
X12880714Y-13877714D02*
X12842619Y-13877714D01*
X12842619Y-13877714D02*
X12823571Y-13887238D01*
X12823571Y-13887238D02*
X12814048Y-13896762D01*
X12814048Y-13896762D02*
X12804524Y-13915810D01*
X12985476Y-13801524D02*
X13109286Y-13801524D01*
X13109286Y-13801524D02*
X13042619Y-13877714D01*
X13042619Y-13877714D02*
X13071191Y-13877714D01*
X13071191Y-13877714D02*
X13090238Y-13887238D01*
X13090238Y-13887238D02*
X13099762Y-13896762D01*
X13099762Y-13896762D02*
X13109286Y-13915810D01*
X13109286Y-13915810D02*
X13109286Y-13963429D01*
X13109286Y-13963429D02*
X13099762Y-13982476D01*
X13099762Y-13982476D02*
X13090238Y-13992000D01*
X13090238Y-13992000D02*
X13071191Y-14001524D01*
X13071191Y-14001524D02*
X13014048Y-14001524D01*
X13014048Y-14001524D02*
X12995000Y-13992000D01*
X12995000Y-13992000D02*
X12985476Y-13982476D01*
X13185476Y-13801524D02*
X13185476Y-13839619D01*
X13261667Y-13801524D02*
X13261667Y-13839619D01*
X13556905Y-14077714D02*
X13547381Y-14068190D01*
X13547381Y-14068190D02*
X13528333Y-14039619D01*
X13528333Y-14039619D02*
X13518810Y-14020571D01*
X13518810Y-14020571D02*
X13509286Y-13992000D01*
X13509286Y-13992000D02*
X13499762Y-13944381D01*
X13499762Y-13944381D02*
X13499762Y-13906286D01*
X13499762Y-13906286D02*
X13509286Y-13858667D01*
X13509286Y-13858667D02*
X13518810Y-13830095D01*
X13518810Y-13830095D02*
X13528333Y-13811048D01*
X13528333Y-13811048D02*
X13547381Y-13782476D01*
X13547381Y-13782476D02*
X13556905Y-13772952D01*
X13737857Y-14001524D02*
X13623572Y-14001524D01*
X13680714Y-14001524D02*
X13680714Y-13801524D01*
X13680714Y-13801524D02*
X13661667Y-13830095D01*
X13661667Y-13830095D02*
X13642619Y-13849143D01*
X13642619Y-13849143D02*
X13623572Y-13858667D01*
X13975953Y-14001524D02*
X13975953Y-13801524D01*
X14061667Y-14001524D02*
X14061667Y-13896762D01*
X14061667Y-13896762D02*
X14052143Y-13877714D01*
X14052143Y-13877714D02*
X14033095Y-13868190D01*
X14033095Y-13868190D02*
X14004524Y-13868190D01*
X14004524Y-13868190D02*
X13985476Y-13877714D01*
X13985476Y-13877714D02*
X13975953Y-13887238D01*
X14185476Y-14001524D02*
X14166429Y-13992000D01*
X14166429Y-13992000D02*
X14156905Y-13982476D01*
X14156905Y-13982476D02*
X14147381Y-13963429D01*
X14147381Y-13963429D02*
X14147381Y-13906286D01*
X14147381Y-13906286D02*
X14156905Y-13887238D01*
X14156905Y-13887238D02*
X14166429Y-13877714D01*
X14166429Y-13877714D02*
X14185476Y-13868190D01*
X14185476Y-13868190D02*
X14214048Y-13868190D01*
X14214048Y-13868190D02*
X14233095Y-13877714D01*
X14233095Y-13877714D02*
X14242619Y-13887238D01*
X14242619Y-13887238D02*
X14252143Y-13906286D01*
X14252143Y-13906286D02*
X14252143Y-13963429D01*
X14252143Y-13963429D02*
X14242619Y-13982476D01*
X14242619Y-13982476D02*
X14233095Y-13992000D01*
X14233095Y-13992000D02*
X14214048Y-14001524D01*
X14214048Y-14001524D02*
X14185476Y-14001524D01*
X14366429Y-14001524D02*
X14347381Y-13992000D01*
X14347381Y-13992000D02*
X14337857Y-13972952D01*
X14337857Y-13972952D02*
X14337857Y-13801524D01*
X14518810Y-13992000D02*
X14499762Y-14001524D01*
X14499762Y-14001524D02*
X14461667Y-14001524D01*
X14461667Y-14001524D02*
X14442619Y-13992000D01*
X14442619Y-13992000D02*
X14433095Y-13972952D01*
X14433095Y-13972952D02*
X14433095Y-13896762D01*
X14433095Y-13896762D02*
X14442619Y-13877714D01*
X14442619Y-13877714D02*
X14461667Y-13868190D01*
X14461667Y-13868190D02*
X14499762Y-13868190D01*
X14499762Y-13868190D02*
X14518810Y-13877714D01*
X14518810Y-13877714D02*
X14528334Y-13896762D01*
X14528334Y-13896762D02*
X14528334Y-13915810D01*
X14528334Y-13915810D02*
X14433095Y-13934857D01*
X14595000Y-14077714D02*
X14604524Y-14068190D01*
X14604524Y-14068190D02*
X14623572Y-14039619D01*
X14623572Y-14039619D02*
X14633095Y-14020571D01*
X14633095Y-14020571D02*
X14642619Y-13992000D01*
X14642619Y-13992000D02*
X14652143Y-13944381D01*
X14652143Y-13944381D02*
X14652143Y-13906286D01*
X14652143Y-13906286D02*
X14642619Y-13858667D01*
X14642619Y-13858667D02*
X14633095Y-13830095D01*
X14633095Y-13830095D02*
X14623572Y-13811048D01*
X14623572Y-13811048D02*
X14604524Y-13782476D01*
X14604524Y-13782476D02*
X14595000Y-13772952D01*
X14956905Y-14077714D02*
X14947381Y-14068190D01*
X14947381Y-14068190D02*
X14928334Y-14039619D01*
X14928334Y-14039619D02*
X14918810Y-14020571D01*
X14918810Y-14020571D02*
X14909286Y-13992000D01*
X14909286Y-13992000D02*
X14899762Y-13944381D01*
X14899762Y-13944381D02*
X14899762Y-13906286D01*
X14899762Y-13906286D02*
X14909286Y-13858667D01*
X14909286Y-13858667D02*
X14918810Y-13830095D01*
X14918810Y-13830095D02*
X14928334Y-13811048D01*
X14928334Y-13811048D02*
X14947381Y-13782476D01*
X14947381Y-13782476D02*
X14956905Y-13772952D01*
X15033095Y-13868190D02*
X15033095Y-14001524D01*
X15033095Y-13887238D02*
X15042619Y-13877714D01*
X15042619Y-13877714D02*
X15061667Y-13868190D01*
X15061667Y-13868190D02*
X15090238Y-13868190D01*
X15090238Y-13868190D02*
X15109286Y-13877714D01*
X15109286Y-13877714D02*
X15118810Y-13896762D01*
X15118810Y-13896762D02*
X15118810Y-14001524D01*
X15242619Y-14001524D02*
X15223572Y-13992000D01*
X15223572Y-13992000D02*
X15214048Y-13982476D01*
X15214048Y-13982476D02*
X15204524Y-13963429D01*
X15204524Y-13963429D02*
X15204524Y-13906286D01*
X15204524Y-13906286D02*
X15214048Y-13887238D01*
X15214048Y-13887238D02*
X15223572Y-13877714D01*
X15223572Y-13877714D02*
X15242619Y-13868190D01*
X15242619Y-13868190D02*
X15271191Y-13868190D01*
X15271191Y-13868190D02*
X15290238Y-13877714D01*
X15290238Y-13877714D02*
X15299762Y-13887238D01*
X15299762Y-13887238D02*
X15309286Y-13906286D01*
X15309286Y-13906286D02*
X15309286Y-13963429D01*
X15309286Y-13963429D02*
X15299762Y-13982476D01*
X15299762Y-13982476D02*
X15290238Y-13992000D01*
X15290238Y-13992000D02*
X15271191Y-14001524D01*
X15271191Y-14001524D02*
X15242619Y-14001524D01*
X15366429Y-13868190D02*
X15442619Y-13868190D01*
X15395000Y-13801524D02*
X15395000Y-13972952D01*
X15395000Y-13972952D02*
X15404524Y-13992000D01*
X15404524Y-13992000D02*
X15423572Y-14001524D01*
X15423572Y-14001524D02*
X15442619Y-14001524D01*
X15661667Y-13868190D02*
X15661667Y-14068190D01*
X15661667Y-13877714D02*
X15680715Y-13868190D01*
X15680715Y-13868190D02*
X15718810Y-13868190D01*
X15718810Y-13868190D02*
X15737857Y-13877714D01*
X15737857Y-13877714D02*
X15747381Y-13887238D01*
X15747381Y-13887238D02*
X15756905Y-13906286D01*
X15756905Y-13906286D02*
X15756905Y-13963429D01*
X15756905Y-13963429D02*
X15747381Y-13982476D01*
X15747381Y-13982476D02*
X15737857Y-13992000D01*
X15737857Y-13992000D02*
X15718810Y-14001524D01*
X15718810Y-14001524D02*
X15680715Y-14001524D01*
X15680715Y-14001524D02*
X15661667Y-13992000D01*
X15871191Y-14001524D02*
X15852143Y-13992000D01*
X15852143Y-13992000D02*
X15842619Y-13972952D01*
X15842619Y-13972952D02*
X15842619Y-13801524D01*
X16033096Y-14001524D02*
X16033096Y-13896762D01*
X16033096Y-13896762D02*
X16023572Y-13877714D01*
X16023572Y-13877714D02*
X16004524Y-13868190D01*
X16004524Y-13868190D02*
X15966429Y-13868190D01*
X15966429Y-13868190D02*
X15947381Y-13877714D01*
X16033096Y-13992000D02*
X16014048Y-14001524D01*
X16014048Y-14001524D02*
X15966429Y-14001524D01*
X15966429Y-14001524D02*
X15947381Y-13992000D01*
X15947381Y-13992000D02*
X15937857Y-13972952D01*
X15937857Y-13972952D02*
X15937857Y-13953905D01*
X15937857Y-13953905D02*
X15947381Y-13934857D01*
X15947381Y-13934857D02*
X15966429Y-13925333D01*
X15966429Y-13925333D02*
X16014048Y-13925333D01*
X16014048Y-13925333D02*
X16033096Y-13915810D01*
X16099762Y-13868190D02*
X16175953Y-13868190D01*
X16128334Y-13801524D02*
X16128334Y-13972952D01*
X16128334Y-13972952D02*
X16137857Y-13992000D01*
X16137857Y-13992000D02*
X16156905Y-14001524D01*
X16156905Y-14001524D02*
X16175953Y-14001524D01*
X16318810Y-13992000D02*
X16299762Y-14001524D01*
X16299762Y-14001524D02*
X16261667Y-14001524D01*
X16261667Y-14001524D02*
X16242619Y-13992000D01*
X16242619Y-13992000D02*
X16233096Y-13972952D01*
X16233096Y-13972952D02*
X16233096Y-13896762D01*
X16233096Y-13896762D02*
X16242619Y-13877714D01*
X16242619Y-13877714D02*
X16261667Y-13868190D01*
X16261667Y-13868190D02*
X16299762Y-13868190D01*
X16299762Y-13868190D02*
X16318810Y-13877714D01*
X16318810Y-13877714D02*
X16328334Y-13896762D01*
X16328334Y-13896762D02*
X16328334Y-13915810D01*
X16328334Y-13915810D02*
X16233096Y-13934857D01*
X16499762Y-14001524D02*
X16499762Y-13801524D01*
X16499762Y-13992000D02*
X16480715Y-14001524D01*
X16480715Y-14001524D02*
X16442619Y-14001524D01*
X16442619Y-14001524D02*
X16423572Y-13992000D01*
X16423572Y-13992000D02*
X16414048Y-13982476D01*
X16414048Y-13982476D02*
X16404524Y-13963429D01*
X16404524Y-13963429D02*
X16404524Y-13906286D01*
X16404524Y-13906286D02*
X16414048Y-13887238D01*
X16414048Y-13887238D02*
X16423572Y-13877714D01*
X16423572Y-13877714D02*
X16442619Y-13868190D01*
X16442619Y-13868190D02*
X16480715Y-13868190D01*
X16480715Y-13868190D02*
X16499762Y-13877714D01*
X16575953Y-14077714D02*
X16585477Y-14068190D01*
X16585477Y-14068190D02*
X16604524Y-14039619D01*
X16604524Y-14039619D02*
X16614048Y-14020571D01*
X16614048Y-14020571D02*
X16623572Y-13992000D01*
X16623572Y-13992000D02*
X16633096Y-13944381D01*
X16633096Y-13944381D02*
X16633096Y-13906286D01*
X16633096Y-13906286D02*
X16623572Y-13858667D01*
X16623572Y-13858667D02*
X16614048Y-13830095D01*
X16614048Y-13830095D02*
X16604524Y-13811048D01*
X16604524Y-13811048D02*
X16585477Y-13782476D01*
X16585477Y-13782476D02*
X16575953Y-13772952D01*
M02*
