%TF.GenerationSoftware,KiCad,Pcbnew,7.0.1*%
%TF.CreationDate,2023-06-08T02:49:51+01:00*%
%TF.ProjectId,DE10-lite_shield,44453130-2d6c-4697-9465-5f736869656c,rev?*%
%TF.SameCoordinates,Original*%
%TF.FileFunction,Soldermask,Bot*%
%TF.FilePolarity,Negative*%
%FSLAX46Y46*%
G04 Gerber Fmt 4.6, Leading zero omitted, Abs format (unit mm)*
G04 Created by KiCad (PCBNEW 7.0.1) date 2023-06-08 02:49:51*
%MOMM*%
%LPD*%
G01*
G04 APERTURE LIST*
%ADD10C,0.010000*%
%ADD11R,1.700000X1.700000*%
%ADD12O,1.700000X1.700000*%
%ADD13R,1.600000X1.600000*%
%ADD14O,1.600000X1.600000*%
%ADD15C,0.650000*%
%ADD16C,0.600000*%
%ADD17C,5.600000*%
%ADD18R,3.000000X3.000000*%
%ADD19C,3.000000*%
%ADD20C,1.600000*%
%ADD21C,2.700000*%
%ADD22C,0.499999*%
%ADD23C,2.781000*%
G04 APERTURE END LIST*
%TO.C,J4*%
D10*
X189916000Y-50701000D02*
X189942000Y-50703000D01*
X189968000Y-50706000D01*
X189994000Y-50711000D01*
X190019000Y-50717000D01*
X190045000Y-50724000D01*
X190069000Y-50733000D01*
X190093000Y-50743000D01*
X190117000Y-50754000D01*
X190140000Y-50767000D01*
X190162000Y-50781000D01*
X190184000Y-50795000D01*
X190205000Y-50811000D01*
X190225000Y-50828000D01*
X190244000Y-50846000D01*
X190262000Y-50865000D01*
X190279000Y-50885000D01*
X190295000Y-50906000D01*
X190309000Y-50928000D01*
X190323000Y-50950000D01*
X190336000Y-50973000D01*
X190347000Y-50997000D01*
X190357000Y-51021000D01*
X190366000Y-51045000D01*
X190373000Y-51071000D01*
X190379000Y-51096000D01*
X190384000Y-51122000D01*
X190387000Y-51148000D01*
X190389000Y-51174000D01*
X190390000Y-51200000D01*
X190390000Y-51800000D01*
X190389000Y-51826000D01*
X190387000Y-51852000D01*
X190384000Y-51878000D01*
X190379000Y-51904000D01*
X190373000Y-51929000D01*
X190366000Y-51955000D01*
X190357000Y-51979000D01*
X190347000Y-52003000D01*
X190336000Y-52027000D01*
X190323000Y-52050000D01*
X190309000Y-52072000D01*
X190295000Y-52094000D01*
X190279000Y-52115000D01*
X190262000Y-52135000D01*
X190244000Y-52154000D01*
X190225000Y-52172000D01*
X190205000Y-52189000D01*
X190184000Y-52205000D01*
X190162000Y-52219000D01*
X190140000Y-52233000D01*
X190117000Y-52246000D01*
X190093000Y-52257000D01*
X190069000Y-52267000D01*
X190045000Y-52276000D01*
X190019000Y-52283000D01*
X189994000Y-52289000D01*
X189968000Y-52294000D01*
X189942000Y-52297000D01*
X189916000Y-52299000D01*
X189890000Y-52300000D01*
X189864000Y-52299000D01*
X189838000Y-52297000D01*
X189812000Y-52294000D01*
X189786000Y-52289000D01*
X189761000Y-52283000D01*
X189735000Y-52276000D01*
X189711000Y-52267000D01*
X189687000Y-52257000D01*
X189663000Y-52246000D01*
X189640000Y-52233000D01*
X189618000Y-52219000D01*
X189596000Y-52205000D01*
X189575000Y-52189000D01*
X189555000Y-52172000D01*
X189536000Y-52154000D01*
X189518000Y-52135000D01*
X189501000Y-52115000D01*
X189485000Y-52094000D01*
X189471000Y-52072000D01*
X189457000Y-52050000D01*
X189444000Y-52027000D01*
X189433000Y-52003000D01*
X189423000Y-51979000D01*
X189414000Y-51955000D01*
X189407000Y-51929000D01*
X189401000Y-51904000D01*
X189396000Y-51878000D01*
X189393000Y-51852000D01*
X189391000Y-51826000D01*
X189390000Y-51800000D01*
X189390000Y-51200000D01*
X189391000Y-51174000D01*
X189393000Y-51148000D01*
X189396000Y-51122000D01*
X189401000Y-51096000D01*
X189407000Y-51071000D01*
X189414000Y-51045000D01*
X189423000Y-51021000D01*
X189433000Y-50997000D01*
X189444000Y-50973000D01*
X189457000Y-50950000D01*
X189471000Y-50928000D01*
X189485000Y-50906000D01*
X189501000Y-50885000D01*
X189518000Y-50865000D01*
X189536000Y-50846000D01*
X189555000Y-50828000D01*
X189575000Y-50811000D01*
X189596000Y-50795000D01*
X189618000Y-50781000D01*
X189640000Y-50767000D01*
X189663000Y-50754000D01*
X189687000Y-50743000D01*
X189711000Y-50733000D01*
X189735000Y-50724000D01*
X189761000Y-50717000D01*
X189786000Y-50711000D01*
X189812000Y-50706000D01*
X189838000Y-50703000D01*
X189864000Y-50701000D01*
X189890000Y-50700000D01*
X189916000Y-50701000D01*
G36*
X189916000Y-50701000D02*
G01*
X189942000Y-50703000D01*
X189968000Y-50706000D01*
X189994000Y-50711000D01*
X190019000Y-50717000D01*
X190045000Y-50724000D01*
X190069000Y-50733000D01*
X190093000Y-50743000D01*
X190117000Y-50754000D01*
X190140000Y-50767000D01*
X190162000Y-50781000D01*
X190184000Y-50795000D01*
X190205000Y-50811000D01*
X190225000Y-50828000D01*
X190244000Y-50846000D01*
X190262000Y-50865000D01*
X190279000Y-50885000D01*
X190295000Y-50906000D01*
X190309000Y-50928000D01*
X190323000Y-50950000D01*
X190336000Y-50973000D01*
X190347000Y-50997000D01*
X190357000Y-51021000D01*
X190366000Y-51045000D01*
X190373000Y-51071000D01*
X190379000Y-51096000D01*
X190384000Y-51122000D01*
X190387000Y-51148000D01*
X190389000Y-51174000D01*
X190390000Y-51200000D01*
X190390000Y-51800000D01*
X190389000Y-51826000D01*
X190387000Y-51852000D01*
X190384000Y-51878000D01*
X190379000Y-51904000D01*
X190373000Y-51929000D01*
X190366000Y-51955000D01*
X190357000Y-51979000D01*
X190347000Y-52003000D01*
X190336000Y-52027000D01*
X190323000Y-52050000D01*
X190309000Y-52072000D01*
X190295000Y-52094000D01*
X190279000Y-52115000D01*
X190262000Y-52135000D01*
X190244000Y-52154000D01*
X190225000Y-52172000D01*
X190205000Y-52189000D01*
X190184000Y-52205000D01*
X190162000Y-52219000D01*
X190140000Y-52233000D01*
X190117000Y-52246000D01*
X190093000Y-52257000D01*
X190069000Y-52267000D01*
X190045000Y-52276000D01*
X190019000Y-52283000D01*
X189994000Y-52289000D01*
X189968000Y-52294000D01*
X189942000Y-52297000D01*
X189916000Y-52299000D01*
X189890000Y-52300000D01*
X189864000Y-52299000D01*
X189838000Y-52297000D01*
X189812000Y-52294000D01*
X189786000Y-52289000D01*
X189761000Y-52283000D01*
X189735000Y-52276000D01*
X189711000Y-52267000D01*
X189687000Y-52257000D01*
X189663000Y-52246000D01*
X189640000Y-52233000D01*
X189618000Y-52219000D01*
X189596000Y-52205000D01*
X189575000Y-52189000D01*
X189555000Y-52172000D01*
X189536000Y-52154000D01*
X189518000Y-52135000D01*
X189501000Y-52115000D01*
X189485000Y-52094000D01*
X189471000Y-52072000D01*
X189457000Y-52050000D01*
X189444000Y-52027000D01*
X189433000Y-52003000D01*
X189423000Y-51979000D01*
X189414000Y-51955000D01*
X189407000Y-51929000D01*
X189401000Y-51904000D01*
X189396000Y-51878000D01*
X189393000Y-51852000D01*
X189391000Y-51826000D01*
X189390000Y-51800000D01*
X189390000Y-51200000D01*
X189391000Y-51174000D01*
X189393000Y-51148000D01*
X189396000Y-51122000D01*
X189401000Y-51096000D01*
X189407000Y-51071000D01*
X189414000Y-51045000D01*
X189423000Y-51021000D01*
X189433000Y-50997000D01*
X189444000Y-50973000D01*
X189457000Y-50950000D01*
X189471000Y-50928000D01*
X189485000Y-50906000D01*
X189501000Y-50885000D01*
X189518000Y-50865000D01*
X189536000Y-50846000D01*
X189555000Y-50828000D01*
X189575000Y-50811000D01*
X189596000Y-50795000D01*
X189618000Y-50781000D01*
X189640000Y-50767000D01*
X189663000Y-50754000D01*
X189687000Y-50743000D01*
X189711000Y-50733000D01*
X189735000Y-50724000D01*
X189761000Y-50717000D01*
X189786000Y-50711000D01*
X189812000Y-50706000D01*
X189838000Y-50703000D01*
X189864000Y-50701000D01*
X189890000Y-50700000D01*
X189916000Y-50701000D01*
G37*
X189556000Y-55101000D02*
X189582000Y-55103000D01*
X189608000Y-55106000D01*
X189634000Y-55111000D01*
X189659000Y-55117000D01*
X189685000Y-55124000D01*
X189709000Y-55133000D01*
X189733000Y-55143000D01*
X189757000Y-55154000D01*
X189780000Y-55167000D01*
X189802000Y-55181000D01*
X189824000Y-55195000D01*
X189845000Y-55211000D01*
X189865000Y-55228000D01*
X189884000Y-55246000D01*
X189902000Y-55265000D01*
X189919000Y-55285000D01*
X189935000Y-55306000D01*
X189949000Y-55328000D01*
X189963000Y-55350000D01*
X189976000Y-55373000D01*
X189987000Y-55397000D01*
X189997000Y-55421000D01*
X190006000Y-55445000D01*
X190013000Y-55471000D01*
X190019000Y-55496000D01*
X190024000Y-55522000D01*
X190027000Y-55548000D01*
X190029000Y-55574000D01*
X190030000Y-55600000D01*
X190030000Y-56200000D01*
X190029000Y-56226000D01*
X190027000Y-56252000D01*
X190024000Y-56278000D01*
X190019000Y-56304000D01*
X190013000Y-56329000D01*
X190006000Y-56355000D01*
X189997000Y-56379000D01*
X189987000Y-56403000D01*
X189976000Y-56427000D01*
X189963000Y-56450000D01*
X189949000Y-56472000D01*
X189935000Y-56494000D01*
X189919000Y-56515000D01*
X189902000Y-56535000D01*
X189884000Y-56554000D01*
X189865000Y-56572000D01*
X189845000Y-56589000D01*
X189824000Y-56605000D01*
X189802000Y-56619000D01*
X189780000Y-56633000D01*
X189757000Y-56646000D01*
X189733000Y-56657000D01*
X189709000Y-56667000D01*
X189685000Y-56676000D01*
X189659000Y-56683000D01*
X189634000Y-56689000D01*
X189608000Y-56694000D01*
X189582000Y-56697000D01*
X189556000Y-56699000D01*
X189530000Y-56700000D01*
X189504000Y-56699000D01*
X189478000Y-56697000D01*
X189452000Y-56694000D01*
X189426000Y-56689000D01*
X189401000Y-56683000D01*
X189375000Y-56676000D01*
X189351000Y-56667000D01*
X189327000Y-56657000D01*
X189303000Y-56646000D01*
X189280000Y-56633000D01*
X189258000Y-56619000D01*
X189236000Y-56605000D01*
X189215000Y-56589000D01*
X189195000Y-56572000D01*
X189176000Y-56554000D01*
X189158000Y-56535000D01*
X189141000Y-56515000D01*
X189125000Y-56494000D01*
X189111000Y-56472000D01*
X189097000Y-56450000D01*
X189084000Y-56427000D01*
X189073000Y-56403000D01*
X189063000Y-56379000D01*
X189054000Y-56355000D01*
X189047000Y-56329000D01*
X189041000Y-56304000D01*
X189036000Y-56278000D01*
X189033000Y-56252000D01*
X189031000Y-56226000D01*
X189030000Y-56200000D01*
X189030000Y-55600000D01*
X189031000Y-55574000D01*
X189033000Y-55548000D01*
X189036000Y-55522000D01*
X189041000Y-55496000D01*
X189047000Y-55471000D01*
X189054000Y-55445000D01*
X189063000Y-55421000D01*
X189073000Y-55397000D01*
X189084000Y-55373000D01*
X189097000Y-55350000D01*
X189111000Y-55328000D01*
X189125000Y-55306000D01*
X189141000Y-55285000D01*
X189158000Y-55265000D01*
X189176000Y-55246000D01*
X189195000Y-55228000D01*
X189215000Y-55211000D01*
X189236000Y-55195000D01*
X189258000Y-55181000D01*
X189280000Y-55167000D01*
X189303000Y-55154000D01*
X189327000Y-55143000D01*
X189351000Y-55133000D01*
X189375000Y-55124000D01*
X189401000Y-55117000D01*
X189426000Y-55111000D01*
X189452000Y-55106000D01*
X189478000Y-55103000D01*
X189504000Y-55101000D01*
X189530000Y-55100000D01*
X189556000Y-55101000D01*
G36*
X189556000Y-55101000D02*
G01*
X189582000Y-55103000D01*
X189608000Y-55106000D01*
X189634000Y-55111000D01*
X189659000Y-55117000D01*
X189685000Y-55124000D01*
X189709000Y-55133000D01*
X189733000Y-55143000D01*
X189757000Y-55154000D01*
X189780000Y-55167000D01*
X189802000Y-55181000D01*
X189824000Y-55195000D01*
X189845000Y-55211000D01*
X189865000Y-55228000D01*
X189884000Y-55246000D01*
X189902000Y-55265000D01*
X189919000Y-55285000D01*
X189935000Y-55306000D01*
X189949000Y-55328000D01*
X189963000Y-55350000D01*
X189976000Y-55373000D01*
X189987000Y-55397000D01*
X189997000Y-55421000D01*
X190006000Y-55445000D01*
X190013000Y-55471000D01*
X190019000Y-55496000D01*
X190024000Y-55522000D01*
X190027000Y-55548000D01*
X190029000Y-55574000D01*
X190030000Y-55600000D01*
X190030000Y-56200000D01*
X190029000Y-56226000D01*
X190027000Y-56252000D01*
X190024000Y-56278000D01*
X190019000Y-56304000D01*
X190013000Y-56329000D01*
X190006000Y-56355000D01*
X189997000Y-56379000D01*
X189987000Y-56403000D01*
X189976000Y-56427000D01*
X189963000Y-56450000D01*
X189949000Y-56472000D01*
X189935000Y-56494000D01*
X189919000Y-56515000D01*
X189902000Y-56535000D01*
X189884000Y-56554000D01*
X189865000Y-56572000D01*
X189845000Y-56589000D01*
X189824000Y-56605000D01*
X189802000Y-56619000D01*
X189780000Y-56633000D01*
X189757000Y-56646000D01*
X189733000Y-56657000D01*
X189709000Y-56667000D01*
X189685000Y-56676000D01*
X189659000Y-56683000D01*
X189634000Y-56689000D01*
X189608000Y-56694000D01*
X189582000Y-56697000D01*
X189556000Y-56699000D01*
X189530000Y-56700000D01*
X189504000Y-56699000D01*
X189478000Y-56697000D01*
X189452000Y-56694000D01*
X189426000Y-56689000D01*
X189401000Y-56683000D01*
X189375000Y-56676000D01*
X189351000Y-56667000D01*
X189327000Y-56657000D01*
X189303000Y-56646000D01*
X189280000Y-56633000D01*
X189258000Y-56619000D01*
X189236000Y-56605000D01*
X189215000Y-56589000D01*
X189195000Y-56572000D01*
X189176000Y-56554000D01*
X189158000Y-56535000D01*
X189141000Y-56515000D01*
X189125000Y-56494000D01*
X189111000Y-56472000D01*
X189097000Y-56450000D01*
X189084000Y-56427000D01*
X189073000Y-56403000D01*
X189063000Y-56379000D01*
X189054000Y-56355000D01*
X189047000Y-56329000D01*
X189041000Y-56304000D01*
X189036000Y-56278000D01*
X189033000Y-56252000D01*
X189031000Y-56226000D01*
X189030000Y-56200000D01*
X189030000Y-55600000D01*
X189031000Y-55574000D01*
X189033000Y-55548000D01*
X189036000Y-55522000D01*
X189041000Y-55496000D01*
X189047000Y-55471000D01*
X189054000Y-55445000D01*
X189063000Y-55421000D01*
X189073000Y-55397000D01*
X189084000Y-55373000D01*
X189097000Y-55350000D01*
X189111000Y-55328000D01*
X189125000Y-55306000D01*
X189141000Y-55285000D01*
X189158000Y-55265000D01*
X189176000Y-55246000D01*
X189195000Y-55228000D01*
X189215000Y-55211000D01*
X189236000Y-55195000D01*
X189258000Y-55181000D01*
X189280000Y-55167000D01*
X189303000Y-55154000D01*
X189327000Y-55143000D01*
X189351000Y-55133000D01*
X189375000Y-55124000D01*
X189401000Y-55117000D01*
X189426000Y-55111000D01*
X189452000Y-55106000D01*
X189478000Y-55103000D01*
X189504000Y-55101000D01*
X189530000Y-55100000D01*
X189556000Y-55101000D01*
G37*
X181972000Y-56716000D02*
X181994000Y-56717000D01*
X182016000Y-56720000D01*
X182038000Y-56724000D01*
X182060000Y-56729000D01*
X182081000Y-56736000D01*
X182102000Y-56743000D01*
X182123000Y-56752000D01*
X182143000Y-56761000D01*
X182163000Y-56772000D01*
X182181000Y-56784000D01*
X182200000Y-56796000D01*
X182217000Y-56810000D01*
X182234000Y-56824000D01*
X182251000Y-56839000D01*
X182266000Y-56856000D01*
X182280000Y-56873000D01*
X182294000Y-56890000D01*
X182306000Y-56909000D01*
X182318000Y-56928000D01*
X182329000Y-56947000D01*
X182338000Y-56967000D01*
X182347000Y-56988000D01*
X182354000Y-57009000D01*
X182361000Y-57030000D01*
X182366000Y-57052000D01*
X182370000Y-57074000D01*
X182373000Y-57096000D01*
X182374000Y-57118000D01*
X182375000Y-57140000D01*
X182374000Y-57162000D01*
X182373000Y-57184000D01*
X182370000Y-57206000D01*
X182366000Y-57228000D01*
X182361000Y-57250000D01*
X182354000Y-57271000D01*
X182347000Y-57292000D01*
X182338000Y-57313000D01*
X182329000Y-57333000D01*
X182318000Y-57353000D01*
X182306000Y-57371000D01*
X182294000Y-57390000D01*
X182280000Y-57407000D01*
X182266000Y-57424000D01*
X182251000Y-57441000D01*
X182234000Y-57456000D01*
X182217000Y-57470000D01*
X182200000Y-57484000D01*
X182181000Y-57496000D01*
X182163000Y-57508000D01*
X182143000Y-57519000D01*
X182123000Y-57528000D01*
X182102000Y-57537000D01*
X182081000Y-57544000D01*
X182060000Y-57551000D01*
X182038000Y-57556000D01*
X182016000Y-57560000D01*
X181994000Y-57563000D01*
X181972000Y-57564000D01*
X181950000Y-57565000D01*
X181650000Y-57565000D01*
X181628000Y-57564000D01*
X181606000Y-57563000D01*
X181584000Y-57560000D01*
X181562000Y-57556000D01*
X181540000Y-57551000D01*
X181519000Y-57544000D01*
X181498000Y-57537000D01*
X181477000Y-57528000D01*
X181457000Y-57519000D01*
X181438000Y-57508000D01*
X181419000Y-57496000D01*
X181400000Y-57484000D01*
X181383000Y-57470000D01*
X181366000Y-57456000D01*
X181349000Y-57441000D01*
X181334000Y-57424000D01*
X181320000Y-57407000D01*
X181306000Y-57390000D01*
X181294000Y-57371000D01*
X181282000Y-57353000D01*
X181271000Y-57333000D01*
X181262000Y-57313000D01*
X181253000Y-57292000D01*
X181246000Y-57271000D01*
X181239000Y-57250000D01*
X181234000Y-57228000D01*
X181230000Y-57206000D01*
X181227000Y-57184000D01*
X181226000Y-57162000D01*
X181225000Y-57140000D01*
X181226000Y-57118000D01*
X181227000Y-57096000D01*
X181230000Y-57074000D01*
X181234000Y-57052000D01*
X181239000Y-57030000D01*
X181246000Y-57009000D01*
X181253000Y-56988000D01*
X181262000Y-56967000D01*
X181271000Y-56947000D01*
X181282000Y-56928000D01*
X181294000Y-56909000D01*
X181306000Y-56890000D01*
X181320000Y-56873000D01*
X181334000Y-56856000D01*
X181349000Y-56839000D01*
X181366000Y-56824000D01*
X181383000Y-56810000D01*
X181400000Y-56796000D01*
X181419000Y-56784000D01*
X181438000Y-56772000D01*
X181457000Y-56761000D01*
X181477000Y-56752000D01*
X181498000Y-56743000D01*
X181519000Y-56736000D01*
X181540000Y-56729000D01*
X181562000Y-56724000D01*
X181584000Y-56720000D01*
X181606000Y-56717000D01*
X181628000Y-56716000D01*
X181650000Y-56715000D01*
X181950000Y-56715000D01*
X181972000Y-56716000D01*
G36*
X181972000Y-56716000D02*
G01*
X181994000Y-56717000D01*
X182016000Y-56720000D01*
X182038000Y-56724000D01*
X182060000Y-56729000D01*
X182081000Y-56736000D01*
X182102000Y-56743000D01*
X182123000Y-56752000D01*
X182143000Y-56761000D01*
X182163000Y-56772000D01*
X182181000Y-56784000D01*
X182200000Y-56796000D01*
X182217000Y-56810000D01*
X182234000Y-56824000D01*
X182251000Y-56839000D01*
X182266000Y-56856000D01*
X182280000Y-56873000D01*
X182294000Y-56890000D01*
X182306000Y-56909000D01*
X182318000Y-56928000D01*
X182329000Y-56947000D01*
X182338000Y-56967000D01*
X182347000Y-56988000D01*
X182354000Y-57009000D01*
X182361000Y-57030000D01*
X182366000Y-57052000D01*
X182370000Y-57074000D01*
X182373000Y-57096000D01*
X182374000Y-57118000D01*
X182375000Y-57140000D01*
X182374000Y-57162000D01*
X182373000Y-57184000D01*
X182370000Y-57206000D01*
X182366000Y-57228000D01*
X182361000Y-57250000D01*
X182354000Y-57271000D01*
X182347000Y-57292000D01*
X182338000Y-57313000D01*
X182329000Y-57333000D01*
X182318000Y-57353000D01*
X182306000Y-57371000D01*
X182294000Y-57390000D01*
X182280000Y-57407000D01*
X182266000Y-57424000D01*
X182251000Y-57441000D01*
X182234000Y-57456000D01*
X182217000Y-57470000D01*
X182200000Y-57484000D01*
X182181000Y-57496000D01*
X182163000Y-57508000D01*
X182143000Y-57519000D01*
X182123000Y-57528000D01*
X182102000Y-57537000D01*
X182081000Y-57544000D01*
X182060000Y-57551000D01*
X182038000Y-57556000D01*
X182016000Y-57560000D01*
X181994000Y-57563000D01*
X181972000Y-57564000D01*
X181950000Y-57565000D01*
X181650000Y-57565000D01*
X181628000Y-57564000D01*
X181606000Y-57563000D01*
X181584000Y-57560000D01*
X181562000Y-57556000D01*
X181540000Y-57551000D01*
X181519000Y-57544000D01*
X181498000Y-57537000D01*
X181477000Y-57528000D01*
X181457000Y-57519000D01*
X181438000Y-57508000D01*
X181419000Y-57496000D01*
X181400000Y-57484000D01*
X181383000Y-57470000D01*
X181366000Y-57456000D01*
X181349000Y-57441000D01*
X181334000Y-57424000D01*
X181320000Y-57407000D01*
X181306000Y-57390000D01*
X181294000Y-57371000D01*
X181282000Y-57353000D01*
X181271000Y-57333000D01*
X181262000Y-57313000D01*
X181253000Y-57292000D01*
X181246000Y-57271000D01*
X181239000Y-57250000D01*
X181234000Y-57228000D01*
X181230000Y-57206000D01*
X181227000Y-57184000D01*
X181226000Y-57162000D01*
X181225000Y-57140000D01*
X181226000Y-57118000D01*
X181227000Y-57096000D01*
X181230000Y-57074000D01*
X181234000Y-57052000D01*
X181239000Y-57030000D01*
X181246000Y-57009000D01*
X181253000Y-56988000D01*
X181262000Y-56967000D01*
X181271000Y-56947000D01*
X181282000Y-56928000D01*
X181294000Y-56909000D01*
X181306000Y-56890000D01*
X181320000Y-56873000D01*
X181334000Y-56856000D01*
X181349000Y-56839000D01*
X181366000Y-56824000D01*
X181383000Y-56810000D01*
X181400000Y-56796000D01*
X181419000Y-56784000D01*
X181438000Y-56772000D01*
X181457000Y-56761000D01*
X181477000Y-56752000D01*
X181498000Y-56743000D01*
X181519000Y-56736000D01*
X181540000Y-56729000D01*
X181562000Y-56724000D01*
X181584000Y-56720000D01*
X181606000Y-56717000D01*
X181628000Y-56716000D01*
X181650000Y-56715000D01*
X181950000Y-56715000D01*
X181972000Y-56716000D01*
G37*
X181296000Y-55101000D02*
X181322000Y-55103000D01*
X181348000Y-55106000D01*
X181374000Y-55111000D01*
X181399000Y-55117000D01*
X181425000Y-55124000D01*
X181449000Y-55133000D01*
X181473000Y-55143000D01*
X181497000Y-55154000D01*
X181520000Y-55167000D01*
X181542000Y-55181000D01*
X181564000Y-55195000D01*
X181585000Y-55211000D01*
X181605000Y-55228000D01*
X181624000Y-55246000D01*
X181642000Y-55265000D01*
X181659000Y-55285000D01*
X181675000Y-55306000D01*
X181689000Y-55328000D01*
X181703000Y-55350000D01*
X181716000Y-55373000D01*
X181727000Y-55397000D01*
X181737000Y-55421000D01*
X181746000Y-55445000D01*
X181753000Y-55471000D01*
X181759000Y-55496000D01*
X181764000Y-55522000D01*
X181767000Y-55548000D01*
X181769000Y-55574000D01*
X181770000Y-55600000D01*
X181770000Y-56200000D01*
X181769000Y-56226000D01*
X181767000Y-56252000D01*
X181764000Y-56278000D01*
X181759000Y-56304000D01*
X181753000Y-56329000D01*
X181746000Y-56355000D01*
X181737000Y-56379000D01*
X181727000Y-56403000D01*
X181716000Y-56427000D01*
X181703000Y-56450000D01*
X181689000Y-56472000D01*
X181675000Y-56494000D01*
X181659000Y-56515000D01*
X181642000Y-56535000D01*
X181624000Y-56554000D01*
X181605000Y-56572000D01*
X181585000Y-56589000D01*
X181564000Y-56605000D01*
X181542000Y-56619000D01*
X181520000Y-56633000D01*
X181497000Y-56646000D01*
X181473000Y-56657000D01*
X181449000Y-56667000D01*
X181425000Y-56676000D01*
X181399000Y-56683000D01*
X181374000Y-56689000D01*
X181348000Y-56694000D01*
X181322000Y-56697000D01*
X181296000Y-56699000D01*
X181270000Y-56700000D01*
X181244000Y-56699000D01*
X181218000Y-56697000D01*
X181192000Y-56694000D01*
X181166000Y-56689000D01*
X181141000Y-56683000D01*
X181115000Y-56676000D01*
X181091000Y-56667000D01*
X181067000Y-56657000D01*
X181043000Y-56646000D01*
X181020000Y-56633000D01*
X180998000Y-56619000D01*
X180976000Y-56605000D01*
X180955000Y-56589000D01*
X180935000Y-56572000D01*
X180916000Y-56554000D01*
X180898000Y-56535000D01*
X180881000Y-56515000D01*
X180865000Y-56494000D01*
X180851000Y-56472000D01*
X180837000Y-56450000D01*
X180824000Y-56427000D01*
X180813000Y-56403000D01*
X180803000Y-56379000D01*
X180794000Y-56355000D01*
X180787000Y-56329000D01*
X180781000Y-56304000D01*
X180776000Y-56278000D01*
X180773000Y-56252000D01*
X180771000Y-56226000D01*
X180770000Y-56200000D01*
X180770000Y-55600000D01*
X180771000Y-55574000D01*
X180773000Y-55548000D01*
X180776000Y-55522000D01*
X180781000Y-55496000D01*
X180787000Y-55471000D01*
X180794000Y-55445000D01*
X180803000Y-55421000D01*
X180813000Y-55397000D01*
X180824000Y-55373000D01*
X180837000Y-55350000D01*
X180851000Y-55328000D01*
X180865000Y-55306000D01*
X180881000Y-55285000D01*
X180898000Y-55265000D01*
X180916000Y-55246000D01*
X180935000Y-55228000D01*
X180955000Y-55211000D01*
X180976000Y-55195000D01*
X180998000Y-55181000D01*
X181020000Y-55167000D01*
X181043000Y-55154000D01*
X181067000Y-55143000D01*
X181091000Y-55133000D01*
X181115000Y-55124000D01*
X181141000Y-55117000D01*
X181166000Y-55111000D01*
X181192000Y-55106000D01*
X181218000Y-55103000D01*
X181244000Y-55101000D01*
X181270000Y-55100000D01*
X181296000Y-55101000D01*
G36*
X181296000Y-55101000D02*
G01*
X181322000Y-55103000D01*
X181348000Y-55106000D01*
X181374000Y-55111000D01*
X181399000Y-55117000D01*
X181425000Y-55124000D01*
X181449000Y-55133000D01*
X181473000Y-55143000D01*
X181497000Y-55154000D01*
X181520000Y-55167000D01*
X181542000Y-55181000D01*
X181564000Y-55195000D01*
X181585000Y-55211000D01*
X181605000Y-55228000D01*
X181624000Y-55246000D01*
X181642000Y-55265000D01*
X181659000Y-55285000D01*
X181675000Y-55306000D01*
X181689000Y-55328000D01*
X181703000Y-55350000D01*
X181716000Y-55373000D01*
X181727000Y-55397000D01*
X181737000Y-55421000D01*
X181746000Y-55445000D01*
X181753000Y-55471000D01*
X181759000Y-55496000D01*
X181764000Y-55522000D01*
X181767000Y-55548000D01*
X181769000Y-55574000D01*
X181770000Y-55600000D01*
X181770000Y-56200000D01*
X181769000Y-56226000D01*
X181767000Y-56252000D01*
X181764000Y-56278000D01*
X181759000Y-56304000D01*
X181753000Y-56329000D01*
X181746000Y-56355000D01*
X181737000Y-56379000D01*
X181727000Y-56403000D01*
X181716000Y-56427000D01*
X181703000Y-56450000D01*
X181689000Y-56472000D01*
X181675000Y-56494000D01*
X181659000Y-56515000D01*
X181642000Y-56535000D01*
X181624000Y-56554000D01*
X181605000Y-56572000D01*
X181585000Y-56589000D01*
X181564000Y-56605000D01*
X181542000Y-56619000D01*
X181520000Y-56633000D01*
X181497000Y-56646000D01*
X181473000Y-56657000D01*
X181449000Y-56667000D01*
X181425000Y-56676000D01*
X181399000Y-56683000D01*
X181374000Y-56689000D01*
X181348000Y-56694000D01*
X181322000Y-56697000D01*
X181296000Y-56699000D01*
X181270000Y-56700000D01*
X181244000Y-56699000D01*
X181218000Y-56697000D01*
X181192000Y-56694000D01*
X181166000Y-56689000D01*
X181141000Y-56683000D01*
X181115000Y-56676000D01*
X181091000Y-56667000D01*
X181067000Y-56657000D01*
X181043000Y-56646000D01*
X181020000Y-56633000D01*
X180998000Y-56619000D01*
X180976000Y-56605000D01*
X180955000Y-56589000D01*
X180935000Y-56572000D01*
X180916000Y-56554000D01*
X180898000Y-56535000D01*
X180881000Y-56515000D01*
X180865000Y-56494000D01*
X180851000Y-56472000D01*
X180837000Y-56450000D01*
X180824000Y-56427000D01*
X180813000Y-56403000D01*
X180803000Y-56379000D01*
X180794000Y-56355000D01*
X180787000Y-56329000D01*
X180781000Y-56304000D01*
X180776000Y-56278000D01*
X180773000Y-56252000D01*
X180771000Y-56226000D01*
X180770000Y-56200000D01*
X180770000Y-55600000D01*
X180771000Y-55574000D01*
X180773000Y-55548000D01*
X180776000Y-55522000D01*
X180781000Y-55496000D01*
X180787000Y-55471000D01*
X180794000Y-55445000D01*
X180803000Y-55421000D01*
X180813000Y-55397000D01*
X180824000Y-55373000D01*
X180837000Y-55350000D01*
X180851000Y-55328000D01*
X180865000Y-55306000D01*
X180881000Y-55285000D01*
X180898000Y-55265000D01*
X180916000Y-55246000D01*
X180935000Y-55228000D01*
X180955000Y-55211000D01*
X180976000Y-55195000D01*
X180998000Y-55181000D01*
X181020000Y-55167000D01*
X181043000Y-55154000D01*
X181067000Y-55143000D01*
X181091000Y-55133000D01*
X181115000Y-55124000D01*
X181141000Y-55117000D01*
X181166000Y-55111000D01*
X181192000Y-55106000D01*
X181218000Y-55103000D01*
X181244000Y-55101000D01*
X181270000Y-55100000D01*
X181296000Y-55101000D01*
G37*
X180936000Y-50701000D02*
X180962000Y-50703000D01*
X180988000Y-50706000D01*
X181014000Y-50711000D01*
X181039000Y-50717000D01*
X181065000Y-50724000D01*
X181089000Y-50733000D01*
X181113000Y-50743000D01*
X181137000Y-50754000D01*
X181160000Y-50767000D01*
X181182000Y-50781000D01*
X181204000Y-50795000D01*
X181225000Y-50811000D01*
X181245000Y-50828000D01*
X181264000Y-50846000D01*
X181282000Y-50865000D01*
X181299000Y-50885000D01*
X181315000Y-50906000D01*
X181329000Y-50928000D01*
X181343000Y-50950000D01*
X181356000Y-50973000D01*
X181367000Y-50997000D01*
X181377000Y-51021000D01*
X181386000Y-51045000D01*
X181393000Y-51071000D01*
X181399000Y-51096000D01*
X181404000Y-51122000D01*
X181407000Y-51148000D01*
X181409000Y-51174000D01*
X181410000Y-51200000D01*
X181410000Y-51800000D01*
X181409000Y-51826000D01*
X181407000Y-51852000D01*
X181404000Y-51878000D01*
X181399000Y-51904000D01*
X181393000Y-51929000D01*
X181386000Y-51955000D01*
X181377000Y-51979000D01*
X181367000Y-52003000D01*
X181356000Y-52027000D01*
X181343000Y-52050000D01*
X181329000Y-52072000D01*
X181315000Y-52094000D01*
X181299000Y-52115000D01*
X181282000Y-52135000D01*
X181264000Y-52154000D01*
X181245000Y-52172000D01*
X181225000Y-52189000D01*
X181204000Y-52205000D01*
X181182000Y-52219000D01*
X181160000Y-52233000D01*
X181137000Y-52246000D01*
X181113000Y-52257000D01*
X181089000Y-52267000D01*
X181065000Y-52276000D01*
X181039000Y-52283000D01*
X181014000Y-52289000D01*
X180988000Y-52294000D01*
X180962000Y-52297000D01*
X180936000Y-52299000D01*
X180910000Y-52300000D01*
X180884000Y-52299000D01*
X180858000Y-52297000D01*
X180832000Y-52294000D01*
X180806000Y-52289000D01*
X180781000Y-52283000D01*
X180755000Y-52276000D01*
X180731000Y-52267000D01*
X180707000Y-52257000D01*
X180683000Y-52246000D01*
X180660000Y-52233000D01*
X180638000Y-52219000D01*
X180616000Y-52205000D01*
X180595000Y-52189000D01*
X180575000Y-52172000D01*
X180556000Y-52154000D01*
X180538000Y-52135000D01*
X180521000Y-52115000D01*
X180505000Y-52094000D01*
X180491000Y-52072000D01*
X180477000Y-52050000D01*
X180464000Y-52027000D01*
X180453000Y-52003000D01*
X180443000Y-51979000D01*
X180434000Y-51955000D01*
X180427000Y-51929000D01*
X180421000Y-51904000D01*
X180416000Y-51878000D01*
X180413000Y-51852000D01*
X180411000Y-51826000D01*
X180410000Y-51800000D01*
X180410000Y-51200000D01*
X180411000Y-51174000D01*
X180413000Y-51148000D01*
X180416000Y-51122000D01*
X180421000Y-51096000D01*
X180427000Y-51071000D01*
X180434000Y-51045000D01*
X180443000Y-51021000D01*
X180453000Y-50997000D01*
X180464000Y-50973000D01*
X180477000Y-50950000D01*
X180491000Y-50928000D01*
X180505000Y-50906000D01*
X180521000Y-50885000D01*
X180538000Y-50865000D01*
X180556000Y-50846000D01*
X180575000Y-50828000D01*
X180595000Y-50811000D01*
X180616000Y-50795000D01*
X180638000Y-50781000D01*
X180660000Y-50767000D01*
X180683000Y-50754000D01*
X180707000Y-50743000D01*
X180731000Y-50733000D01*
X180755000Y-50724000D01*
X180781000Y-50717000D01*
X180806000Y-50711000D01*
X180832000Y-50706000D01*
X180858000Y-50703000D01*
X180884000Y-50701000D01*
X180910000Y-50700000D01*
X180936000Y-50701000D01*
G36*
X180936000Y-50701000D02*
G01*
X180962000Y-50703000D01*
X180988000Y-50706000D01*
X181014000Y-50711000D01*
X181039000Y-50717000D01*
X181065000Y-50724000D01*
X181089000Y-50733000D01*
X181113000Y-50743000D01*
X181137000Y-50754000D01*
X181160000Y-50767000D01*
X181182000Y-50781000D01*
X181204000Y-50795000D01*
X181225000Y-50811000D01*
X181245000Y-50828000D01*
X181264000Y-50846000D01*
X181282000Y-50865000D01*
X181299000Y-50885000D01*
X181315000Y-50906000D01*
X181329000Y-50928000D01*
X181343000Y-50950000D01*
X181356000Y-50973000D01*
X181367000Y-50997000D01*
X181377000Y-51021000D01*
X181386000Y-51045000D01*
X181393000Y-51071000D01*
X181399000Y-51096000D01*
X181404000Y-51122000D01*
X181407000Y-51148000D01*
X181409000Y-51174000D01*
X181410000Y-51200000D01*
X181410000Y-51800000D01*
X181409000Y-51826000D01*
X181407000Y-51852000D01*
X181404000Y-51878000D01*
X181399000Y-51904000D01*
X181393000Y-51929000D01*
X181386000Y-51955000D01*
X181377000Y-51979000D01*
X181367000Y-52003000D01*
X181356000Y-52027000D01*
X181343000Y-52050000D01*
X181329000Y-52072000D01*
X181315000Y-52094000D01*
X181299000Y-52115000D01*
X181282000Y-52135000D01*
X181264000Y-52154000D01*
X181245000Y-52172000D01*
X181225000Y-52189000D01*
X181204000Y-52205000D01*
X181182000Y-52219000D01*
X181160000Y-52233000D01*
X181137000Y-52246000D01*
X181113000Y-52257000D01*
X181089000Y-52267000D01*
X181065000Y-52276000D01*
X181039000Y-52283000D01*
X181014000Y-52289000D01*
X180988000Y-52294000D01*
X180962000Y-52297000D01*
X180936000Y-52299000D01*
X180910000Y-52300000D01*
X180884000Y-52299000D01*
X180858000Y-52297000D01*
X180832000Y-52294000D01*
X180806000Y-52289000D01*
X180781000Y-52283000D01*
X180755000Y-52276000D01*
X180731000Y-52267000D01*
X180707000Y-52257000D01*
X180683000Y-52246000D01*
X180660000Y-52233000D01*
X180638000Y-52219000D01*
X180616000Y-52205000D01*
X180595000Y-52189000D01*
X180575000Y-52172000D01*
X180556000Y-52154000D01*
X180538000Y-52135000D01*
X180521000Y-52115000D01*
X180505000Y-52094000D01*
X180491000Y-52072000D01*
X180477000Y-52050000D01*
X180464000Y-52027000D01*
X180453000Y-52003000D01*
X180443000Y-51979000D01*
X180434000Y-51955000D01*
X180427000Y-51929000D01*
X180421000Y-51904000D01*
X180416000Y-51878000D01*
X180413000Y-51852000D01*
X180411000Y-51826000D01*
X180410000Y-51800000D01*
X180410000Y-51200000D01*
X180411000Y-51174000D01*
X180413000Y-51148000D01*
X180416000Y-51122000D01*
X180421000Y-51096000D01*
X180427000Y-51071000D01*
X180434000Y-51045000D01*
X180443000Y-51021000D01*
X180453000Y-50997000D01*
X180464000Y-50973000D01*
X180477000Y-50950000D01*
X180491000Y-50928000D01*
X180505000Y-50906000D01*
X180521000Y-50885000D01*
X180538000Y-50865000D01*
X180556000Y-50846000D01*
X180575000Y-50828000D01*
X180595000Y-50811000D01*
X180616000Y-50795000D01*
X180638000Y-50781000D01*
X180660000Y-50767000D01*
X180683000Y-50754000D01*
X180707000Y-50743000D01*
X180731000Y-50733000D01*
X180755000Y-50724000D01*
X180781000Y-50717000D01*
X180806000Y-50711000D01*
X180832000Y-50706000D01*
X180858000Y-50703000D01*
X180884000Y-50701000D01*
X180910000Y-50700000D01*
X180936000Y-50701000D01*
G37*
%TD*%
D11*
%TO.C,JP2*%
X153125000Y-76980000D03*
D12*
X155665000Y-76980000D03*
%TD*%
D11*
%TO.C,J8*%
X104500000Y-90585000D03*
D12*
X104500000Y-93125000D03*
X104500000Y-95665000D03*
X104500000Y-98205000D03*
X104500000Y-100745000D03*
%TD*%
D11*
%TO.C,JP6*%
X127125000Y-74430000D03*
D12*
X129665000Y-74430000D03*
%TD*%
D13*
%TO.C,A3*%
X153110000Y-83340000D03*
D14*
X155650000Y-83340000D03*
X158190000Y-83340000D03*
X160730000Y-83340000D03*
X163270000Y-83340000D03*
X165810000Y-83340000D03*
X168350000Y-83340000D03*
X170890000Y-83340000D03*
X170890000Y-70640000D03*
X168350000Y-70640000D03*
X165810000Y-70640000D03*
X163270000Y-70640000D03*
X160730000Y-70640000D03*
X158190000Y-70640000D03*
X155650000Y-70640000D03*
X153110000Y-70640000D03*
%TD*%
D11*
%TO.C,JP4*%
X127125000Y-79530000D03*
D12*
X129665000Y-79530000D03*
%TD*%
D15*
%TO.C,J4*%
X189000000Y-57140000D03*
X181800000Y-57140000D03*
D16*
X182600000Y-56490000D03*
X183000000Y-55790000D03*
X183800000Y-55790000D03*
X184200000Y-56490000D03*
X184600000Y-55790000D03*
X185000000Y-56490000D03*
X185800000Y-56490000D03*
X186200000Y-55790000D03*
X186600000Y-56490000D03*
X187000000Y-55790000D03*
X187800000Y-55790000D03*
X188200000Y-56490000D03*
%TD*%
D11*
%TO.C,JP9*%
X160060000Y-98900000D03*
D12*
X162600000Y-98900000D03*
X165140000Y-98900000D03*
%TD*%
D11*
%TO.C,J7*%
X112000000Y-90590000D03*
D12*
X112000000Y-93130000D03*
X112000000Y-95670000D03*
X112000000Y-98210000D03*
X112000000Y-100750000D03*
%TD*%
D11*
%TO.C,JP1*%
X153125000Y-79530000D03*
D12*
X155665000Y-79530000D03*
%TD*%
D11*
%TO.C,JP5*%
X127125000Y-76980000D03*
D12*
X129665000Y-76980000D03*
%TD*%
D11*
%TO.C,J9*%
X114960000Y-123700000D03*
D12*
X117500000Y-123700000D03*
X120040000Y-123700000D03*
%TD*%
D17*
%TO.C,H2*%
X194500000Y-53000000D03*
%TD*%
D11*
%TO.C,JP3*%
X153125000Y-74430000D03*
D12*
X155665000Y-74430000D03*
%TD*%
D17*
%TO.C,H4*%
X182500000Y-111500000D03*
%TD*%
D18*
%TO.C,J3*%
X114540000Y-54000000D03*
D19*
X109460000Y-54000000D03*
%TD*%
D20*
%TO.C,C1*%
X144000000Y-78230000D03*
X144000000Y-75730000D03*
%TD*%
D21*
%TO.C,F1*%
X108400000Y-72950000D03*
D19*
X108400000Y-61700000D03*
X108400000Y-84200000D03*
%TD*%
D13*
%TO.C,A2*%
X127110000Y-83340000D03*
D14*
X129650000Y-83340000D03*
X132190000Y-83340000D03*
X134730000Y-83340000D03*
X137270000Y-83340000D03*
X139810000Y-83340000D03*
X142350000Y-83340000D03*
X144890000Y-83340000D03*
X144890000Y-70640000D03*
X142350000Y-70640000D03*
X139810000Y-70640000D03*
X137270000Y-70640000D03*
X134730000Y-70640000D03*
X132190000Y-70640000D03*
X129650000Y-70640000D03*
X127110000Y-70640000D03*
%TD*%
D22*
%TO.C,U3*%
X123725001Y-99772182D03*
X124825001Y-98672182D03*
X124825001Y-99772182D03*
X124825001Y-100872182D03*
X125925001Y-99772182D03*
%TD*%
D20*
%TO.C,C2*%
X170000000Y-78230000D03*
X170000000Y-75730000D03*
%TD*%
D17*
%TO.C,H3*%
X113000000Y-111500000D03*
%TD*%
D11*
%TO.C,J1*%
X158200000Y-88730000D03*
D12*
X160740000Y-88730000D03*
X163280000Y-88730000D03*
X165820000Y-88730000D03*
%TD*%
D11*
%TO.C,J5*%
X189500000Y-90130000D03*
D12*
X189500000Y-92670000D03*
X189500000Y-95210000D03*
X189500000Y-97750000D03*
X189500000Y-100290000D03*
%TD*%
D11*
%TO.C,J2*%
X132200000Y-88730000D03*
D12*
X134740000Y-88730000D03*
X137280000Y-88730000D03*
X139820000Y-88730000D03*
%TD*%
D17*
%TO.C,H1*%
X103000000Y-53000000D03*
%TD*%
D23*
%TO.C,SW1*%
X118850000Y-82599500D03*
X118850000Y-77900500D03*
X118850000Y-73201500D03*
%TD*%
D11*
%TO.C,J10*%
X103400000Y-114925000D03*
D12*
X103400000Y-117465000D03*
%TD*%
D11*
%TO.C,J10*%
X103400000Y-122025000D03*
D12*
X103400000Y-124565000D03*
%TD*%
D11*
%TO.C,J10*%
X118100000Y-114925000D03*
D12*
X118100000Y-117465000D03*
%TD*%
D11*
%TO.C,J6*%
X182000000Y-90130000D03*
D12*
X182000000Y-92670000D03*
X182000000Y-95210000D03*
X182000000Y-97750000D03*
X182000000Y-100290000D03*
%TD*%
D14*
%TO.C,A1*%
X169500000Y-63740000D03*
X166960000Y-63740000D03*
X164420000Y-63740000D03*
X161880000Y-63740000D03*
X159340000Y-63740000D03*
X156800000Y-63740000D03*
X154260000Y-63740000D03*
X151720000Y-63740000D03*
X147660000Y-63740000D03*
X145120000Y-63740000D03*
X142580000Y-63740000D03*
X140040000Y-63740000D03*
X137500000Y-63740000D03*
X134960000Y-63740000D03*
X132420000Y-63740000D03*
X129880000Y-63740000D03*
X127340000Y-63740000D03*
X124800000Y-63740000D03*
%TD*%
M02*
