%TF.GenerationSoftware,KiCad,Pcbnew,7.0.1*%
%TF.CreationDate,2023-05-31T14:16:02+01:00*%
%TF.ProjectId,DE10-lite_shield,44453130-2d6c-4697-9465-5f736869656c,rev?*%
%TF.SameCoordinates,Original*%
%TF.FileFunction,Copper,L4,Bot*%
%TF.FilePolarity,Positive*%
%FSLAX46Y46*%
G04 Gerber Fmt 4.6, Leading zero omitted, Abs format (unit mm)*
G04 Created by KiCad (PCBNEW 7.0.1) date 2023-05-31 14:16:02*
%MOMM*%
%LPD*%
G01*
G04 APERTURE LIST*
%TA.AperFunction,EtchedComponent*%
%ADD10C,0.010000*%
%TD*%
%TA.AperFunction,ComponentPad*%
%ADD11R,1.700000X1.700000*%
%TD*%
%TA.AperFunction,ComponentPad*%
%ADD12O,1.700000X1.700000*%
%TD*%
%TA.AperFunction,ComponentPad*%
%ADD13R,1.600000X1.600000*%
%TD*%
%TA.AperFunction,ComponentPad*%
%ADD14O,1.600000X1.600000*%
%TD*%
%TA.AperFunction,ComponentPad*%
%ADD15C,0.600000*%
%TD*%
%TA.AperFunction,ComponentPad*%
%ADD16O,0.600000X1.200000*%
%TD*%
%TA.AperFunction,ComponentPad*%
%ADD17C,5.600000*%
%TD*%
%TA.AperFunction,ComponentPad*%
%ADD18R,3.000000X3.000000*%
%TD*%
%TA.AperFunction,ComponentPad*%
%ADD19C,3.000000*%
%TD*%
%TA.AperFunction,ComponentPad*%
%ADD20C,1.600000*%
%TD*%
%TA.AperFunction,ComponentPad*%
%ADD21C,0.499999*%
%TD*%
%TA.AperFunction,HeatsinkPad*%
%ADD22C,0.600000*%
%TD*%
%TA.AperFunction,ComponentPad*%
%ADD23C,2.781000*%
%TD*%
%TA.AperFunction,ViaPad*%
%ADD24C,0.800000*%
%TD*%
%TA.AperFunction,ViaPad*%
%ADD25C,0.450000*%
%TD*%
%TA.AperFunction,Conductor*%
%ADD26C,0.250000*%
%TD*%
%TA.AperFunction,Conductor*%
%ADD27C,0.200000*%
%TD*%
%TA.AperFunction,Conductor*%
%ADD28C,0.100000*%
%TD*%
G04 APERTURE END LIST*
%TO.C,J4*%
D10*
X189911000Y-50801000D02*
X189932000Y-50802000D01*
X189953000Y-50805000D01*
X189973000Y-50809000D01*
X189994000Y-50814000D01*
X190014000Y-50820000D01*
X190033000Y-50827000D01*
X190053000Y-50835000D01*
X190072000Y-50844000D01*
X190090000Y-50854000D01*
X190108000Y-50865000D01*
X190125000Y-50876000D01*
X190142000Y-50889000D01*
X190158000Y-50903000D01*
X190173000Y-50917000D01*
X190187000Y-50932000D01*
X190201000Y-50948000D01*
X190214000Y-50965000D01*
X190225000Y-50982000D01*
X190236000Y-51000000D01*
X190246000Y-51018000D01*
X190255000Y-51037000D01*
X190263000Y-51057000D01*
X190270000Y-51076000D01*
X190276000Y-51096000D01*
X190281000Y-51117000D01*
X190285000Y-51137000D01*
X190288000Y-51158000D01*
X190289000Y-51179000D01*
X190290000Y-51200000D01*
X190290000Y-51800000D01*
X190289000Y-51821000D01*
X190288000Y-51842000D01*
X190285000Y-51863000D01*
X190281000Y-51883000D01*
X190276000Y-51904000D01*
X190270000Y-51924000D01*
X190263000Y-51943000D01*
X190255000Y-51963000D01*
X190246000Y-51982000D01*
X190236000Y-52000000D01*
X190225000Y-52018000D01*
X190214000Y-52035000D01*
X190201000Y-52052000D01*
X190187000Y-52068000D01*
X190173000Y-52083000D01*
X190158000Y-52097000D01*
X190142000Y-52111000D01*
X190125000Y-52124000D01*
X190108000Y-52135000D01*
X190090000Y-52146000D01*
X190072000Y-52156000D01*
X190053000Y-52165000D01*
X190033000Y-52173000D01*
X190014000Y-52180000D01*
X189994000Y-52186000D01*
X189973000Y-52191000D01*
X189953000Y-52195000D01*
X189932000Y-52198000D01*
X189911000Y-52199000D01*
X189890000Y-52200000D01*
X189869000Y-52199000D01*
X189848000Y-52198000D01*
X189827000Y-52195000D01*
X189807000Y-52191000D01*
X189786000Y-52186000D01*
X189766000Y-52180000D01*
X189747000Y-52173000D01*
X189727000Y-52165000D01*
X189708000Y-52156000D01*
X189690000Y-52146000D01*
X189672000Y-52135000D01*
X189655000Y-52124000D01*
X189638000Y-52111000D01*
X189622000Y-52097000D01*
X189607000Y-52083000D01*
X189593000Y-52068000D01*
X189579000Y-52052000D01*
X189566000Y-52035000D01*
X189555000Y-52018000D01*
X189544000Y-52000000D01*
X189534000Y-51982000D01*
X189525000Y-51963000D01*
X189517000Y-51943000D01*
X189510000Y-51924000D01*
X189504000Y-51904000D01*
X189499000Y-51883000D01*
X189495000Y-51863000D01*
X189492000Y-51842000D01*
X189491000Y-51821000D01*
X189490000Y-51800000D01*
X189490000Y-51200000D01*
X189491000Y-51179000D01*
X189492000Y-51158000D01*
X189495000Y-51137000D01*
X189499000Y-51117000D01*
X189504000Y-51096000D01*
X189510000Y-51076000D01*
X189517000Y-51057000D01*
X189525000Y-51037000D01*
X189534000Y-51018000D01*
X189544000Y-51000000D01*
X189555000Y-50982000D01*
X189566000Y-50965000D01*
X189579000Y-50948000D01*
X189593000Y-50932000D01*
X189607000Y-50917000D01*
X189622000Y-50903000D01*
X189638000Y-50889000D01*
X189655000Y-50876000D01*
X189672000Y-50865000D01*
X189690000Y-50854000D01*
X189708000Y-50844000D01*
X189727000Y-50835000D01*
X189747000Y-50827000D01*
X189766000Y-50820000D01*
X189786000Y-50814000D01*
X189807000Y-50809000D01*
X189827000Y-50805000D01*
X189848000Y-50802000D01*
X189869000Y-50801000D01*
X189890000Y-50800000D01*
X189911000Y-50801000D01*
%TA.AperFunction,EtchedComponent*%
G36*
X189911000Y-50801000D02*
G01*
X189932000Y-50802000D01*
X189953000Y-50805000D01*
X189973000Y-50809000D01*
X189994000Y-50814000D01*
X190014000Y-50820000D01*
X190033000Y-50827000D01*
X190053000Y-50835000D01*
X190072000Y-50844000D01*
X190090000Y-50854000D01*
X190108000Y-50865000D01*
X190125000Y-50876000D01*
X190142000Y-50889000D01*
X190158000Y-50903000D01*
X190173000Y-50917000D01*
X190187000Y-50932000D01*
X190201000Y-50948000D01*
X190214000Y-50965000D01*
X190225000Y-50982000D01*
X190236000Y-51000000D01*
X190246000Y-51018000D01*
X190255000Y-51037000D01*
X190263000Y-51057000D01*
X190270000Y-51076000D01*
X190276000Y-51096000D01*
X190281000Y-51117000D01*
X190285000Y-51137000D01*
X190288000Y-51158000D01*
X190289000Y-51179000D01*
X190290000Y-51200000D01*
X190290000Y-51800000D01*
X190289000Y-51821000D01*
X190288000Y-51842000D01*
X190285000Y-51863000D01*
X190281000Y-51883000D01*
X190276000Y-51904000D01*
X190270000Y-51924000D01*
X190263000Y-51943000D01*
X190255000Y-51963000D01*
X190246000Y-51982000D01*
X190236000Y-52000000D01*
X190225000Y-52018000D01*
X190214000Y-52035000D01*
X190201000Y-52052000D01*
X190187000Y-52068000D01*
X190173000Y-52083000D01*
X190158000Y-52097000D01*
X190142000Y-52111000D01*
X190125000Y-52124000D01*
X190108000Y-52135000D01*
X190090000Y-52146000D01*
X190072000Y-52156000D01*
X190053000Y-52165000D01*
X190033000Y-52173000D01*
X190014000Y-52180000D01*
X189994000Y-52186000D01*
X189973000Y-52191000D01*
X189953000Y-52195000D01*
X189932000Y-52198000D01*
X189911000Y-52199000D01*
X189890000Y-52200000D01*
X189869000Y-52199000D01*
X189848000Y-52198000D01*
X189827000Y-52195000D01*
X189807000Y-52191000D01*
X189786000Y-52186000D01*
X189766000Y-52180000D01*
X189747000Y-52173000D01*
X189727000Y-52165000D01*
X189708000Y-52156000D01*
X189690000Y-52146000D01*
X189672000Y-52135000D01*
X189655000Y-52124000D01*
X189638000Y-52111000D01*
X189622000Y-52097000D01*
X189607000Y-52083000D01*
X189593000Y-52068000D01*
X189579000Y-52052000D01*
X189566000Y-52035000D01*
X189555000Y-52018000D01*
X189544000Y-52000000D01*
X189534000Y-51982000D01*
X189525000Y-51963000D01*
X189517000Y-51943000D01*
X189510000Y-51924000D01*
X189504000Y-51904000D01*
X189499000Y-51883000D01*
X189495000Y-51863000D01*
X189492000Y-51842000D01*
X189491000Y-51821000D01*
X189490000Y-51800000D01*
X189490000Y-51200000D01*
X189491000Y-51179000D01*
X189492000Y-51158000D01*
X189495000Y-51137000D01*
X189499000Y-51117000D01*
X189504000Y-51096000D01*
X189510000Y-51076000D01*
X189517000Y-51057000D01*
X189525000Y-51037000D01*
X189534000Y-51018000D01*
X189544000Y-51000000D01*
X189555000Y-50982000D01*
X189566000Y-50965000D01*
X189579000Y-50948000D01*
X189593000Y-50932000D01*
X189607000Y-50917000D01*
X189622000Y-50903000D01*
X189638000Y-50889000D01*
X189655000Y-50876000D01*
X189672000Y-50865000D01*
X189690000Y-50854000D01*
X189708000Y-50844000D01*
X189727000Y-50835000D01*
X189747000Y-50827000D01*
X189766000Y-50820000D01*
X189786000Y-50814000D01*
X189807000Y-50809000D01*
X189827000Y-50805000D01*
X189848000Y-50802000D01*
X189869000Y-50801000D01*
X189890000Y-50800000D01*
X189911000Y-50801000D01*
G37*
%TD.AperFunction*%
X189551000Y-55201000D02*
X189572000Y-55202000D01*
X189593000Y-55205000D01*
X189613000Y-55209000D01*
X189634000Y-55214000D01*
X189654000Y-55220000D01*
X189673000Y-55227000D01*
X189693000Y-55235000D01*
X189712000Y-55244000D01*
X189730000Y-55254000D01*
X189748000Y-55265000D01*
X189765000Y-55276000D01*
X189782000Y-55289000D01*
X189798000Y-55303000D01*
X189813000Y-55317000D01*
X189827000Y-55332000D01*
X189841000Y-55348000D01*
X189854000Y-55365000D01*
X189865000Y-55382000D01*
X189876000Y-55400000D01*
X189886000Y-55418000D01*
X189895000Y-55437000D01*
X189903000Y-55457000D01*
X189910000Y-55476000D01*
X189916000Y-55496000D01*
X189921000Y-55517000D01*
X189925000Y-55537000D01*
X189928000Y-55558000D01*
X189929000Y-55579000D01*
X189930000Y-55600000D01*
X189930000Y-56200000D01*
X189929000Y-56221000D01*
X189928000Y-56242000D01*
X189925000Y-56263000D01*
X189921000Y-56283000D01*
X189916000Y-56304000D01*
X189910000Y-56324000D01*
X189903000Y-56343000D01*
X189895000Y-56363000D01*
X189886000Y-56382000D01*
X189876000Y-56400000D01*
X189865000Y-56418000D01*
X189854000Y-56435000D01*
X189841000Y-56452000D01*
X189827000Y-56468000D01*
X189813000Y-56483000D01*
X189798000Y-56497000D01*
X189782000Y-56511000D01*
X189765000Y-56524000D01*
X189748000Y-56535000D01*
X189730000Y-56546000D01*
X189712000Y-56556000D01*
X189693000Y-56565000D01*
X189673000Y-56573000D01*
X189654000Y-56580000D01*
X189634000Y-56586000D01*
X189613000Y-56591000D01*
X189593000Y-56595000D01*
X189572000Y-56598000D01*
X189551000Y-56599000D01*
X189530000Y-56600000D01*
X189509000Y-56599000D01*
X189488000Y-56598000D01*
X189467000Y-56595000D01*
X189447000Y-56591000D01*
X189426000Y-56586000D01*
X189406000Y-56580000D01*
X189387000Y-56573000D01*
X189367000Y-56565000D01*
X189348000Y-56556000D01*
X189330000Y-56546000D01*
X189312000Y-56535000D01*
X189295000Y-56524000D01*
X189278000Y-56511000D01*
X189262000Y-56497000D01*
X189247000Y-56483000D01*
X189233000Y-56468000D01*
X189219000Y-56452000D01*
X189206000Y-56435000D01*
X189195000Y-56418000D01*
X189184000Y-56400000D01*
X189174000Y-56382000D01*
X189165000Y-56363000D01*
X189157000Y-56343000D01*
X189150000Y-56324000D01*
X189144000Y-56304000D01*
X189139000Y-56283000D01*
X189135000Y-56263000D01*
X189132000Y-56242000D01*
X189131000Y-56221000D01*
X189130000Y-56200000D01*
X189130000Y-55600000D01*
X189131000Y-55579000D01*
X189132000Y-55558000D01*
X189135000Y-55537000D01*
X189139000Y-55517000D01*
X189144000Y-55496000D01*
X189150000Y-55476000D01*
X189157000Y-55457000D01*
X189165000Y-55437000D01*
X189174000Y-55418000D01*
X189184000Y-55400000D01*
X189195000Y-55382000D01*
X189206000Y-55365000D01*
X189219000Y-55348000D01*
X189233000Y-55332000D01*
X189247000Y-55317000D01*
X189262000Y-55303000D01*
X189278000Y-55289000D01*
X189295000Y-55276000D01*
X189312000Y-55265000D01*
X189330000Y-55254000D01*
X189348000Y-55244000D01*
X189367000Y-55235000D01*
X189387000Y-55227000D01*
X189406000Y-55220000D01*
X189426000Y-55214000D01*
X189447000Y-55209000D01*
X189467000Y-55205000D01*
X189488000Y-55202000D01*
X189509000Y-55201000D01*
X189530000Y-55200000D01*
X189551000Y-55201000D01*
%TA.AperFunction,EtchedComponent*%
G36*
X189551000Y-55201000D02*
G01*
X189572000Y-55202000D01*
X189593000Y-55205000D01*
X189613000Y-55209000D01*
X189634000Y-55214000D01*
X189654000Y-55220000D01*
X189673000Y-55227000D01*
X189693000Y-55235000D01*
X189712000Y-55244000D01*
X189730000Y-55254000D01*
X189748000Y-55265000D01*
X189765000Y-55276000D01*
X189782000Y-55289000D01*
X189798000Y-55303000D01*
X189813000Y-55317000D01*
X189827000Y-55332000D01*
X189841000Y-55348000D01*
X189854000Y-55365000D01*
X189865000Y-55382000D01*
X189876000Y-55400000D01*
X189886000Y-55418000D01*
X189895000Y-55437000D01*
X189903000Y-55457000D01*
X189910000Y-55476000D01*
X189916000Y-55496000D01*
X189921000Y-55517000D01*
X189925000Y-55537000D01*
X189928000Y-55558000D01*
X189929000Y-55579000D01*
X189930000Y-55600000D01*
X189930000Y-56200000D01*
X189929000Y-56221000D01*
X189928000Y-56242000D01*
X189925000Y-56263000D01*
X189921000Y-56283000D01*
X189916000Y-56304000D01*
X189910000Y-56324000D01*
X189903000Y-56343000D01*
X189895000Y-56363000D01*
X189886000Y-56382000D01*
X189876000Y-56400000D01*
X189865000Y-56418000D01*
X189854000Y-56435000D01*
X189841000Y-56452000D01*
X189827000Y-56468000D01*
X189813000Y-56483000D01*
X189798000Y-56497000D01*
X189782000Y-56511000D01*
X189765000Y-56524000D01*
X189748000Y-56535000D01*
X189730000Y-56546000D01*
X189712000Y-56556000D01*
X189693000Y-56565000D01*
X189673000Y-56573000D01*
X189654000Y-56580000D01*
X189634000Y-56586000D01*
X189613000Y-56591000D01*
X189593000Y-56595000D01*
X189572000Y-56598000D01*
X189551000Y-56599000D01*
X189530000Y-56600000D01*
X189509000Y-56599000D01*
X189488000Y-56598000D01*
X189467000Y-56595000D01*
X189447000Y-56591000D01*
X189426000Y-56586000D01*
X189406000Y-56580000D01*
X189387000Y-56573000D01*
X189367000Y-56565000D01*
X189348000Y-56556000D01*
X189330000Y-56546000D01*
X189312000Y-56535000D01*
X189295000Y-56524000D01*
X189278000Y-56511000D01*
X189262000Y-56497000D01*
X189247000Y-56483000D01*
X189233000Y-56468000D01*
X189219000Y-56452000D01*
X189206000Y-56435000D01*
X189195000Y-56418000D01*
X189184000Y-56400000D01*
X189174000Y-56382000D01*
X189165000Y-56363000D01*
X189157000Y-56343000D01*
X189150000Y-56324000D01*
X189144000Y-56304000D01*
X189139000Y-56283000D01*
X189135000Y-56263000D01*
X189132000Y-56242000D01*
X189131000Y-56221000D01*
X189130000Y-56200000D01*
X189130000Y-55600000D01*
X189131000Y-55579000D01*
X189132000Y-55558000D01*
X189135000Y-55537000D01*
X189139000Y-55517000D01*
X189144000Y-55496000D01*
X189150000Y-55476000D01*
X189157000Y-55457000D01*
X189165000Y-55437000D01*
X189174000Y-55418000D01*
X189184000Y-55400000D01*
X189195000Y-55382000D01*
X189206000Y-55365000D01*
X189219000Y-55348000D01*
X189233000Y-55332000D01*
X189247000Y-55317000D01*
X189262000Y-55303000D01*
X189278000Y-55289000D01*
X189295000Y-55276000D01*
X189312000Y-55265000D01*
X189330000Y-55254000D01*
X189348000Y-55244000D01*
X189367000Y-55235000D01*
X189387000Y-55227000D01*
X189406000Y-55220000D01*
X189426000Y-55214000D01*
X189447000Y-55209000D01*
X189467000Y-55205000D01*
X189488000Y-55202000D01*
X189509000Y-55201000D01*
X189530000Y-55200000D01*
X189551000Y-55201000D01*
G37*
%TD.AperFunction*%
X181291000Y-55201000D02*
X181312000Y-55202000D01*
X181333000Y-55205000D01*
X181353000Y-55209000D01*
X181374000Y-55214000D01*
X181394000Y-55220000D01*
X181413000Y-55227000D01*
X181433000Y-55235000D01*
X181452000Y-55244000D01*
X181470000Y-55254000D01*
X181488000Y-55265000D01*
X181505000Y-55276000D01*
X181522000Y-55289000D01*
X181538000Y-55303000D01*
X181553000Y-55317000D01*
X181567000Y-55332000D01*
X181581000Y-55348000D01*
X181594000Y-55365000D01*
X181605000Y-55382000D01*
X181616000Y-55400000D01*
X181626000Y-55418000D01*
X181635000Y-55437000D01*
X181643000Y-55457000D01*
X181650000Y-55476000D01*
X181656000Y-55496000D01*
X181661000Y-55517000D01*
X181665000Y-55537000D01*
X181668000Y-55558000D01*
X181669000Y-55579000D01*
X181670000Y-55600000D01*
X181670000Y-56200000D01*
X181669000Y-56221000D01*
X181668000Y-56242000D01*
X181665000Y-56263000D01*
X181661000Y-56283000D01*
X181656000Y-56304000D01*
X181650000Y-56324000D01*
X181643000Y-56343000D01*
X181635000Y-56363000D01*
X181626000Y-56382000D01*
X181616000Y-56400000D01*
X181605000Y-56418000D01*
X181594000Y-56435000D01*
X181581000Y-56452000D01*
X181567000Y-56468000D01*
X181553000Y-56483000D01*
X181538000Y-56497000D01*
X181522000Y-56511000D01*
X181505000Y-56524000D01*
X181488000Y-56535000D01*
X181470000Y-56546000D01*
X181452000Y-56556000D01*
X181433000Y-56565000D01*
X181413000Y-56573000D01*
X181394000Y-56580000D01*
X181374000Y-56586000D01*
X181353000Y-56591000D01*
X181333000Y-56595000D01*
X181312000Y-56598000D01*
X181291000Y-56599000D01*
X181270000Y-56600000D01*
X181249000Y-56599000D01*
X181228000Y-56598000D01*
X181207000Y-56595000D01*
X181187000Y-56591000D01*
X181166000Y-56586000D01*
X181146000Y-56580000D01*
X181127000Y-56573000D01*
X181107000Y-56565000D01*
X181088000Y-56556000D01*
X181070000Y-56546000D01*
X181052000Y-56535000D01*
X181035000Y-56524000D01*
X181018000Y-56511000D01*
X181002000Y-56497000D01*
X180987000Y-56483000D01*
X180973000Y-56468000D01*
X180959000Y-56452000D01*
X180946000Y-56435000D01*
X180935000Y-56418000D01*
X180924000Y-56400000D01*
X180914000Y-56382000D01*
X180905000Y-56363000D01*
X180897000Y-56343000D01*
X180890000Y-56324000D01*
X180884000Y-56304000D01*
X180879000Y-56283000D01*
X180875000Y-56263000D01*
X180872000Y-56242000D01*
X180871000Y-56221000D01*
X180870000Y-56200000D01*
X180870000Y-55600000D01*
X180871000Y-55579000D01*
X180872000Y-55558000D01*
X180875000Y-55537000D01*
X180879000Y-55517000D01*
X180884000Y-55496000D01*
X180890000Y-55476000D01*
X180897000Y-55457000D01*
X180905000Y-55437000D01*
X180914000Y-55418000D01*
X180924000Y-55400000D01*
X180935000Y-55382000D01*
X180946000Y-55365000D01*
X180959000Y-55348000D01*
X180973000Y-55332000D01*
X180987000Y-55317000D01*
X181002000Y-55303000D01*
X181018000Y-55289000D01*
X181035000Y-55276000D01*
X181052000Y-55265000D01*
X181070000Y-55254000D01*
X181088000Y-55244000D01*
X181107000Y-55235000D01*
X181127000Y-55227000D01*
X181146000Y-55220000D01*
X181166000Y-55214000D01*
X181187000Y-55209000D01*
X181207000Y-55205000D01*
X181228000Y-55202000D01*
X181249000Y-55201000D01*
X181270000Y-55200000D01*
X181291000Y-55201000D01*
%TA.AperFunction,EtchedComponent*%
G36*
X181291000Y-55201000D02*
G01*
X181312000Y-55202000D01*
X181333000Y-55205000D01*
X181353000Y-55209000D01*
X181374000Y-55214000D01*
X181394000Y-55220000D01*
X181413000Y-55227000D01*
X181433000Y-55235000D01*
X181452000Y-55244000D01*
X181470000Y-55254000D01*
X181488000Y-55265000D01*
X181505000Y-55276000D01*
X181522000Y-55289000D01*
X181538000Y-55303000D01*
X181553000Y-55317000D01*
X181567000Y-55332000D01*
X181581000Y-55348000D01*
X181594000Y-55365000D01*
X181605000Y-55382000D01*
X181616000Y-55400000D01*
X181626000Y-55418000D01*
X181635000Y-55437000D01*
X181643000Y-55457000D01*
X181650000Y-55476000D01*
X181656000Y-55496000D01*
X181661000Y-55517000D01*
X181665000Y-55537000D01*
X181668000Y-55558000D01*
X181669000Y-55579000D01*
X181670000Y-55600000D01*
X181670000Y-56200000D01*
X181669000Y-56221000D01*
X181668000Y-56242000D01*
X181665000Y-56263000D01*
X181661000Y-56283000D01*
X181656000Y-56304000D01*
X181650000Y-56324000D01*
X181643000Y-56343000D01*
X181635000Y-56363000D01*
X181626000Y-56382000D01*
X181616000Y-56400000D01*
X181605000Y-56418000D01*
X181594000Y-56435000D01*
X181581000Y-56452000D01*
X181567000Y-56468000D01*
X181553000Y-56483000D01*
X181538000Y-56497000D01*
X181522000Y-56511000D01*
X181505000Y-56524000D01*
X181488000Y-56535000D01*
X181470000Y-56546000D01*
X181452000Y-56556000D01*
X181433000Y-56565000D01*
X181413000Y-56573000D01*
X181394000Y-56580000D01*
X181374000Y-56586000D01*
X181353000Y-56591000D01*
X181333000Y-56595000D01*
X181312000Y-56598000D01*
X181291000Y-56599000D01*
X181270000Y-56600000D01*
X181249000Y-56599000D01*
X181228000Y-56598000D01*
X181207000Y-56595000D01*
X181187000Y-56591000D01*
X181166000Y-56586000D01*
X181146000Y-56580000D01*
X181127000Y-56573000D01*
X181107000Y-56565000D01*
X181088000Y-56556000D01*
X181070000Y-56546000D01*
X181052000Y-56535000D01*
X181035000Y-56524000D01*
X181018000Y-56511000D01*
X181002000Y-56497000D01*
X180987000Y-56483000D01*
X180973000Y-56468000D01*
X180959000Y-56452000D01*
X180946000Y-56435000D01*
X180935000Y-56418000D01*
X180924000Y-56400000D01*
X180914000Y-56382000D01*
X180905000Y-56363000D01*
X180897000Y-56343000D01*
X180890000Y-56324000D01*
X180884000Y-56304000D01*
X180879000Y-56283000D01*
X180875000Y-56263000D01*
X180872000Y-56242000D01*
X180871000Y-56221000D01*
X180870000Y-56200000D01*
X180870000Y-55600000D01*
X180871000Y-55579000D01*
X180872000Y-55558000D01*
X180875000Y-55537000D01*
X180879000Y-55517000D01*
X180884000Y-55496000D01*
X180890000Y-55476000D01*
X180897000Y-55457000D01*
X180905000Y-55437000D01*
X180914000Y-55418000D01*
X180924000Y-55400000D01*
X180935000Y-55382000D01*
X180946000Y-55365000D01*
X180959000Y-55348000D01*
X180973000Y-55332000D01*
X180987000Y-55317000D01*
X181002000Y-55303000D01*
X181018000Y-55289000D01*
X181035000Y-55276000D01*
X181052000Y-55265000D01*
X181070000Y-55254000D01*
X181088000Y-55244000D01*
X181107000Y-55235000D01*
X181127000Y-55227000D01*
X181146000Y-55220000D01*
X181166000Y-55214000D01*
X181187000Y-55209000D01*
X181207000Y-55205000D01*
X181228000Y-55202000D01*
X181249000Y-55201000D01*
X181270000Y-55200000D01*
X181291000Y-55201000D01*
G37*
%TD.AperFunction*%
X180931000Y-50801000D02*
X180952000Y-50802000D01*
X180973000Y-50805000D01*
X180993000Y-50809000D01*
X181014000Y-50814000D01*
X181034000Y-50820000D01*
X181053000Y-50827000D01*
X181073000Y-50835000D01*
X181092000Y-50844000D01*
X181110000Y-50854000D01*
X181128000Y-50865000D01*
X181145000Y-50876000D01*
X181162000Y-50889000D01*
X181178000Y-50903000D01*
X181193000Y-50917000D01*
X181207000Y-50932000D01*
X181221000Y-50948000D01*
X181234000Y-50965000D01*
X181245000Y-50982000D01*
X181256000Y-51000000D01*
X181266000Y-51018000D01*
X181275000Y-51037000D01*
X181283000Y-51057000D01*
X181290000Y-51076000D01*
X181296000Y-51096000D01*
X181301000Y-51117000D01*
X181305000Y-51137000D01*
X181308000Y-51158000D01*
X181309000Y-51179000D01*
X181310000Y-51200000D01*
X181310000Y-51800000D01*
X181309000Y-51821000D01*
X181308000Y-51842000D01*
X181305000Y-51863000D01*
X181301000Y-51883000D01*
X181296000Y-51904000D01*
X181290000Y-51924000D01*
X181283000Y-51943000D01*
X181275000Y-51963000D01*
X181266000Y-51982000D01*
X181256000Y-52000000D01*
X181245000Y-52018000D01*
X181234000Y-52035000D01*
X181221000Y-52052000D01*
X181207000Y-52068000D01*
X181193000Y-52083000D01*
X181178000Y-52097000D01*
X181162000Y-52111000D01*
X181145000Y-52124000D01*
X181128000Y-52135000D01*
X181110000Y-52146000D01*
X181092000Y-52156000D01*
X181073000Y-52165000D01*
X181053000Y-52173000D01*
X181034000Y-52180000D01*
X181014000Y-52186000D01*
X180993000Y-52191000D01*
X180973000Y-52195000D01*
X180952000Y-52198000D01*
X180931000Y-52199000D01*
X180910000Y-52200000D01*
X180889000Y-52199000D01*
X180868000Y-52198000D01*
X180847000Y-52195000D01*
X180827000Y-52191000D01*
X180806000Y-52186000D01*
X180786000Y-52180000D01*
X180767000Y-52173000D01*
X180747000Y-52165000D01*
X180728000Y-52156000D01*
X180710000Y-52146000D01*
X180692000Y-52135000D01*
X180675000Y-52124000D01*
X180658000Y-52111000D01*
X180642000Y-52097000D01*
X180627000Y-52083000D01*
X180613000Y-52068000D01*
X180599000Y-52052000D01*
X180586000Y-52035000D01*
X180575000Y-52018000D01*
X180564000Y-52000000D01*
X180554000Y-51982000D01*
X180545000Y-51963000D01*
X180537000Y-51943000D01*
X180530000Y-51924000D01*
X180524000Y-51904000D01*
X180519000Y-51883000D01*
X180515000Y-51863000D01*
X180512000Y-51842000D01*
X180511000Y-51821000D01*
X180510000Y-51800000D01*
X180510000Y-51200000D01*
X180511000Y-51179000D01*
X180512000Y-51158000D01*
X180515000Y-51137000D01*
X180519000Y-51117000D01*
X180524000Y-51096000D01*
X180530000Y-51076000D01*
X180537000Y-51057000D01*
X180545000Y-51037000D01*
X180554000Y-51018000D01*
X180564000Y-51000000D01*
X180575000Y-50982000D01*
X180586000Y-50965000D01*
X180599000Y-50948000D01*
X180613000Y-50932000D01*
X180627000Y-50917000D01*
X180642000Y-50903000D01*
X180658000Y-50889000D01*
X180675000Y-50876000D01*
X180692000Y-50865000D01*
X180710000Y-50854000D01*
X180728000Y-50844000D01*
X180747000Y-50835000D01*
X180767000Y-50827000D01*
X180786000Y-50820000D01*
X180806000Y-50814000D01*
X180827000Y-50809000D01*
X180847000Y-50805000D01*
X180868000Y-50802000D01*
X180889000Y-50801000D01*
X180910000Y-50800000D01*
X180931000Y-50801000D01*
%TA.AperFunction,EtchedComponent*%
G36*
X180931000Y-50801000D02*
G01*
X180952000Y-50802000D01*
X180973000Y-50805000D01*
X180993000Y-50809000D01*
X181014000Y-50814000D01*
X181034000Y-50820000D01*
X181053000Y-50827000D01*
X181073000Y-50835000D01*
X181092000Y-50844000D01*
X181110000Y-50854000D01*
X181128000Y-50865000D01*
X181145000Y-50876000D01*
X181162000Y-50889000D01*
X181178000Y-50903000D01*
X181193000Y-50917000D01*
X181207000Y-50932000D01*
X181221000Y-50948000D01*
X181234000Y-50965000D01*
X181245000Y-50982000D01*
X181256000Y-51000000D01*
X181266000Y-51018000D01*
X181275000Y-51037000D01*
X181283000Y-51057000D01*
X181290000Y-51076000D01*
X181296000Y-51096000D01*
X181301000Y-51117000D01*
X181305000Y-51137000D01*
X181308000Y-51158000D01*
X181309000Y-51179000D01*
X181310000Y-51200000D01*
X181310000Y-51800000D01*
X181309000Y-51821000D01*
X181308000Y-51842000D01*
X181305000Y-51863000D01*
X181301000Y-51883000D01*
X181296000Y-51904000D01*
X181290000Y-51924000D01*
X181283000Y-51943000D01*
X181275000Y-51963000D01*
X181266000Y-51982000D01*
X181256000Y-52000000D01*
X181245000Y-52018000D01*
X181234000Y-52035000D01*
X181221000Y-52052000D01*
X181207000Y-52068000D01*
X181193000Y-52083000D01*
X181178000Y-52097000D01*
X181162000Y-52111000D01*
X181145000Y-52124000D01*
X181128000Y-52135000D01*
X181110000Y-52146000D01*
X181092000Y-52156000D01*
X181073000Y-52165000D01*
X181053000Y-52173000D01*
X181034000Y-52180000D01*
X181014000Y-52186000D01*
X180993000Y-52191000D01*
X180973000Y-52195000D01*
X180952000Y-52198000D01*
X180931000Y-52199000D01*
X180910000Y-52200000D01*
X180889000Y-52199000D01*
X180868000Y-52198000D01*
X180847000Y-52195000D01*
X180827000Y-52191000D01*
X180806000Y-52186000D01*
X180786000Y-52180000D01*
X180767000Y-52173000D01*
X180747000Y-52165000D01*
X180728000Y-52156000D01*
X180710000Y-52146000D01*
X180692000Y-52135000D01*
X180675000Y-52124000D01*
X180658000Y-52111000D01*
X180642000Y-52097000D01*
X180627000Y-52083000D01*
X180613000Y-52068000D01*
X180599000Y-52052000D01*
X180586000Y-52035000D01*
X180575000Y-52018000D01*
X180564000Y-52000000D01*
X180554000Y-51982000D01*
X180545000Y-51963000D01*
X180537000Y-51943000D01*
X180530000Y-51924000D01*
X180524000Y-51904000D01*
X180519000Y-51883000D01*
X180515000Y-51863000D01*
X180512000Y-51842000D01*
X180511000Y-51821000D01*
X180510000Y-51800000D01*
X180510000Y-51200000D01*
X180511000Y-51179000D01*
X180512000Y-51158000D01*
X180515000Y-51137000D01*
X180519000Y-51117000D01*
X180524000Y-51096000D01*
X180530000Y-51076000D01*
X180537000Y-51057000D01*
X180545000Y-51037000D01*
X180554000Y-51018000D01*
X180564000Y-51000000D01*
X180575000Y-50982000D01*
X180586000Y-50965000D01*
X180599000Y-50948000D01*
X180613000Y-50932000D01*
X180627000Y-50917000D01*
X180642000Y-50903000D01*
X180658000Y-50889000D01*
X180675000Y-50876000D01*
X180692000Y-50865000D01*
X180710000Y-50854000D01*
X180728000Y-50844000D01*
X180747000Y-50835000D01*
X180767000Y-50827000D01*
X180786000Y-50820000D01*
X180806000Y-50814000D01*
X180827000Y-50809000D01*
X180847000Y-50805000D01*
X180868000Y-50802000D01*
X180889000Y-50801000D01*
X180910000Y-50800000D01*
X180931000Y-50801000D01*
G37*
%TD.AperFunction*%
%TD*%
D11*
%TO.P,JP2,1,A*%
%TO.N,+3V3*%
X153125000Y-76980000D03*
D12*
%TO.P,JP2,2,B*%
%TO.N,/MOTOR2_MS2*%
X155665000Y-76980000D03*
%TD*%
D11*
%TO.P,J8,1,Pin_1*%
%TO.N,+3V3*%
X104500000Y-90585000D03*
D12*
%TO.P,J8,2,Pin_2*%
%TO.N,GND*%
X104500000Y-93125000D03*
%TO.P,J8,3,Pin_3*%
%TO.N,SCL3*%
X104500000Y-95665000D03*
%TO.P,J8,4,Pin_4*%
%TO.N,SDA3*%
X104500000Y-98205000D03*
%TO.P,J8,5,Pin_5*%
%TO.N,I2C3_INT*%
X104500000Y-100745000D03*
%TD*%
D11*
%TO.P,JP6,1,A*%
%TO.N,+3V3*%
X127125000Y-74430000D03*
D12*
%TO.P,JP6,2,B*%
%TO.N,/MOTOR1_MS3*%
X129665000Y-74430000D03*
%TD*%
D13*
%TO.P,A3,1,GND*%
%TO.N,GND*%
X153110000Y-83340000D03*
D14*
%TO.P,A3,2,VDD*%
%TO.N,+3V3*%
X155650000Y-83340000D03*
%TO.P,A3,3,1B*%
%TO.N,/MOTOR2_1B*%
X158190000Y-83340000D03*
%TO.P,A3,4,1A*%
%TO.N,/MOTOR2_1A*%
X160730000Y-83340000D03*
%TO.P,A3,5,2A*%
%TO.N,/MOTOR2_2A*%
X163270000Y-83340000D03*
%TO.P,A3,6,2B*%
%TO.N,/MOTOR2_2B*%
X165810000Y-83340000D03*
%TO.P,A3,7,GND*%
%TO.N,GND*%
X168350000Y-83340000D03*
%TO.P,A3,8,VMOT*%
%TO.N,+BATT*%
X170890000Y-83340000D03*
%TO.P,A3,9,~{ENABLE}*%
%TO.N,MOTOR_EN*%
X170890000Y-70640000D03*
%TO.P,A3,10,MS1*%
%TO.N,/MOTOR2_MS1*%
X168350000Y-70640000D03*
%TO.P,A3,11,MS2*%
%TO.N,/MOTOR2_MS2*%
X165810000Y-70640000D03*
%TO.P,A3,12,MS3*%
%TO.N,/MOTOR2_MS3*%
X163270000Y-70640000D03*
%TO.P,A3,13,~{RESET}*%
%TO.N,/MOTOR2_RST*%
X160730000Y-70640000D03*
%TO.P,A3,14,~{SLEEP}*%
X158190000Y-70640000D03*
%TO.P,A3,15,STEP*%
%TO.N,MOTOR2_STEP_IN*%
X155650000Y-70640000D03*
%TO.P,A3,16,DIR*%
%TO.N,MOTOR2_DIR*%
X153110000Y-70640000D03*
%TD*%
D11*
%TO.P,JP4,1,A*%
%TO.N,+3V3*%
X127125000Y-79530000D03*
D12*
%TO.P,JP4,2,B*%
%TO.N,/MOTOR1_MS1*%
X129665000Y-79530000D03*
%TD*%
D15*
%TO.P,J4,B1,GND*%
%TO.N,GND*%
X182600000Y-56490000D03*
%TO.P,J4,B2,TX2+*%
%TO.N,unconnected-(J4-TX2+-PadB2)*%
X183000000Y-55790000D03*
%TO.P,J4,B3,TX2-*%
%TO.N,unconnected-(J4-TX2--PadB3)*%
X183800000Y-55790000D03*
%TO.P,J4,B4,VBUS*%
%TO.N,VBUS*%
X184200000Y-56490000D03*
%TO.P,J4,B5,CC2*%
%TO.N,/CC2*%
X184600000Y-55790000D03*
%TO.P,J4,B6,D+*%
%TO.N,/DP*%
X185000000Y-56490000D03*
%TO.P,J4,B7,D-*%
%TO.N,/DN*%
X185800000Y-56490000D03*
%TO.P,J4,B8,SBU2*%
%TO.N,unconnected-(J4-SBU2-PadB8)*%
X186200000Y-55790000D03*
%TO.P,J4,B9,VBUS*%
%TO.N,VBUS*%
X186600000Y-56490000D03*
%TO.P,J4,B10,RX1-*%
%TO.N,unconnected-(J4-RX1--PadB10)*%
X187000000Y-55790000D03*
%TO.P,J4,B11,RX1+*%
%TO.N,unconnected-(J4-RX1+-PadB11)*%
X187800000Y-55790000D03*
%TO.P,J4,B12,GND*%
%TO.N,GND*%
X188200000Y-56490000D03*
D16*
%TO.P,J4,S1,SHIELD*%
X189530000Y-55900000D03*
%TO.P,J4,S2,SHIELD*%
X181270000Y-55900000D03*
%TO.P,J4,S3,SHIELD*%
X189890000Y-51500000D03*
%TO.P,J4,S4,SHIELD*%
X180910000Y-51500000D03*
%TD*%
D11*
%TO.P,JP9,1,A*%
%TO.N,MOTOR1_STEP*%
X160060000Y-98900000D03*
D12*
%TO.P,JP9,2,C*%
%TO.N,MOTOR2_STEP_IN*%
X162600000Y-98900000D03*
%TO.P,JP9,3,B*%
%TO.N,MOTOR2_STEP*%
X165140000Y-98900000D03*
%TD*%
D11*
%TO.P,J7,1,Pin_1*%
%TO.N,+3V3*%
X112000000Y-90590000D03*
D12*
%TO.P,J7,2,Pin_2*%
%TO.N,GND*%
X112000000Y-93130000D03*
%TO.P,J7,3,Pin_3*%
%TO.N,SCL2*%
X112000000Y-95670000D03*
%TO.P,J7,4,Pin_4*%
%TO.N,SDA2*%
X112000000Y-98210000D03*
%TO.P,J7,5,Pin_5*%
%TO.N,I2C2_INT*%
X112000000Y-100750000D03*
%TD*%
D11*
%TO.P,JP1,1,A*%
%TO.N,+3V3*%
X153125000Y-79530000D03*
D12*
%TO.P,JP1,2,B*%
%TO.N,/MOTOR2_MS1*%
X155665000Y-79530000D03*
%TD*%
D11*
%TO.P,JP5,1,A*%
%TO.N,+3V3*%
X127125000Y-76980000D03*
D12*
%TO.P,JP5,2,B*%
%TO.N,/MOTOR1_MS2*%
X129665000Y-76980000D03*
%TD*%
D17*
%TO.P,H2,1,1*%
%TO.N,GND*%
X194500000Y-53000000D03*
%TD*%
D11*
%TO.P,JP3,1,A*%
%TO.N,+3V3*%
X153125000Y-74430000D03*
D12*
%TO.P,JP3,2,B*%
%TO.N,/MOTOR2_MS3*%
X155665000Y-74430000D03*
%TD*%
D17*
%TO.P,H4,1,1*%
%TO.N,GND*%
X182500000Y-111500000D03*
%TD*%
D18*
%TO.P,J3,1,Pin_1*%
%TO.N,GND*%
X114540000Y-54000000D03*
D19*
%TO.P,J3,2,Pin_2*%
%TO.N,/VIN*%
X109460000Y-54000000D03*
%TD*%
D20*
%TO.P,C1,1*%
%TO.N,+BATT*%
X144000000Y-78230000D03*
%TO.P,C1,2*%
%TO.N,GND*%
X144000000Y-75730000D03*
%TD*%
D19*
%TO.P,F1,1*%
%TO.N,/VIN*%
X108400000Y-61700000D03*
%TO.P,F1,2*%
%TO.N,/VIN_FUSED*%
X108400000Y-84200000D03*
%TD*%
D13*
%TO.P,A2,1,GND*%
%TO.N,GND*%
X127110000Y-83340000D03*
D14*
%TO.P,A2,2,VDD*%
%TO.N,+3V3*%
X129650000Y-83340000D03*
%TO.P,A2,3,1B*%
%TO.N,/MOTOR1_1B*%
X132190000Y-83340000D03*
%TO.P,A2,4,1A*%
%TO.N,/MOTOR1_1A*%
X134730000Y-83340000D03*
%TO.P,A2,5,2A*%
%TO.N,/MOTOR1_2A*%
X137270000Y-83340000D03*
%TO.P,A2,6,2B*%
%TO.N,/MOTOR1_2B*%
X139810000Y-83340000D03*
%TO.P,A2,7,GND*%
%TO.N,GND*%
X142350000Y-83340000D03*
%TO.P,A2,8,VMOT*%
%TO.N,+BATT*%
X144890000Y-83340000D03*
%TO.P,A2,9,~{ENABLE}*%
%TO.N,MOTOR_EN*%
X144890000Y-70640000D03*
%TO.P,A2,10,MS1*%
%TO.N,/MOTOR1_MS1*%
X142350000Y-70640000D03*
%TO.P,A2,11,MS2*%
%TO.N,/MOTOR1_MS2*%
X139810000Y-70640000D03*
%TO.P,A2,12,MS3*%
%TO.N,/MOTOR1_MS3*%
X137270000Y-70640000D03*
%TO.P,A2,13,~{RESET}*%
%TO.N,/MOTOR1_RST*%
X134730000Y-70640000D03*
%TO.P,A2,14,~{SLEEP}*%
X132190000Y-70640000D03*
%TO.P,A2,15,STEP*%
%TO.N,MOTOR1_STEP*%
X129650000Y-70640000D03*
%TO.P,A2,16,DIR*%
%TO.N,MOTOR1_DIR*%
X127110000Y-70640000D03*
%TD*%
D21*
%TO.P,U3,17,PAD*%
%TO.N,GND*%
X123725001Y-99772182D03*
X124825001Y-98672182D03*
X124825001Y-99772182D03*
X124825001Y-100872182D03*
X125925001Y-99772182D03*
%TD*%
D20*
%TO.P,C2,1*%
%TO.N,+BATT*%
X170000000Y-78230000D03*
%TO.P,C2,2*%
%TO.N,GND*%
X170000000Y-75730000D03*
%TD*%
D17*
%TO.P,H3,1,1*%
%TO.N,GND*%
X113000000Y-111500000D03*
%TD*%
D11*
%TO.P,J1,1,Pin_1*%
%TO.N,/MOTOR2_1B*%
X158200000Y-88730000D03*
D12*
%TO.P,J1,2,Pin_2*%
%TO.N,/MOTOR2_1A*%
X160740000Y-88730000D03*
%TO.P,J1,3,Pin_3*%
%TO.N,/MOTOR2_2A*%
X163280000Y-88730000D03*
%TO.P,J1,4,Pin_4*%
%TO.N,/MOTOR2_2B*%
X165820000Y-88730000D03*
%TD*%
D11*
%TO.P,J5,1,Pin_1*%
%TO.N,+3V3*%
X189500000Y-90130000D03*
D12*
%TO.P,J5,2,Pin_2*%
%TO.N,GND*%
X189500000Y-92670000D03*
%TO.P,J5,3,Pin_3*%
%TO.N,SCL0*%
X189500000Y-95210000D03*
%TO.P,J5,4,Pin_4*%
%TO.N,SDA0*%
X189500000Y-97750000D03*
%TO.P,J5,5,Pin_5*%
%TO.N,I2C0_INT*%
X189500000Y-100290000D03*
%TD*%
D11*
%TO.P,J2,1,Pin_1*%
%TO.N,/MOTOR1_1B*%
X132200000Y-88730000D03*
D12*
%TO.P,J2,2,Pin_2*%
%TO.N,/MOTOR1_1A*%
X134740000Y-88730000D03*
%TO.P,J2,3,Pin_3*%
%TO.N,/MOTOR1_2A*%
X137280000Y-88730000D03*
%TO.P,J2,4,Pin_4*%
%TO.N,/MOTOR1_2B*%
X139820000Y-88730000D03*
%TD*%
D17*
%TO.P,H1,1,1*%
%TO.N,GND*%
X103000000Y-53000000D03*
%TD*%
D22*
%TO.P,U1,39,GND*%
%TO.N,GND*%
X152250000Y-121932500D03*
X152250000Y-120407500D03*
X151487500Y-122695000D03*
X151487500Y-121170000D03*
X151487500Y-119645000D03*
X150725000Y-121932500D03*
X150725000Y-120407500D03*
X149962500Y-122695000D03*
X149962500Y-121170000D03*
X149962500Y-119645000D03*
X149200000Y-121932500D03*
X149200000Y-120407500D03*
%TD*%
D23*
%TO.P,SW1,1,A*%
%TO.N,/VIN_FUSED*%
X118850000Y-82599500D03*
%TO.P,SW1,2,B*%
%TO.N,+BATT*%
X118850000Y-77900500D03*
%TO.P,SW1,3,C*%
%TO.N,/SW3*%
X118850000Y-73201500D03*
%TD*%
D11*
%TO.P,J10,1,Pin_1*%
%TO.N,+5V*%
X103400000Y-114925000D03*
D12*
%TO.P,J10,2,Pin_2*%
%TO.N,GND*%
X103400000Y-117465000D03*
%TD*%
D11*
%TO.P,J10,1,Pin_1*%
%TO.N,+5V*%
X103400000Y-122025000D03*
D12*
%TO.P,J10,2,Pin_2*%
%TO.N,GND*%
X103400000Y-124565000D03*
%TD*%
D11*
%TO.P,J10,1,Pin_1*%
%TO.N,+5V*%
X118100000Y-114925000D03*
D12*
%TO.P,J10,2,Pin_2*%
%TO.N,GND*%
X118100000Y-117465000D03*
%TD*%
D11*
%TO.P,J6,1,Pin_1*%
%TO.N,+3V3*%
X182000000Y-90130000D03*
D12*
%TO.P,J6,2,Pin_2*%
%TO.N,GND*%
X182000000Y-92670000D03*
%TO.P,J6,3,Pin_3*%
%TO.N,SCL1*%
X182000000Y-95210000D03*
%TO.P,J6,4,Pin_4*%
%TO.N,SDA1*%
X182000000Y-97750000D03*
%TO.P,J6,5,Pin_5*%
%TO.N,I2C1_INT*%
X182000000Y-100290000D03*
%TD*%
D14*
%TO.P,A1,15,D0/RX*%
%TO.N,ESP32_TX*%
X169500000Y-63740000D03*
%TO.P,A1,16,D1/TX*%
%TO.N,ESP32_RX*%
X166960000Y-63740000D03*
%TO.P,A1,17,D2*%
%TO.N,unconnected-(A1-D2-Pad17)*%
X164420000Y-63740000D03*
%TO.P,A1,18,D3*%
%TO.N,unconnected-(A1-D3-Pad18)*%
X161880000Y-63740000D03*
%TO.P,A1,19,D4*%
%TO.N,unconnected-(A1-D4-Pad19)*%
X159340000Y-63740000D03*
%TO.P,A1,20,D5*%
%TO.N,unconnected-(A1-D5-Pad20)*%
X156800000Y-63740000D03*
%TO.P,A1,21,D6*%
%TO.N,unconnected-(A1-D6-Pad21)*%
X154260000Y-63740000D03*
%TO.P,A1,22,D7*%
%TO.N,unconnected-(A1-D7-Pad22)*%
X151720000Y-63740000D03*
%TO.P,A1,23,D8*%
%TO.N,unconnected-(A1-D8-Pad23)*%
X147660000Y-63740000D03*
%TO.P,A1,24,D9*%
%TO.N,unconnected-(A1-D9-Pad24)*%
X145120000Y-63740000D03*
%TO.P,A1,25,D10*%
%TO.N,unconnected-(A1-D10-Pad25)*%
X142580000Y-63740000D03*
%TO.P,A1,26,D11*%
%TO.N,/FPGA_LED_A*%
X140040000Y-63740000D03*
%TO.P,A1,27,D12*%
%TO.N,FPGA_GPIO*%
X137500000Y-63740000D03*
%TO.P,A1,28,D13*%
%TO.N,FPGA_INT*%
X134960000Y-63740000D03*
%TO.P,A1,29,GND*%
%TO.N,GND*%
X132420000Y-63740000D03*
%TO.P,A1,30,NC*%
%TO.N,unconnected-(A1-NC-Pad30)*%
X129880000Y-63740000D03*
%TO.P,A1,31,SDA/D14*%
%TO.N,ESP32_SDA*%
X127340000Y-63740000D03*
%TO.P,A1,32,SCL/D15*%
%TO.N,ESP32_SCL*%
X124800000Y-63740000D03*
%TD*%
D11*
%TO.P,J9,1,Pin_1*%
%TO.N,SERVO*%
X114960000Y-123700000D03*
D12*
%TO.P,J9,2,Pin_2*%
%TO.N,+5V*%
X117500000Y-123700000D03*
%TO.P,J9,3,Pin_3*%
%TO.N,GND*%
X120040000Y-123700000D03*
%TD*%
D24*
%TO.N,DTR*%
X189162500Y-73500000D03*
X181500000Y-76300000D03*
D25*
%TO.N,GND*%
X190100000Y-63000000D03*
X128000000Y-89800000D03*
X140050000Y-128500000D03*
X126900000Y-117400000D03*
X196100000Y-107100000D03*
X188950000Y-113250000D03*
X163000000Y-114500000D03*
X140800000Y-101800000D03*
X185200000Y-62900000D03*
X119850002Y-96522183D03*
X151620000Y-99795000D03*
X147700000Y-92300000D03*
X172500000Y-86200000D03*
X128200000Y-120900000D03*
X185900000Y-61000000D03*
X163000000Y-119500000D03*
X142550000Y-128500000D03*
X189300000Y-123100000D03*
X150400000Y-87200000D03*
X140800000Y-104200000D03*
X128150002Y-104022183D03*
X120550002Y-95822183D03*
X187600000Y-62700000D03*
X120450002Y-103822183D03*
X120450002Y-103122183D03*
X119750002Y-103822183D03*
X120550002Y-96522183D03*
X157550000Y-128500000D03*
X180920000Y-66030000D03*
X121250002Y-96522183D03*
X187800000Y-68100000D03*
X137600000Y-119200000D03*
X155750000Y-109500000D03*
X121250002Y-95822183D03*
X186800000Y-123700000D03*
X119850002Y-95822183D03*
X146800000Y-91000000D03*
X163275000Y-128350000D03*
X178700000Y-123100000D03*
X132830000Y-126890000D03*
X177600000Y-66250000D03*
X155750000Y-112000000D03*
X189025000Y-106800000D03*
X135700000Y-122800000D03*
X129900000Y-106550000D03*
X188900000Y-63000000D03*
X121150002Y-103822183D03*
X128150002Y-95522183D03*
X121150002Y-103122183D03*
X143200000Y-124100000D03*
X196100000Y-113500000D03*
X176200000Y-123700000D03*
X151600000Y-97895000D03*
X119750002Y-103122183D03*
%TO.N,FPGA_INT*%
X154300000Y-106200000D03*
%TO.N,ESP32_SDA*%
X136700000Y-122175000D03*
%TO.N,/FPGA_LED_A*%
X162500000Y-118000000D03*
%TO.N,FPGA_GPIO*%
X155400000Y-106200000D03*
%TO.N,I2C2_INT*%
X144000000Y-118000000D03*
%TO.N,I2C3_INT*%
X144100000Y-119000000D03*
%TO.N,SERVO*%
X144900000Y-119600000D03*
%TO.N,SCL4*%
X137800000Y-128600000D03*
X188800000Y-123700000D03*
%TO.N,SDA4*%
X138400000Y-129200000D03*
X189800000Y-123700000D03*
%TO.N,SCL5*%
X137800000Y-127400000D03*
X178200000Y-123700000D03*
%TO.N,SDA5*%
X138400000Y-128000000D03*
X179200000Y-123700000D03*
%TO.N,ESP32_SCL*%
X134925000Y-123475000D03*
%TO.N,+3V3*%
X165500000Y-96500000D03*
X165500000Y-90500000D03*
X146500000Y-107000000D03*
X171500000Y-96500000D03*
X174500000Y-90500000D03*
X188500000Y-77500000D03*
X133000000Y-96500000D03*
X122500000Y-92000000D03*
X139000000Y-93500000D03*
X168500000Y-87500000D03*
X174500000Y-93500000D03*
X148000000Y-108500000D03*
X155000000Y-114000000D03*
X142000000Y-93500000D03*
X189500000Y-80500000D03*
X154000000Y-107000000D03*
X146500000Y-108500000D03*
X133000000Y-102500000D03*
X130000000Y-99500000D03*
X168500000Y-93500000D03*
X167000000Y-92000000D03*
X170000000Y-98000000D03*
X136000000Y-99500000D03*
X153000000Y-114000000D03*
X153000000Y-97000000D03*
X134500000Y-101000000D03*
X164000000Y-92000000D03*
X170000000Y-89000000D03*
X154000000Y-115000000D03*
X170000000Y-95000000D03*
X130000000Y-93500000D03*
X136000000Y-96500000D03*
X153000000Y-116000000D03*
X188500000Y-83500000D03*
X152500000Y-108500000D03*
X182200000Y-79700000D03*
X133000000Y-93500000D03*
X128500000Y-92000000D03*
X152000000Y-115000000D03*
X153000000Y-95000000D03*
X137500000Y-123000000D03*
X177600000Y-69300000D03*
X149500000Y-108500000D03*
X187500000Y-117000000D03*
X134500000Y-95000000D03*
X184300000Y-64300000D03*
X182500000Y-64100000D03*
X173000000Y-95000000D03*
X186500000Y-77500000D03*
X134500000Y-92000000D03*
X162500000Y-93500000D03*
X168500000Y-96500000D03*
X137500000Y-98000000D03*
X140500000Y-95000000D03*
X127000000Y-108000000D03*
X130000000Y-90500000D03*
X131500000Y-95000000D03*
X173000000Y-89000000D03*
X154000000Y-108500000D03*
X127000000Y-93500000D03*
X125500000Y-92000000D03*
X131500000Y-104000000D03*
X152000000Y-94000000D03*
X131500000Y-101000000D03*
X148000000Y-107000000D03*
X134500000Y-98000000D03*
X137500000Y-95000000D03*
X140500000Y-92000000D03*
X137500000Y-92000000D03*
X159500000Y-90500000D03*
X189500000Y-84500000D03*
X127000000Y-90500000D03*
X151000000Y-108500000D03*
X148000000Y-105500000D03*
X173000000Y-92000000D03*
X153000000Y-102500000D03*
X167000000Y-95000000D03*
X189500000Y-78500000D03*
X171500000Y-93500000D03*
X167000000Y-101000000D03*
X187500000Y-82500000D03*
X188500000Y-81500000D03*
X139000000Y-120400000D03*
X151000000Y-116000000D03*
X168500000Y-99500000D03*
X189500000Y-82500000D03*
X152500000Y-107000000D03*
X187500000Y-78500000D03*
X152000000Y-96000000D03*
X164000000Y-95000000D03*
X188500000Y-79500000D03*
X186500000Y-81500000D03*
X174500000Y-87500000D03*
X187500000Y-80500000D03*
X171500000Y-87500000D03*
X168500000Y-90500000D03*
X131500000Y-98000000D03*
X165500000Y-93500000D03*
X149500000Y-107000000D03*
X167000000Y-98000000D03*
X135712500Y-121412500D03*
X151000000Y-107000000D03*
X155500000Y-108500000D03*
X130000000Y-105500000D03*
X161000000Y-92000000D03*
X133000000Y-99500000D03*
X145000000Y-108500000D03*
X170000000Y-92000000D03*
X130000000Y-96500000D03*
X171500000Y-90500000D03*
X124000000Y-90500000D03*
X131500000Y-92000000D03*
X186000000Y-118500000D03*
X136000000Y-93500000D03*
X155000000Y-116000000D03*
X162500000Y-90500000D03*
X186500000Y-79500000D03*
%TO.N,BATT{slash}4*%
X171700000Y-120300000D03*
X173000000Y-97200000D03*
%TO.N,VBUS{slash}2*%
X168400000Y-117900000D03*
X174100000Y-97200000D03*
X174100000Y-100300000D03*
X170500000Y-120300000D03*
%TO.N,/REGOUT*%
X148500000Y-86300000D03*
X148500000Y-87500000D03*
%TO.N,+BATT*%
X125150002Y-102422183D03*
X125150002Y-97122183D03*
%TO.N,MOTOR2_STEP*%
X160250000Y-118350000D03*
%TO.N,MOTOR2_DIR*%
X160280000Y-119620000D03*
%TO.N,MOTOR1_STEP*%
X146750000Y-85500000D03*
X140000000Y-113200000D03*
%TO.N,MOTOR1_DIR*%
X140000000Y-114500000D03*
%TO.N,IO0*%
X189800000Y-109300000D03*
X140000000Y-112000000D03*
%TO.N,IMU_INT*%
X141100000Y-108600000D03*
X141100000Y-107200000D03*
%TO.N,ESP32_RX*%
X142700000Y-123450000D03*
X186950000Y-68375500D03*
%TO.N,ESP32_TX*%
X142700000Y-124700000D03*
X188386450Y-68713550D03*
%TO.N,SDA0*%
X179800000Y-99650000D03*
%TO.N,/CC1*%
X186150000Y-58700000D03*
X188900000Y-60400000D03*
%TO.N,/CC2*%
X190100000Y-60400000D03*
%TO.N,/DP*%
X184750000Y-62202512D03*
X184900000Y-58700000D03*
%TO.N,/DN*%
X185247488Y-61700000D03*
%TO.N,SDA2*%
X127800000Y-115000000D03*
%TO.N,SCL2*%
X125700000Y-114200000D03*
%TO.N,SDA3*%
X127737500Y-118262500D03*
%TO.N,SCL3*%
X125700000Y-117400000D03*
%TO.N,MOTOR_EN*%
X152600000Y-84700000D03*
X160030000Y-81500000D03*
X145700000Y-85200000D03*
X134030000Y-81500000D03*
%TO.N,/SW3*%
X126000000Y-89000000D03*
%TD*%
D26*
%TO.N,DTR*%
X189162500Y-73500000D02*
X184300000Y-73500000D01*
X184300000Y-73500000D02*
X181500000Y-76300000D01*
D27*
%TO.N,FPGA_INT*%
X154300000Y-94500000D02*
X154300000Y-106200000D01*
X138245000Y-67025000D02*
X145950000Y-67025000D01*
X148200000Y-69275000D02*
X148200000Y-85200000D01*
X148200000Y-85200000D02*
X149500000Y-86500000D01*
X149500000Y-86500000D02*
X149500000Y-89700000D01*
X134960000Y-63740000D02*
X138245000Y-67025000D01*
X145950000Y-67025000D02*
X148200000Y-69275000D01*
X149500000Y-89700000D02*
X154300000Y-94500000D01*
%TO.N,ESP32_SDA*%
X127340000Y-63740000D02*
X124200000Y-66880000D01*
X133700000Y-120600000D02*
X135275000Y-122175000D01*
X124200000Y-83600000D02*
X133700000Y-93100000D01*
X133700000Y-93100000D02*
X133700000Y-120600000D01*
X135275000Y-122175000D02*
X136700000Y-122175000D01*
X124200000Y-66880000D02*
X124200000Y-83600000D01*
%TO.N,/FPGA_LED_A*%
X141700000Y-65400000D02*
X147175000Y-65400000D01*
X140040000Y-63740000D02*
X141700000Y-65400000D01*
X149600000Y-84500000D02*
X156500000Y-91400000D01*
X159350000Y-120750000D02*
X160500000Y-120750000D01*
X160500000Y-120750000D02*
X162500000Y-118750000D01*
X149600000Y-67825000D02*
X149600000Y-84500000D01*
X147175000Y-65400000D02*
X149600000Y-67825000D01*
X162500000Y-118750000D02*
X162500000Y-118000000D01*
X156500000Y-91400000D02*
X156500000Y-117900000D01*
X156500000Y-117900000D02*
X159350000Y-120750000D01*
%TO.N,FPGA_GPIO*%
X148900000Y-68500000D02*
X148900000Y-84800000D01*
X155400000Y-91300000D02*
X155400000Y-106200000D01*
X139935000Y-66175000D02*
X146575000Y-66175000D01*
X148900000Y-84800000D02*
X155400000Y-91300000D01*
X146575000Y-66175000D02*
X148900000Y-68500000D01*
X137500000Y-63740000D02*
X139935000Y-66175000D01*
%TO.N,MOTOR2_STEP_IN*%
X162600000Y-95500000D02*
X151000000Y-83900000D01*
X151000000Y-73950000D02*
X152450000Y-72500000D01*
X162600000Y-98900000D02*
X162600000Y-95500000D01*
X151000000Y-83900000D02*
X151000000Y-73950000D01*
X153790000Y-72500000D02*
X155650000Y-70640000D01*
X152450000Y-72500000D02*
X153790000Y-72500000D01*
%TO.N,I2C2_INT*%
X134242463Y-124000000D02*
X138000000Y-124000000D01*
X112000000Y-100750000D02*
X112000000Y-102800000D01*
X126042463Y-115800000D02*
X134242463Y-124000000D01*
X138000000Y-124000000D02*
X144000000Y-118000000D01*
X125000000Y-115800000D02*
X126042463Y-115800000D01*
X112000000Y-102800000D02*
X125000000Y-115800000D01*
%TO.N,I2C3_INT*%
X128000000Y-124700000D02*
X138400000Y-124700000D01*
X104500000Y-100745000D02*
X108400000Y-104645000D01*
X108400000Y-113700000D02*
X110900000Y-116200000D01*
X119500000Y-116200000D02*
X128000000Y-124700000D01*
X108400000Y-104645000D02*
X108400000Y-113700000D01*
X110900000Y-116200000D02*
X119500000Y-116200000D01*
X138400000Y-124700000D02*
X144100000Y-119000000D01*
%TO.N,SERVO*%
X114960000Y-123700000D02*
X119035000Y-127775000D01*
X136682537Y-127775000D02*
X144857537Y-119600000D01*
X119035000Y-127775000D02*
X136682537Y-127775000D01*
X144857537Y-119600000D02*
X144900000Y-119600000D01*
%TO.N,SCL4*%
X139500000Y-128000000D02*
X139800000Y-127700000D01*
X150800000Y-127700000D02*
X184800000Y-127700000D01*
X137800000Y-128600000D02*
X138900000Y-128600000D01*
X139800000Y-127700000D02*
X150800000Y-127700000D01*
X184800000Y-127700000D02*
X188800000Y-123700000D01*
X138900000Y-128600000D02*
X139500000Y-128000000D01*
%TO.N,SDA4*%
X189800000Y-123700000D02*
X184300000Y-129200000D01*
X184300000Y-129200000D02*
X138400000Y-129200000D01*
%TO.N,SCL5*%
X138900000Y-126300000D02*
X177300000Y-126300000D01*
X137800000Y-127400000D02*
X138900000Y-126300000D01*
X178200000Y-125400000D02*
X178200000Y-123700000D01*
X177300000Y-126300000D02*
X178200000Y-125400000D01*
%TO.N,SDA5*%
X179200000Y-123700000D02*
X179200000Y-125500000D01*
X179200000Y-125500000D02*
X177700000Y-127000000D01*
X177700000Y-127000000D02*
X139400000Y-127000000D01*
X139400000Y-127000000D02*
X138400000Y-128000000D01*
%TO.N,ESP32_SCL*%
X123100000Y-65800000D02*
X123100000Y-83600000D01*
X123100000Y-83600000D02*
X128525000Y-89025000D01*
X128525000Y-90025000D02*
X132100000Y-93600000D01*
X132100000Y-120650000D02*
X134925000Y-123475000D01*
X128525000Y-89025000D02*
X128525000Y-90025000D01*
X132100000Y-93600000D02*
X132100000Y-120650000D01*
X124800000Y-64100000D02*
X123100000Y-65800000D01*
X124800000Y-63740000D02*
X124800000Y-64100000D01*
D26*
%TO.N,+3V3*%
X184100000Y-64100000D02*
X184300000Y-64300000D01*
X182500000Y-64100000D02*
X184100000Y-64100000D01*
D27*
%TO.N,BATT{slash}4*%
X173000000Y-97200000D02*
X171700000Y-98500000D01*
X171700000Y-98500000D02*
X171700000Y-120300000D01*
%TO.N,VBUS{slash}2*%
X170500000Y-120000000D02*
X170500000Y-120300000D01*
X174100000Y-97200000D02*
X174100000Y-100300000D01*
X168400000Y-117900000D02*
X170500000Y-120000000D01*
%TO.N,/REGOUT*%
X148500000Y-87500000D02*
X148500000Y-86300000D01*
%TO.N,MOTOR2_STEP*%
X165140000Y-113460000D02*
X165140000Y-98900000D01*
X160250000Y-118350000D02*
X165140000Y-113460000D01*
%TO.N,MOTOR2_DIR*%
X157400000Y-91200000D02*
X150300000Y-84100000D01*
X157400000Y-116740000D02*
X157400000Y-91200000D01*
X160280000Y-119620000D02*
X157400000Y-116740000D01*
X150300000Y-84100000D02*
X150300000Y-73450000D01*
X150300000Y-73450000D02*
X153110000Y-70640000D01*
%TO.N,MOTOR1_STEP*%
X145500000Y-68600000D02*
X131690000Y-68600000D01*
X145500000Y-93565686D02*
X148700000Y-96765686D01*
X146750000Y-85500000D02*
X146750000Y-69850000D01*
X144400000Y-113200000D02*
X140000000Y-113200000D01*
X148700000Y-108900000D02*
X144400000Y-113200000D01*
X145500000Y-86750000D02*
X145500000Y-93565686D01*
X131690000Y-68600000D02*
X129650000Y-70640000D01*
X146750000Y-69850000D02*
X145500000Y-68600000D01*
X146750000Y-85500000D02*
X145500000Y-86750000D01*
X148700000Y-96765686D02*
X148700000Y-108900000D01*
%TO.N,MOTOR1_DIR*%
X144600000Y-114500000D02*
X150200000Y-108900000D01*
X150200000Y-97200000D02*
X146275000Y-93275000D01*
X147500000Y-69600000D02*
X145700000Y-67800000D01*
X129950000Y-67800000D02*
X127110000Y-70640000D01*
X150200000Y-108900000D02*
X150200000Y-97200000D01*
X146275000Y-87125000D02*
X147500000Y-85900000D01*
X145700000Y-67800000D02*
X129950000Y-67800000D01*
X147500000Y-85900000D02*
X147500000Y-69600000D01*
X146275000Y-93275000D02*
X146275000Y-87125000D01*
X140000000Y-114500000D02*
X144600000Y-114500000D01*
%TO.N,IO0*%
X189800000Y-109300000D02*
X189800000Y-116600000D01*
X152700000Y-117800000D02*
X145800000Y-117800000D01*
X156500000Y-121600000D02*
X152700000Y-117800000D01*
X140200000Y-116825000D02*
X139125000Y-115750000D01*
X144825000Y-116825000D02*
X140200000Y-116825000D01*
X189800000Y-116600000D02*
X186800000Y-119600000D01*
X139125000Y-115750000D02*
X139125000Y-112875000D01*
X171800000Y-121600000D02*
X156500000Y-121600000D01*
X145800000Y-117800000D02*
X144825000Y-116825000D01*
X139125000Y-112875000D02*
X140000000Y-112000000D01*
X186800000Y-119600000D02*
X173800000Y-119600000D01*
X173800000Y-119600000D02*
X171800000Y-121600000D01*
%TO.N,IMU_INT*%
X141100000Y-107200000D02*
X141100000Y-108600000D01*
%TO.N,ESP32_RX*%
X187300000Y-120600000D02*
X174500000Y-120600000D01*
X186950000Y-68442463D02*
X191000000Y-72492463D01*
X186950000Y-68375500D02*
X171595500Y-68375500D01*
X191000000Y-116900000D02*
X187300000Y-120600000D01*
X144000000Y-124000000D02*
X143450000Y-123450000D01*
X171100000Y-124000000D02*
X144000000Y-124000000D01*
X171595500Y-68375500D02*
X166960000Y-63740000D01*
X191000000Y-72492463D02*
X191000000Y-116900000D01*
X186950000Y-68375500D02*
X186950000Y-68442463D01*
X174500000Y-120600000D02*
X171100000Y-124000000D01*
X143450000Y-123450000D02*
X142700000Y-123450000D01*
%TO.N,ESP32_TX*%
X188386450Y-68713550D02*
X188386450Y-67886450D01*
X187750000Y-67250000D02*
X173010000Y-67250000D01*
X192200000Y-72527099D02*
X192200000Y-117100000D01*
X172000000Y-124700000D02*
X142700000Y-124700000D01*
X192200000Y-117100000D02*
X187700000Y-121600000D01*
X175100000Y-121600000D02*
X172000000Y-124700000D01*
X188386450Y-68713550D02*
X192200000Y-72527099D01*
X188386450Y-67886450D02*
X187750000Y-67250000D01*
X173010000Y-67250000D02*
X169500000Y-63740000D01*
X187700000Y-121600000D02*
X175100000Y-121600000D01*
%TO.N,SDA0*%
X180425000Y-99025000D02*
X188225000Y-99025000D01*
X188225000Y-99025000D02*
X189500000Y-97750000D01*
X179800000Y-99650000D02*
X180425000Y-99025000D01*
%TO.N,/CC1*%
X186150000Y-58700000D02*
X187200000Y-58700000D01*
X187200000Y-58700000D02*
X188900000Y-60400000D01*
%TO.N,/CC2*%
X185890000Y-54500000D02*
X190200000Y-54500000D01*
X190900000Y-55200000D02*
X190900000Y-59600000D01*
X190200000Y-54500000D02*
X190900000Y-55200000D01*
X184600000Y-55790000D02*
X185890000Y-54500000D01*
X190900000Y-59600000D02*
X190100000Y-60400000D01*
D28*
%TO.N,/DP*%
X184750000Y-62202512D02*
X184750000Y-61350000D01*
X184900000Y-61200000D02*
X184900000Y-56590000D01*
X184750000Y-61350000D02*
X184900000Y-61200000D01*
X184900000Y-56590000D02*
X185000000Y-56490000D01*
%TO.N,/DN*%
X185247488Y-61700000D02*
X185247488Y-59102512D01*
X185375000Y-58400000D02*
X185250000Y-58275000D01*
X185247488Y-59102512D02*
X185375000Y-58975000D01*
X185250000Y-58275000D02*
X185250000Y-57040000D01*
X185250000Y-57040000D02*
X185800000Y-56490000D01*
X185375000Y-58975000D02*
X185375000Y-58400000D01*
D27*
%TO.N,SDA2*%
X125500000Y-115000000D02*
X124700000Y-114200000D01*
X124700000Y-114200000D02*
X124700000Y-111500000D01*
X124700000Y-111500000D02*
X112000000Y-98800000D01*
X127800000Y-115000000D02*
X125500000Y-115000000D01*
X112000000Y-98800000D02*
X112000000Y-98210000D01*
%TO.N,SCL2*%
X125700000Y-114200000D02*
X125800000Y-114100000D01*
X125800000Y-114100000D02*
X125800000Y-111300000D01*
X125800000Y-111300000D02*
X116300000Y-101800000D01*
X112000000Y-95900000D02*
X112000000Y-95670000D01*
X116300000Y-101800000D02*
X116300000Y-100200000D01*
X116300000Y-100200000D02*
X112000000Y-95900000D01*
%TO.N,SDA3*%
X124762500Y-118262500D02*
X104705000Y-98205000D01*
X104705000Y-98205000D02*
X104500000Y-98205000D01*
X127737500Y-118262500D02*
X124762500Y-118262500D01*
%TO.N,SCL3*%
X125400000Y-117400000D02*
X104500000Y-96500000D01*
X104500000Y-96500000D02*
X104500000Y-95665000D01*
X125700000Y-117400000D02*
X125400000Y-117400000D01*
D26*
%TO.N,MOTOR_EN*%
X158000000Y-81500000D02*
X160030000Y-81500000D01*
X156900000Y-84300000D02*
X156900000Y-82600000D01*
D27*
X141100000Y-84500000D02*
X141800000Y-85200000D01*
X134030000Y-81500000D02*
X140400000Y-81500000D01*
X140400000Y-81500000D02*
X141100000Y-82200000D01*
X141800000Y-85200000D02*
X145700000Y-85200000D01*
X141100000Y-82200000D02*
X141100000Y-84500000D01*
D26*
X156900000Y-82600000D02*
X158000000Y-81500000D01*
X152600000Y-84700000D02*
X156500000Y-84700000D01*
X156500000Y-84700000D02*
X156900000Y-84300000D01*
D27*
%TO.N,/SW3*%
X126000000Y-88500000D02*
X121900000Y-84400000D01*
X121900000Y-76251500D02*
X118850000Y-73201500D01*
X126000000Y-89000000D02*
X126000000Y-88500000D01*
X121900000Y-84400000D02*
X121900000Y-76251500D01*
%TD*%
%TA.AperFunction,Conductor*%
%TO.N,/VIN*%
G36*
X117506922Y-50501280D02*
G01*
X117597266Y-50511459D01*
X117624331Y-50517636D01*
X117703540Y-50545352D01*
X117728553Y-50557398D01*
X117799606Y-50602043D01*
X117821313Y-50619355D01*
X117880644Y-50678686D01*
X117897957Y-50700395D01*
X117942600Y-50771444D01*
X117954648Y-50796462D01*
X117982362Y-50875666D01*
X117988540Y-50902735D01*
X117998720Y-50993077D01*
X117999500Y-51006962D01*
X117999500Y-58612673D01*
X118000000Y-58619664D01*
X118000000Y-64448638D01*
X117990561Y-64496091D01*
X117963681Y-64536319D01*
X117536319Y-64963681D01*
X117496091Y-64990561D01*
X117448638Y-65000000D01*
X101051362Y-65000000D01*
X101003909Y-64990561D01*
X100963681Y-64963681D01*
X100536819Y-64536819D01*
X100509939Y-64496591D01*
X100500500Y-64449138D01*
X100500500Y-63423657D01*
X107383448Y-63423657D01*
X107567045Y-63523909D01*
X107835100Y-63623889D01*
X108114642Y-63684699D01*
X108400000Y-63705109D01*
X108685357Y-63684699D01*
X108964899Y-63623889D01*
X109232954Y-63523909D01*
X109416550Y-63423658D01*
X109416550Y-63423657D01*
X108400000Y-62407107D01*
X107383448Y-63423657D01*
X100500500Y-63423657D01*
X100500500Y-61700000D01*
X106394890Y-61700000D01*
X106415300Y-61985357D01*
X106476111Y-62264902D01*
X106576088Y-62532952D01*
X106676341Y-62716550D01*
X107692893Y-61700001D01*
X109107107Y-61700001D01*
X110123657Y-62716550D01*
X110123658Y-62716550D01*
X110223909Y-62532954D01*
X110323889Y-62264899D01*
X110384699Y-61985357D01*
X110405109Y-61700000D01*
X110384699Y-61414642D01*
X110323889Y-61135100D01*
X110223909Y-60867045D01*
X110123657Y-60683448D01*
X109107107Y-61700000D01*
X109107107Y-61700001D01*
X107692893Y-61700001D01*
X107692893Y-61699999D01*
X106676341Y-60683448D01*
X106676339Y-60683448D01*
X106576090Y-60867043D01*
X106476111Y-61135097D01*
X106415300Y-61414642D01*
X106394890Y-61700000D01*
X100500500Y-61700000D01*
X100500500Y-59976341D01*
X107383448Y-59976341D01*
X108400000Y-60992893D01*
X108400001Y-60992893D01*
X109416550Y-59976341D01*
X109416550Y-59976340D01*
X109232952Y-59876088D01*
X108964902Y-59776111D01*
X108685357Y-59715300D01*
X108400000Y-59694890D01*
X108114642Y-59715300D01*
X107835097Y-59776111D01*
X107567043Y-59876090D01*
X107383448Y-59976339D01*
X107383448Y-59976341D01*
X100500500Y-59976341D01*
X100500500Y-55466779D01*
X100513712Y-55411083D01*
X100550532Y-55367256D01*
X100603115Y-55344637D01*
X100660254Y-55348046D01*
X100709775Y-55376756D01*
X100860161Y-55519210D01*
X100976284Y-55607484D01*
X101145081Y-55735800D01*
X101451747Y-55920315D01*
X101776565Y-56070591D01*
X102115726Y-56184868D01*
X102465254Y-56261805D01*
X102786151Y-56296704D01*
X102821051Y-56300500D01*
X102821052Y-56300500D01*
X103178948Y-56300500D01*
X103178949Y-56300500D01*
X103210730Y-56297043D01*
X103534746Y-56261805D01*
X103884274Y-56184868D01*
X104223435Y-56070591D01*
X104548253Y-55920315D01*
X104854919Y-55735800D01*
X104870893Y-55723657D01*
X108443448Y-55723657D01*
X108627045Y-55823909D01*
X108895100Y-55923889D01*
X109174642Y-55984699D01*
X109460000Y-56005109D01*
X109745357Y-55984699D01*
X110024899Y-55923889D01*
X110292954Y-55823909D01*
X110476550Y-55723658D01*
X110476550Y-55723657D01*
X110300762Y-55547869D01*
X112539500Y-55547869D01*
X112545909Y-55607483D01*
X112596204Y-55742331D01*
X112682454Y-55857546D01*
X112797669Y-55943796D01*
X112932517Y-55994091D01*
X112992127Y-56000500D01*
X116087872Y-56000499D01*
X116147483Y-55994091D01*
X116282331Y-55943796D01*
X116397546Y-55857546D01*
X116483796Y-55742331D01*
X116534091Y-55607483D01*
X116540500Y-55547873D01*
X116540499Y-52452128D01*
X116534091Y-52392517D01*
X116483796Y-52257669D01*
X116397546Y-52142454D01*
X116282331Y-52056204D01*
X116147483Y-52005909D01*
X116087873Y-51999500D01*
X116087869Y-51999500D01*
X112992130Y-51999500D01*
X112932515Y-52005909D01*
X112797669Y-52056204D01*
X112682454Y-52142454D01*
X112596204Y-52257668D01*
X112545909Y-52392516D01*
X112539500Y-52452130D01*
X112539500Y-55547869D01*
X110300762Y-55547869D01*
X109460000Y-54707107D01*
X108443448Y-55723657D01*
X104870893Y-55723657D01*
X105139837Y-55519211D01*
X105399668Y-55273086D01*
X105631365Y-55000311D01*
X105832211Y-54704085D01*
X105924597Y-54529826D01*
X105999853Y-54387881D01*
X106132325Y-54055401D01*
X106147707Y-54000000D01*
X107454890Y-54000000D01*
X107475300Y-54285357D01*
X107536111Y-54564902D01*
X107636088Y-54832952D01*
X107736341Y-55016550D01*
X108752893Y-54000001D01*
X110167107Y-54000001D01*
X111183657Y-55016550D01*
X111183658Y-55016550D01*
X111283909Y-54832954D01*
X111383889Y-54564899D01*
X111444699Y-54285357D01*
X111465109Y-54000000D01*
X111444699Y-53714642D01*
X111383889Y-53435100D01*
X111283909Y-53167045D01*
X111183657Y-52983448D01*
X110167107Y-54000000D01*
X110167107Y-54000001D01*
X108752893Y-54000001D01*
X108752893Y-53999999D01*
X107736341Y-52983448D01*
X107736339Y-52983448D01*
X107636090Y-53167043D01*
X107536111Y-53435097D01*
X107475300Y-53714642D01*
X107454890Y-54000000D01*
X106147707Y-54000000D01*
X106228069Y-53710559D01*
X106228068Y-53710559D01*
X106228071Y-53710552D01*
X106285972Y-53357371D01*
X106305348Y-53000000D01*
X106285972Y-52642629D01*
X106228071Y-52289448D01*
X106224432Y-52276341D01*
X108443448Y-52276341D01*
X109460000Y-53292893D01*
X109460001Y-53292893D01*
X110476550Y-52276341D01*
X110476550Y-52276340D01*
X110292952Y-52176088D01*
X110024902Y-52076111D01*
X109745357Y-52015300D01*
X109460000Y-51994890D01*
X109174642Y-52015300D01*
X108895097Y-52076111D01*
X108627043Y-52176090D01*
X108443448Y-52276339D01*
X108443448Y-52276341D01*
X106224432Y-52276341D01*
X106224432Y-52276340D01*
X106132325Y-51944598D01*
X105999853Y-51612118D01*
X105832213Y-51295919D01*
X105832211Y-51295915D01*
X105631365Y-50999689D01*
X105631363Y-50999686D01*
X105481821Y-50823633D01*
X105399668Y-50726914D01*
X105399666Y-50726912D01*
X105386587Y-50714522D01*
X105354789Y-50665363D01*
X105349091Y-50607094D01*
X105370762Y-50552705D01*
X105414971Y-50514322D01*
X105471863Y-50500500D01*
X117434108Y-50500500D01*
X117493038Y-50500500D01*
X117506922Y-50501280D01*
G37*
%TD.AperFunction*%
%TD*%
%TA.AperFunction,Conductor*%
%TO.N,+3V3*%
G36*
X159049299Y-65008484D02*
G01*
X159113308Y-65025635D01*
X159340000Y-65045468D01*
X159566692Y-65025635D01*
X159630700Y-65008484D01*
X159695146Y-65000000D01*
X161524854Y-65000000D01*
X161589299Y-65008484D01*
X161653308Y-65025635D01*
X161880000Y-65045468D01*
X162106692Y-65025635D01*
X162170700Y-65008484D01*
X162235146Y-65000000D01*
X164064854Y-65000000D01*
X164129299Y-65008484D01*
X164193308Y-65025635D01*
X164420000Y-65045468D01*
X164646692Y-65025635D01*
X164710700Y-65008484D01*
X164775146Y-65000000D01*
X166574989Y-65000000D01*
X166654874Y-65013162D01*
X166806940Y-65064671D01*
X167702307Y-65367957D01*
X167753839Y-65392300D01*
X167798489Y-65427724D01*
X171131512Y-68760747D01*
X171152987Y-68785236D01*
X171167218Y-68803782D01*
X171261349Y-68876011D01*
X171292659Y-68900036D01*
X171292660Y-68900036D01*
X171305847Y-68910155D01*
X171366735Y-68977863D01*
X171380029Y-69012690D01*
X171459708Y-68978921D01*
X171547426Y-68974853D01*
X171570072Y-68977834D01*
X171595498Y-68981182D01*
X171595499Y-68981181D01*
X171595500Y-68981182D01*
X171618683Y-68978129D01*
X171651183Y-68976000D01*
X186373655Y-68976000D01*
X186444424Y-68986268D01*
X186596652Y-69031394D01*
X186668719Y-69066168D01*
X186836917Y-69183961D01*
X186870151Y-69211849D01*
X189927070Y-72268768D01*
X189981046Y-72349550D01*
X190000000Y-72444838D01*
X190000000Y-72506711D01*
X189983461Y-72595945D01*
X189936042Y-72673326D01*
X189864042Y-72728573D01*
X189777025Y-72754347D01*
X189686551Y-72747226D01*
X189639829Y-72724940D01*
X189639138Y-72726494D01*
X189615231Y-72715850D01*
X189615230Y-72715849D01*
X189442303Y-72638856D01*
X189257146Y-72599500D01*
X189067854Y-72599500D01*
X188924908Y-72629883D01*
X188882692Y-72638857D01*
X188867106Y-72645796D01*
X188831150Y-72658601D01*
X188820103Y-72661603D01*
X188299470Y-72858414D01*
X188211424Y-72874500D01*
X184396544Y-72874500D01*
X184372978Y-72871898D01*
X184294100Y-72874377D01*
X184286279Y-72874500D01*
X184259528Y-72874500D01*
X184239140Y-72876103D01*
X184201375Y-72877290D01*
X184195052Y-72879127D01*
X184191585Y-72880134D01*
X184153329Y-72888057D01*
X184143208Y-72889335D01*
X184108075Y-72903245D01*
X184085892Y-72910840D01*
X184049611Y-72921381D01*
X184040827Y-72926576D01*
X184005758Y-72943756D01*
X183996267Y-72947513D01*
X183965704Y-72969719D01*
X183946103Y-72982595D01*
X183913579Y-73001830D01*
X183906365Y-73009044D01*
X183876669Y-73034406D01*
X183868415Y-73040403D01*
X183844338Y-73069507D01*
X183828552Y-73086856D01*
X181730216Y-75185191D01*
X181656584Y-75236074D01*
X181149272Y-75465054D01*
X181117997Y-75482964D01*
X181095547Y-75494353D01*
X181047272Y-75515847D01*
X180894128Y-75627112D01*
X180767468Y-75767782D01*
X180672819Y-75931719D01*
X180614326Y-76111743D01*
X180594540Y-76300000D01*
X180614326Y-76488256D01*
X180672819Y-76668280D01*
X180672820Y-76668282D01*
X180672821Y-76668284D01*
X180767467Y-76832216D01*
X180894129Y-76972888D01*
X181047270Y-77084151D01*
X181220197Y-77161144D01*
X181405354Y-77200500D01*
X181594645Y-77200500D01*
X181594646Y-77200500D01*
X181779803Y-77161144D01*
X181952730Y-77084151D01*
X182105871Y-76972888D01*
X182232533Y-76832216D01*
X182327179Y-76668284D01*
X182327180Y-76668279D01*
X182329385Y-76664461D01*
X182333222Y-76654542D01*
X182371769Y-76569139D01*
X182563921Y-76143415D01*
X182614801Y-76069787D01*
X184486160Y-74198430D01*
X184566942Y-74144454D01*
X184662230Y-74125500D01*
X188211426Y-74125500D01*
X188299472Y-74141586D01*
X188676607Y-74284151D01*
X188820100Y-74338394D01*
X188831123Y-74341389D01*
X188867109Y-74354204D01*
X188882696Y-74361144D01*
X189067854Y-74400500D01*
X189257145Y-74400500D01*
X189257146Y-74400500D01*
X189442303Y-74361144D01*
X189615230Y-74284151D01*
X189615231Y-74284149D01*
X189639138Y-74273506D01*
X189639829Y-74275059D01*
X189686551Y-74252774D01*
X189777025Y-74245653D01*
X189864042Y-74271427D01*
X189936042Y-74326674D01*
X189983461Y-74404055D01*
X190000000Y-74493289D01*
X190000000Y-91086350D01*
X189986434Y-91167417D01*
X189947215Y-91239650D01*
X189886615Y-91295179D01*
X189811238Y-91327954D01*
X189729298Y-91334402D01*
X189499999Y-91314340D01*
X189264597Y-91334935D01*
X189036336Y-91396097D01*
X188822167Y-91495966D01*
X188628602Y-91631502D01*
X188461502Y-91798602D01*
X188325966Y-91992167D01*
X188226097Y-92206336D01*
X188164935Y-92434597D01*
X188144340Y-92670000D01*
X188164935Y-92905402D01*
X188226097Y-93133663D01*
X188325966Y-93347833D01*
X188461502Y-93541398D01*
X188628599Y-93708495D01*
X188667924Y-93736031D01*
X188733932Y-93804385D01*
X188769528Y-93892488D01*
X188769528Y-93987510D01*
X188733933Y-94075614D01*
X188667926Y-94143967D01*
X188628603Y-94171501D01*
X188461502Y-94338602D01*
X188325966Y-94532167D01*
X188226097Y-94746336D01*
X188164935Y-94974597D01*
X188144340Y-95209999D01*
X188164935Y-95445402D01*
X188226097Y-95673663D01*
X188325966Y-95887833D01*
X188461502Y-96081398D01*
X188628599Y-96248495D01*
X188667924Y-96276031D01*
X188733932Y-96344385D01*
X188769528Y-96432488D01*
X188769528Y-96527510D01*
X188733933Y-96615614D01*
X188667926Y-96683967D01*
X188628603Y-96711501D01*
X188461502Y-96878602D01*
X188325966Y-97072167D01*
X188226095Y-97286341D01*
X188220601Y-97306845D01*
X188216216Y-97321414D01*
X187903935Y-98254524D01*
X187868283Y-98323184D01*
X187813279Y-98377587D01*
X187744232Y-98412482D01*
X187667807Y-98424500D01*
X183541912Y-98424500D01*
X183452678Y-98407962D01*
X183375299Y-98360543D01*
X183320051Y-98288544D01*
X183294276Y-98201528D01*
X183301395Y-98111057D01*
X183335063Y-97985408D01*
X183337440Y-97958248D01*
X183355659Y-97749999D01*
X183335064Y-97514597D01*
X183335063Y-97514592D01*
X183273903Y-97286337D01*
X183174035Y-97072171D01*
X183174034Y-97072170D01*
X183174033Y-97072167D01*
X183038495Y-96878599D01*
X182871402Y-96711505D01*
X182832077Y-96683970D01*
X182766068Y-96615616D01*
X182730471Y-96527512D01*
X182730471Y-96432488D01*
X182766068Y-96344384D01*
X182832077Y-96276030D01*
X182833317Y-96275161D01*
X182871401Y-96248495D01*
X183038495Y-96081401D01*
X183174035Y-95887830D01*
X183273903Y-95673663D01*
X183335063Y-95445408D01*
X183355659Y-95210000D01*
X183354536Y-95197159D01*
X183335064Y-94974597D01*
X183335063Y-94974592D01*
X183273903Y-94746337D01*
X183174035Y-94532171D01*
X183174034Y-94532170D01*
X183174033Y-94532167D01*
X183038495Y-94338599D01*
X182871402Y-94171505D01*
X182832077Y-94143970D01*
X182766068Y-94075616D01*
X182730471Y-93987512D01*
X182730471Y-93892488D01*
X182766068Y-93804384D01*
X182832077Y-93736030D01*
X182833317Y-93735161D01*
X182871401Y-93708495D01*
X183038495Y-93541401D01*
X183174035Y-93347830D01*
X183273903Y-93133663D01*
X183335063Y-92905408D01*
X183355659Y-92670000D01*
X183355658Y-92669999D01*
X183335064Y-92434597D01*
X183287099Y-92255587D01*
X183273903Y-92206337D01*
X183174035Y-91992171D01*
X183174034Y-91992170D01*
X183174033Y-91992167D01*
X183038495Y-91798599D01*
X182871401Y-91631504D01*
X182677833Y-91495966D01*
X182463663Y-91396097D01*
X182235402Y-91334935D01*
X181999999Y-91314340D01*
X181764597Y-91334935D01*
X181536336Y-91396097D01*
X181322167Y-91495966D01*
X181128602Y-91631502D01*
X180961502Y-91798602D01*
X180825966Y-91992167D01*
X180726097Y-92206336D01*
X180664935Y-92434597D01*
X180644340Y-92670000D01*
X180664935Y-92905402D01*
X180726097Y-93133663D01*
X180825966Y-93347833D01*
X180961502Y-93541398D01*
X181128599Y-93708495D01*
X181167924Y-93736031D01*
X181233932Y-93804385D01*
X181269528Y-93892488D01*
X181269528Y-93987510D01*
X181233933Y-94075614D01*
X181167926Y-94143967D01*
X181128603Y-94171501D01*
X180961502Y-94338602D01*
X180825966Y-94532167D01*
X180726097Y-94746336D01*
X180664935Y-94974597D01*
X180644340Y-95209999D01*
X180664935Y-95445402D01*
X180726097Y-95673663D01*
X180825966Y-95887833D01*
X180961502Y-96081398D01*
X181128599Y-96248495D01*
X181167924Y-96276031D01*
X181233932Y-96344385D01*
X181269528Y-96432488D01*
X181269528Y-96527510D01*
X181233933Y-96615614D01*
X181167926Y-96683967D01*
X181128603Y-96711501D01*
X180961502Y-96878602D01*
X180825966Y-97072167D01*
X180726097Y-97286336D01*
X180664935Y-97514597D01*
X180644340Y-97749999D01*
X180664936Y-97985404D01*
X180697777Y-98107971D01*
X180704131Y-98204918D01*
X180672901Y-98296916D01*
X180608843Y-98369961D01*
X180521708Y-98412931D01*
X180425717Y-98419223D01*
X180295727Y-98436337D01*
X180268238Y-98439956D01*
X180123280Y-98500000D01*
X180122157Y-98500465D01*
X179996715Y-98596719D01*
X179982482Y-98615268D01*
X179961013Y-98639749D01*
X179782917Y-98817845D01*
X179725615Y-98860625D01*
X179481993Y-98992835D01*
X179481063Y-98993457D01*
X179475333Y-98997168D01*
X179344798Y-99079190D01*
X179229191Y-99194797D01*
X179142210Y-99333226D01*
X179088213Y-99487539D01*
X179069908Y-99650000D01*
X179088213Y-99812460D01*
X179132473Y-99938946D01*
X179142211Y-99966775D01*
X179229192Y-100105204D01*
X179344796Y-100220808D01*
X179483225Y-100307789D01*
X179637539Y-100361786D01*
X179800000Y-100380091D01*
X179962461Y-100361786D01*
X180116775Y-100307789D01*
X180255204Y-100220808D01*
X180255206Y-100220805D01*
X180273309Y-100209431D01*
X180351386Y-100177280D01*
X180435719Y-100173071D01*
X180516610Y-100197287D01*
X180584757Y-100247145D01*
X180632323Y-100316911D01*
X180653838Y-100398562D01*
X180664935Y-100525402D01*
X180726097Y-100753663D01*
X180825966Y-100967833D01*
X180961502Y-101161398D01*
X181128601Y-101328497D01*
X181322166Y-101464033D01*
X181322169Y-101464034D01*
X181322170Y-101464035D01*
X181536337Y-101563903D01*
X181764592Y-101625063D01*
X181764593Y-101625063D01*
X181764597Y-101625064D01*
X182000000Y-101645659D01*
X182235402Y-101625064D01*
X182235404Y-101625063D01*
X182235408Y-101625063D01*
X182463663Y-101563903D01*
X182677830Y-101464035D01*
X182871401Y-101328495D01*
X183038495Y-101161401D01*
X183174035Y-100967830D01*
X183273903Y-100753663D01*
X183335063Y-100525408D01*
X183340571Y-100462461D01*
X183355659Y-100289999D01*
X183345502Y-100173903D01*
X183335063Y-100054592D01*
X183304076Y-99938945D01*
X183296956Y-99848471D01*
X183322732Y-99761456D01*
X183377979Y-99689457D01*
X183455359Y-99642038D01*
X183544592Y-99625500D01*
X187955409Y-99625500D01*
X188044643Y-99642039D01*
X188122023Y-99689457D01*
X188177270Y-99761457D01*
X188203045Y-99848473D01*
X188195924Y-99938946D01*
X188164936Y-100054592D01*
X188144340Y-100289999D01*
X188164935Y-100525402D01*
X188226097Y-100753663D01*
X188325966Y-100967833D01*
X188461502Y-101161398D01*
X188628601Y-101328497D01*
X188822166Y-101464033D01*
X188822169Y-101464034D01*
X188822170Y-101464035D01*
X189036337Y-101563903D01*
X189264592Y-101625063D01*
X189264593Y-101625063D01*
X189264597Y-101625064D01*
X189499999Y-101645659D01*
X189499999Y-101645658D01*
X189500000Y-101645659D01*
X189538609Y-101642281D01*
X189729298Y-101625598D01*
X189811238Y-101632046D01*
X189886615Y-101664821D01*
X189947215Y-101720350D01*
X189986434Y-101792583D01*
X190000000Y-101873650D01*
X190000000Y-106147849D01*
X189981046Y-106243137D01*
X189927070Y-106323919D01*
X189846288Y-106377895D01*
X189751000Y-106396849D01*
X189655712Y-106377895D01*
X189574933Y-106323921D01*
X189480204Y-106229192D01*
X189341775Y-106142211D01*
X189341774Y-106142210D01*
X189341773Y-106142210D01*
X189187460Y-106088213D01*
X189024999Y-106069908D01*
X188862539Y-106088213D01*
X188708226Y-106142210D01*
X188569797Y-106229191D01*
X188454191Y-106344797D01*
X188367210Y-106483226D01*
X188313213Y-106637539D01*
X188294908Y-106799999D01*
X188313213Y-106962460D01*
X188367210Y-107116773D01*
X188367211Y-107116775D01*
X188454192Y-107255204D01*
X188569796Y-107370808D01*
X188708225Y-107457789D01*
X188862539Y-107511786D01*
X189025000Y-107530091D01*
X189187461Y-107511786D01*
X189341775Y-107457789D01*
X189480204Y-107370808D01*
X189574933Y-107276078D01*
X189655712Y-107222105D01*
X189751000Y-107203151D01*
X189846288Y-107222105D01*
X189927070Y-107276081D01*
X189981046Y-107356863D01*
X190000000Y-107452151D01*
X190000000Y-108324854D01*
X189983628Y-108413653D01*
X189936665Y-108490774D01*
X189865287Y-108546077D01*
X189778880Y-108572288D01*
X189637540Y-108588213D01*
X189483226Y-108642210D01*
X189344797Y-108729191D01*
X189229191Y-108844797D01*
X189142210Y-108983226D01*
X189088213Y-109137539D01*
X189069908Y-109300000D01*
X189088213Y-109462459D01*
X189098297Y-109491277D01*
X189107463Y-109524826D01*
X189110456Y-109539842D01*
X189189231Y-109805576D01*
X189199500Y-109876345D01*
X189199500Y-112269389D01*
X189185538Y-112351597D01*
X189145217Y-112424586D01*
X189083060Y-112480170D01*
X189006037Y-112512117D01*
X188977538Y-112513734D01*
X188977880Y-112516767D01*
X188787539Y-112538213D01*
X188633226Y-112592210D01*
X188494797Y-112679191D01*
X188379191Y-112794797D01*
X188292210Y-112933226D01*
X188238213Y-113087539D01*
X188219908Y-113250000D01*
X188238213Y-113412460D01*
X188292210Y-113566773D01*
X188292211Y-113566775D01*
X188379192Y-113705204D01*
X188494796Y-113820808D01*
X188633225Y-113907789D01*
X188787539Y-113961786D01*
X188977880Y-113983233D01*
X188977538Y-113986265D01*
X189006037Y-113987883D01*
X189083060Y-114019830D01*
X189145217Y-114075414D01*
X189185538Y-114148403D01*
X189199500Y-114230611D01*
X189199500Y-116248125D01*
X189180546Y-116343413D01*
X189126570Y-116424195D01*
X186624195Y-118926570D01*
X186543413Y-118980546D01*
X186448125Y-118999500D01*
X173855683Y-118999500D01*
X173823183Y-118997370D01*
X173800000Y-118994318D01*
X173799999Y-118994318D01*
X173780319Y-118996908D01*
X173760639Y-118999500D01*
X173643238Y-119014956D01*
X173497157Y-119075465D01*
X173371718Y-119171717D01*
X173357484Y-119190268D01*
X173336009Y-119214755D01*
X172725567Y-119825196D01*
X172644788Y-119879171D01*
X172549500Y-119898125D01*
X172454212Y-119879171D01*
X172373430Y-119825195D01*
X172319454Y-119744413D01*
X172300500Y-119649125D01*
X172300500Y-111499999D01*
X179194651Y-111499999D01*
X179214028Y-111857370D01*
X179271929Y-112210552D01*
X179367677Y-112555407D01*
X179500146Y-112887879D01*
X179667788Y-113204084D01*
X179868635Y-113500312D01*
X180100329Y-113773084D01*
X180360165Y-114019213D01*
X180503011Y-114127801D01*
X180645081Y-114235800D01*
X180951747Y-114420315D01*
X181276565Y-114570591D01*
X181615726Y-114684868D01*
X181822995Y-114730491D01*
X181965253Y-114761805D01*
X182321048Y-114800500D01*
X182321052Y-114800500D01*
X182678948Y-114800500D01*
X182678952Y-114800500D01*
X183034746Y-114761805D01*
X183034745Y-114761805D01*
X183384274Y-114684868D01*
X183723435Y-114570591D01*
X184048253Y-114420315D01*
X184354919Y-114235800D01*
X184639837Y-114019211D01*
X184899668Y-113773086D01*
X184902368Y-113769908D01*
X185131364Y-113500312D01*
X185132009Y-113499361D01*
X185332211Y-113204085D01*
X185499853Y-112887880D01*
X185632324Y-112555403D01*
X185728071Y-112210552D01*
X185785972Y-111857371D01*
X185805348Y-111500000D01*
X185785972Y-111142629D01*
X185728071Y-110789448D01*
X185632324Y-110444597D01*
X185499853Y-110112120D01*
X185332211Y-109795915D01*
X185131364Y-109499687D01*
X184899670Y-109226915D01*
X184639834Y-108980786D01*
X184354919Y-108764200D01*
X184048259Y-108579688D01*
X184032264Y-108572288D01*
X183723435Y-108429409D01*
X183723433Y-108429408D01*
X183561890Y-108374978D01*
X183384274Y-108315132D01*
X183384270Y-108315131D01*
X183384267Y-108315130D01*
X183034746Y-108238194D01*
X182678952Y-108199500D01*
X182678948Y-108199500D01*
X182321052Y-108199500D01*
X182321048Y-108199500D01*
X181965253Y-108238194D01*
X181615732Y-108315130D01*
X181276566Y-108429408D01*
X180951740Y-108579688D01*
X180645080Y-108764200D01*
X180360165Y-108980786D01*
X180100329Y-109226915D01*
X179868635Y-109499687D01*
X179667788Y-109795915D01*
X179500146Y-110112120D01*
X179367677Y-110444592D01*
X179271929Y-110789447D01*
X179214028Y-111142629D01*
X179194651Y-111499999D01*
X172300500Y-111499999D01*
X172300500Y-98851874D01*
X172319454Y-98756586D01*
X172373430Y-98675805D01*
X172526054Y-98523181D01*
X173017084Y-98032149D01*
X173074382Y-97989372D01*
X173131735Y-97958248D01*
X173212667Y-97930991D01*
X173298048Y-97932682D01*
X173377836Y-97963122D01*
X173442646Y-98018731D01*
X173484856Y-98092967D01*
X173499500Y-98177100D01*
X173499500Y-99723655D01*
X173489231Y-99794423D01*
X173483884Y-99812461D01*
X173410455Y-100060163D01*
X173407461Y-100075179D01*
X173398299Y-100108711D01*
X173388214Y-100137534D01*
X173369908Y-100300000D01*
X173388213Y-100462460D01*
X173410238Y-100525402D01*
X173442211Y-100616775D01*
X173529192Y-100755204D01*
X173644796Y-100870808D01*
X173783225Y-100957789D01*
X173937539Y-101011786D01*
X174100000Y-101030091D01*
X174262461Y-101011786D01*
X174416775Y-100957789D01*
X174555204Y-100870808D01*
X174670808Y-100755204D01*
X174757789Y-100616775D01*
X174811786Y-100462461D01*
X174830091Y-100300000D01*
X174811786Y-100137539D01*
X174801697Y-100108708D01*
X174792532Y-100075156D01*
X174789544Y-100060168D01*
X174789544Y-100060166D01*
X174729461Y-99857482D01*
X174710768Y-99794422D01*
X174700500Y-99723654D01*
X174700500Y-97776346D01*
X174710768Y-97705578D01*
X174740226Y-97606204D01*
X174789544Y-97439833D01*
X174792532Y-97424838D01*
X174801700Y-97391282D01*
X174811786Y-97362461D01*
X174830091Y-97200000D01*
X174811786Y-97037539D01*
X174757789Y-96883225D01*
X174670808Y-96744796D01*
X174555204Y-96629192D01*
X174416775Y-96542211D01*
X174416774Y-96542210D01*
X174416773Y-96542210D01*
X174262460Y-96488213D01*
X174100000Y-96469908D01*
X173937539Y-96488213D01*
X173783223Y-96542211D01*
X173682476Y-96605515D01*
X173596292Y-96639340D01*
X173503708Y-96639340D01*
X173417524Y-96605515D01*
X173316776Y-96542211D01*
X173162460Y-96488213D01*
X173000000Y-96469908D01*
X172837539Y-96488213D01*
X172683226Y-96542210D01*
X172544797Y-96629191D01*
X172429190Y-96744798D01*
X172347168Y-96875333D01*
X172343457Y-96881063D01*
X172342835Y-96881993D01*
X172210624Y-97125617D01*
X172167844Y-97182919D01*
X171314751Y-98036012D01*
X171290267Y-98057484D01*
X171271718Y-98071717D01*
X171247551Y-98103214D01*
X171247549Y-98103214D01*
X171247550Y-98103215D01*
X171175463Y-98197159D01*
X171114956Y-98343237D01*
X171094317Y-98499999D01*
X171097370Y-98523181D01*
X171099500Y-98555683D01*
X171099500Y-119149124D01*
X171080546Y-119244412D01*
X171026570Y-119325194D01*
X170945788Y-119379170D01*
X170850500Y-119398124D01*
X170755212Y-119379170D01*
X170674430Y-119325194D01*
X169232150Y-117882915D01*
X169189369Y-117825611D01*
X169057169Y-117582006D01*
X169056601Y-117581155D01*
X169052867Y-117575390D01*
X168970809Y-117444796D01*
X168855205Y-117329192D01*
X168716773Y-117242210D01*
X168562460Y-117188213D01*
X168399999Y-117169908D01*
X168237539Y-117188213D01*
X168083226Y-117242210D01*
X167944797Y-117329191D01*
X167829191Y-117444797D01*
X167742210Y-117583226D01*
X167688213Y-117737539D01*
X167669908Y-117900000D01*
X167688213Y-118062460D01*
X167742210Y-118216773D01*
X167829192Y-118355205D01*
X167944796Y-118470809D01*
X168075390Y-118552867D01*
X168081155Y-118556601D01*
X168082006Y-118557169D01*
X168325613Y-118689370D01*
X168382915Y-118732151D01*
X169225694Y-119574931D01*
X169279670Y-119655712D01*
X169298624Y-119751000D01*
X169279670Y-119846288D01*
X169225694Y-119927070D01*
X169144912Y-119981046D01*
X169049624Y-120000000D01*
X163944608Y-120000000D01*
X163851906Y-119982100D01*
X163772533Y-119930975D01*
X163717898Y-119853974D01*
X163695859Y-119762169D01*
X163709581Y-119668760D01*
X163711786Y-119662461D01*
X163730091Y-119500000D01*
X163711786Y-119337539D01*
X163657789Y-119183225D01*
X163570808Y-119044796D01*
X163455204Y-118929192D01*
X163316775Y-118842211D01*
X163316774Y-118842210D01*
X163316773Y-118842210D01*
X163267261Y-118824885D01*
X163199772Y-118788812D01*
X163146425Y-118733947D01*
X163112259Y-118665474D01*
X163100500Y-118589858D01*
X163100500Y-118576346D01*
X163110768Y-118505578D01*
X163151823Y-118367082D01*
X163189544Y-118239833D01*
X163192532Y-118224838D01*
X163201700Y-118191282D01*
X163211786Y-118162461D01*
X163230091Y-118000000D01*
X163211786Y-117837539D01*
X163157789Y-117683225D01*
X163070808Y-117544796D01*
X162955204Y-117429192D01*
X162869697Y-117375464D01*
X162816774Y-117342210D01*
X162665043Y-117289117D01*
X162592034Y-117248766D01*
X162536448Y-117186566D01*
X162504526Y-117109497D01*
X162499849Y-117026211D01*
X162522942Y-116946053D01*
X162571210Y-116878023D01*
X165525251Y-113923982D01*
X165549732Y-113902514D01*
X165568282Y-113888282D01*
X165664536Y-113762841D01*
X165725044Y-113616762D01*
X165740500Y-113499361D01*
X165745682Y-113460000D01*
X165742629Y-113436816D01*
X165740500Y-113404317D01*
X165740500Y-100787665D01*
X165747127Y-100730602D01*
X165766654Y-100676576D01*
X165905244Y-100398562D01*
X166372110Y-99462020D01*
X166378419Y-99443345D01*
X166388640Y-99417837D01*
X166413903Y-99363663D01*
X166475063Y-99135408D01*
X166495659Y-98900000D01*
X166492214Y-98860625D01*
X166475064Y-98664597D01*
X166463490Y-98621401D01*
X166413903Y-98436337D01*
X166314035Y-98222171D01*
X166314034Y-98222170D01*
X166314033Y-98222167D01*
X166178495Y-98028599D01*
X166011401Y-97861504D01*
X165817833Y-97725966D01*
X165603663Y-97626097D01*
X165375402Y-97564935D01*
X165140000Y-97544340D01*
X164904597Y-97564935D01*
X164676336Y-97626097D01*
X164462167Y-97725966D01*
X164268602Y-97861502D01*
X164101501Y-98028603D01*
X164094129Y-98039132D01*
X164033867Y-98099656D01*
X163956697Y-98136255D01*
X163871699Y-98144624D01*
X163788874Y-98123777D01*
X163717965Y-98076168D01*
X163667316Y-98007398D01*
X163226654Y-97123423D01*
X163207127Y-97069397D01*
X163200500Y-97012334D01*
X163200500Y-95555683D01*
X163202630Y-95523181D01*
X163205682Y-95499999D01*
X163198494Y-95445402D01*
X163185044Y-95343238D01*
X163124536Y-95197159D01*
X163052450Y-95103215D01*
X163052450Y-95103214D01*
X163052449Y-95103214D01*
X163028283Y-95071719D01*
X163028282Y-95071718D01*
X163009728Y-95057481D01*
X162985247Y-95036012D01*
X158454804Y-90505569D01*
X158400828Y-90424787D01*
X158381874Y-90329499D01*
X158400828Y-90234211D01*
X158454804Y-90153429D01*
X158535586Y-90099453D01*
X158630874Y-90080499D01*
X159097870Y-90080499D01*
X159097872Y-90080499D01*
X159157483Y-90074091D01*
X159292331Y-90023796D01*
X159407546Y-89937546D01*
X159493796Y-89822331D01*
X159493798Y-89822324D01*
X159505090Y-89807241D01*
X159566828Y-89748933D01*
X159644569Y-89714762D01*
X159729273Y-89708704D01*
X159811087Y-89731463D01*
X159849147Y-89758293D01*
X159850753Y-89756000D01*
X160062166Y-89904033D01*
X160062169Y-89904034D01*
X160062170Y-89904035D01*
X160276337Y-90003903D01*
X160504592Y-90065063D01*
X160504593Y-90065063D01*
X160504597Y-90065064D01*
X160740000Y-90085659D01*
X160975402Y-90065064D01*
X160975404Y-90065063D01*
X160975408Y-90065063D01*
X161203663Y-90003903D01*
X161417830Y-89904035D01*
X161611401Y-89768495D01*
X161778495Y-89601401D01*
X161806029Y-89562077D01*
X161874384Y-89496068D01*
X161962488Y-89460471D01*
X162057512Y-89460471D01*
X162145616Y-89496068D01*
X162213970Y-89562077D01*
X162241503Y-89601399D01*
X162408601Y-89768497D01*
X162602166Y-89904033D01*
X162602169Y-89904034D01*
X162602170Y-89904035D01*
X162816337Y-90003903D01*
X163044592Y-90065063D01*
X163044593Y-90065063D01*
X163044597Y-90065064D01*
X163280000Y-90085659D01*
X163515402Y-90065064D01*
X163515404Y-90065063D01*
X163515408Y-90065063D01*
X163743663Y-90003903D01*
X163957830Y-89904035D01*
X164151401Y-89768495D01*
X164318495Y-89601401D01*
X164346029Y-89562077D01*
X164414384Y-89496068D01*
X164502488Y-89460471D01*
X164597512Y-89460471D01*
X164685616Y-89496068D01*
X164753970Y-89562077D01*
X164781503Y-89601399D01*
X164948601Y-89768497D01*
X165142166Y-89904033D01*
X165142169Y-89904034D01*
X165142170Y-89904035D01*
X165356337Y-90003903D01*
X165584592Y-90065063D01*
X165584593Y-90065063D01*
X165584597Y-90065064D01*
X165820000Y-90085659D01*
X166055402Y-90065064D01*
X166055404Y-90065063D01*
X166055408Y-90065063D01*
X166283663Y-90003903D01*
X166497830Y-89904035D01*
X166691401Y-89768495D01*
X166858495Y-89601401D01*
X166994035Y-89407830D01*
X167093903Y-89193663D01*
X167155063Y-88965408D01*
X167160763Y-88900265D01*
X167175659Y-88730000D01*
X167155064Y-88494597D01*
X167155063Y-88494592D01*
X167093903Y-88266337D01*
X166994035Y-88052171D01*
X166994034Y-88052170D01*
X166994033Y-88052167D01*
X166858495Y-87858599D01*
X166691401Y-87691504D01*
X166497833Y-87555966D01*
X166283663Y-87456097D01*
X166055402Y-87394935D01*
X165820000Y-87374340D01*
X165584597Y-87394935D01*
X165356336Y-87456097D01*
X165142167Y-87555966D01*
X164948602Y-87691502D01*
X164781504Y-87858600D01*
X164753969Y-87897925D01*
X164685615Y-87963933D01*
X164597511Y-87999529D01*
X164502489Y-87999529D01*
X164414385Y-87963933D01*
X164346031Y-87897925D01*
X164318495Y-87858599D01*
X164292023Y-87832127D01*
X164151401Y-87691504D01*
X163957833Y-87555966D01*
X163743663Y-87456097D01*
X163515402Y-87394935D01*
X163280000Y-87374340D01*
X163044597Y-87394935D01*
X162816336Y-87456097D01*
X162602167Y-87555966D01*
X162408602Y-87691502D01*
X162241504Y-87858600D01*
X162213969Y-87897925D01*
X162145615Y-87963933D01*
X162057511Y-87999529D01*
X161962489Y-87999529D01*
X161874385Y-87963933D01*
X161806031Y-87897925D01*
X161778495Y-87858599D01*
X161752023Y-87832127D01*
X161611401Y-87691504D01*
X161417833Y-87555966D01*
X161203663Y-87456097D01*
X160975402Y-87394935D01*
X160740000Y-87374340D01*
X160504597Y-87394935D01*
X160276336Y-87456097D01*
X160062167Y-87555966D01*
X159850754Y-87704000D01*
X159849148Y-87701707D01*
X159811063Y-87728548D01*
X159729254Y-87751297D01*
X159644558Y-87745234D01*
X159566824Y-87711063D01*
X159505092Y-87652759D01*
X159407546Y-87522454D01*
X159407545Y-87522453D01*
X159292331Y-87436204D01*
X159157483Y-87385909D01*
X159157482Y-87385908D01*
X159157480Y-87385908D01*
X159097874Y-87379500D01*
X159097873Y-87379500D01*
X158248996Y-87379500D01*
X158172055Y-87367314D01*
X158102642Y-87331946D01*
X158047555Y-87276860D01*
X158012187Y-87207446D01*
X158000000Y-87130501D01*
X158000000Y-86199999D01*
X171769908Y-86199999D01*
X171788213Y-86362460D01*
X171842210Y-86516773D01*
X171842211Y-86516775D01*
X171929192Y-86655204D01*
X172044796Y-86770808D01*
X172183225Y-86857789D01*
X172337539Y-86911786D01*
X172500000Y-86930091D01*
X172662461Y-86911786D01*
X172816775Y-86857789D01*
X172955204Y-86770808D01*
X173070808Y-86655204D01*
X173157789Y-86516775D01*
X173211786Y-86362461D01*
X173230091Y-86200000D01*
X173211786Y-86037539D01*
X173157789Y-85883225D01*
X173070808Y-85744796D01*
X172955204Y-85629192D01*
X172816775Y-85542211D01*
X172816774Y-85542210D01*
X172816773Y-85542210D01*
X172662460Y-85488213D01*
X172500000Y-85469908D01*
X172337539Y-85488213D01*
X172183226Y-85542210D01*
X172044797Y-85629191D01*
X171929191Y-85744797D01*
X171842210Y-85883226D01*
X171788213Y-86037539D01*
X171769908Y-86199999D01*
X158000000Y-86199999D01*
X158000000Y-84890257D01*
X158016930Y-84800010D01*
X158065418Y-84722035D01*
X158138870Y-84666936D01*
X158227295Y-84642205D01*
X158416692Y-84625635D01*
X158636496Y-84566739D01*
X158842734Y-84470568D01*
X159029139Y-84340047D01*
X159190047Y-84179139D01*
X159256031Y-84084902D01*
X159324384Y-84018894D01*
X159412488Y-83983298D01*
X159507512Y-83983298D01*
X159595616Y-84018894D01*
X159663968Y-84084902D01*
X159729953Y-84179139D01*
X159890861Y-84340047D01*
X160077266Y-84470568D01*
X160283504Y-84566739D01*
X160503308Y-84625635D01*
X160503309Y-84625635D01*
X160503313Y-84625636D01*
X160730000Y-84645468D01*
X160956686Y-84625636D01*
X160956688Y-84625635D01*
X160956692Y-84625635D01*
X161176496Y-84566739D01*
X161382734Y-84470568D01*
X161569139Y-84340047D01*
X161730047Y-84179139D01*
X161796031Y-84084902D01*
X161864384Y-84018894D01*
X161952488Y-83983298D01*
X162047512Y-83983298D01*
X162135616Y-84018894D01*
X162203968Y-84084902D01*
X162269953Y-84179139D01*
X162430861Y-84340047D01*
X162617266Y-84470568D01*
X162823504Y-84566739D01*
X163043308Y-84625635D01*
X163043309Y-84625635D01*
X163043313Y-84625636D01*
X163270000Y-84645468D01*
X163496686Y-84625636D01*
X163496688Y-84625635D01*
X163496692Y-84625635D01*
X163716496Y-84566739D01*
X163922734Y-84470568D01*
X164109139Y-84340047D01*
X164270047Y-84179139D01*
X164336031Y-84084902D01*
X164404384Y-84018894D01*
X164492488Y-83983298D01*
X164587512Y-83983298D01*
X164675616Y-84018894D01*
X164743968Y-84084902D01*
X164809953Y-84179139D01*
X164970861Y-84340047D01*
X165157266Y-84470568D01*
X165363504Y-84566739D01*
X165583308Y-84625635D01*
X165583309Y-84625635D01*
X165583313Y-84625636D01*
X165810000Y-84645468D01*
X166036686Y-84625636D01*
X166036688Y-84625635D01*
X166036692Y-84625635D01*
X166256496Y-84566739D01*
X166462734Y-84470568D01*
X166649139Y-84340047D01*
X166810047Y-84179139D01*
X166876031Y-84084902D01*
X166944384Y-84018894D01*
X167032488Y-83983298D01*
X167127512Y-83983298D01*
X167215616Y-84018894D01*
X167283968Y-84084902D01*
X167349953Y-84179139D01*
X167510861Y-84340047D01*
X167697266Y-84470568D01*
X167903504Y-84566739D01*
X168123308Y-84625635D01*
X168123309Y-84625635D01*
X168123313Y-84625636D01*
X168350000Y-84645468D01*
X168576686Y-84625636D01*
X168576688Y-84625635D01*
X168576692Y-84625635D01*
X168796496Y-84566739D01*
X169002734Y-84470568D01*
X169189139Y-84340047D01*
X169350047Y-84179139D01*
X169416031Y-84084902D01*
X169484384Y-84018894D01*
X169572488Y-83983298D01*
X169667512Y-83983298D01*
X169755616Y-84018894D01*
X169823968Y-84084902D01*
X169889953Y-84179139D01*
X170050861Y-84340047D01*
X170237266Y-84470568D01*
X170443504Y-84566739D01*
X170663308Y-84625635D01*
X170663309Y-84625635D01*
X170663313Y-84625636D01*
X170890000Y-84645468D01*
X171116686Y-84625636D01*
X171116688Y-84625635D01*
X171116692Y-84625635D01*
X171336496Y-84566739D01*
X171542734Y-84470568D01*
X171729139Y-84340047D01*
X171890047Y-84179139D01*
X172020568Y-83992734D01*
X172116739Y-83786496D01*
X172175635Y-83566692D01*
X172180162Y-83514956D01*
X172195468Y-83340000D01*
X172175636Y-83113313D01*
X172175635Y-83113308D01*
X172116739Y-82893504D01*
X172020568Y-82687266D01*
X171890047Y-82500861D01*
X171729139Y-82339953D01*
X171542734Y-82209432D01*
X171542730Y-82209430D01*
X171542727Y-82209428D01*
X171336500Y-82113263D01*
X171336496Y-82113261D01*
X171181990Y-82071861D01*
X171116686Y-82054363D01*
X170890000Y-82034531D01*
X170663313Y-82054363D01*
X170553405Y-82083813D01*
X170443504Y-82113261D01*
X170443500Y-82113262D01*
X170443499Y-82113263D01*
X170237272Y-82209428D01*
X170050861Y-82339953D01*
X169889950Y-82500864D01*
X169823969Y-82595096D01*
X169755615Y-82661105D01*
X169667512Y-82696701D01*
X169572488Y-82696701D01*
X169484385Y-82661105D01*
X169416031Y-82595096D01*
X169350049Y-82500864D01*
X169350047Y-82500861D01*
X169189139Y-82339953D01*
X169002734Y-82209432D01*
X169002730Y-82209430D01*
X169002727Y-82209428D01*
X168796500Y-82113263D01*
X168796496Y-82113261D01*
X168641990Y-82071861D01*
X168576686Y-82054363D01*
X168350000Y-82034531D01*
X168123313Y-82054363D01*
X168013405Y-82083813D01*
X167903504Y-82113261D01*
X167903500Y-82113262D01*
X167903499Y-82113263D01*
X167697272Y-82209428D01*
X167510861Y-82339953D01*
X167349950Y-82500864D01*
X167283969Y-82595096D01*
X167215615Y-82661105D01*
X167127512Y-82696701D01*
X167032488Y-82696701D01*
X166944385Y-82661105D01*
X166876031Y-82595096D01*
X166810049Y-82500864D01*
X166810047Y-82500861D01*
X166649139Y-82339953D01*
X166462734Y-82209432D01*
X166462730Y-82209430D01*
X166462727Y-82209428D01*
X166256500Y-82113263D01*
X166256496Y-82113261D01*
X166101990Y-82071861D01*
X166036686Y-82054363D01*
X165810000Y-82034531D01*
X165583313Y-82054363D01*
X165473405Y-82083813D01*
X165363504Y-82113261D01*
X165363500Y-82113262D01*
X165363499Y-82113263D01*
X165157272Y-82209428D01*
X164970861Y-82339953D01*
X164809950Y-82500864D01*
X164743969Y-82595096D01*
X164675615Y-82661105D01*
X164587512Y-82696701D01*
X164492488Y-82696701D01*
X164404385Y-82661105D01*
X164336031Y-82595096D01*
X164270049Y-82500864D01*
X164270047Y-82500861D01*
X164109139Y-82339953D01*
X163922734Y-82209432D01*
X163922730Y-82209430D01*
X163922727Y-82209428D01*
X163716500Y-82113263D01*
X163716496Y-82113261D01*
X163561990Y-82071861D01*
X163496686Y-82054363D01*
X163270000Y-82034531D01*
X163043313Y-82054363D01*
X162933405Y-82083813D01*
X162823504Y-82113261D01*
X162823500Y-82113262D01*
X162823499Y-82113263D01*
X162617272Y-82209428D01*
X162430861Y-82339953D01*
X162269950Y-82500864D01*
X162203969Y-82595096D01*
X162135615Y-82661105D01*
X162047512Y-82696701D01*
X161952488Y-82696701D01*
X161864385Y-82661105D01*
X161796031Y-82595096D01*
X161730049Y-82500864D01*
X161730047Y-82500861D01*
X161569139Y-82339953D01*
X161382734Y-82209432D01*
X161382730Y-82209430D01*
X161382727Y-82209428D01*
X161176500Y-82113263D01*
X161176496Y-82113261D01*
X161021990Y-82071861D01*
X160956686Y-82054363D01*
X160934239Y-82052400D01*
X160847345Y-82028419D01*
X160774683Y-81975071D01*
X160725776Y-81899349D01*
X160707035Y-81811176D01*
X160720913Y-81722110D01*
X160741786Y-81662461D01*
X160760091Y-81500000D01*
X160741786Y-81337539D01*
X160687789Y-81183225D01*
X160600808Y-81044796D01*
X160485204Y-80929192D01*
X160346775Y-80842211D01*
X160346774Y-80842210D01*
X160346773Y-80842210D01*
X160192460Y-80788213D01*
X160030000Y-80769908D01*
X159867537Y-80788214D01*
X159857386Y-80791766D01*
X159830450Y-80799519D01*
X159528505Y-80868284D01*
X159473213Y-80874500D01*
X158249000Y-80874500D01*
X158153712Y-80855546D01*
X158072930Y-80801570D01*
X158018954Y-80720788D01*
X158000000Y-80625500D01*
X158000000Y-78229999D01*
X168694531Y-78229999D01*
X168714363Y-78456686D01*
X168714365Y-78456692D01*
X168773261Y-78676496D01*
X168773263Y-78676500D01*
X168869428Y-78882727D01*
X168869430Y-78882730D01*
X168869432Y-78882734D01*
X168999953Y-79069139D01*
X169160861Y-79230047D01*
X169347266Y-79360568D01*
X169553504Y-79456739D01*
X169773308Y-79515635D01*
X169773309Y-79515635D01*
X169773313Y-79515636D01*
X169999999Y-79535468D01*
X169999999Y-79535467D01*
X170000000Y-79535468D01*
X170035253Y-79532383D01*
X170226686Y-79515636D01*
X170226688Y-79515635D01*
X170226692Y-79515635D01*
X170446496Y-79456739D01*
X170652734Y-79360568D01*
X170839139Y-79230047D01*
X171000047Y-79069139D01*
X171130568Y-78882734D01*
X171226739Y-78676496D01*
X171285635Y-78456692D01*
X171305468Y-78230000D01*
X171305468Y-78229999D01*
X171285636Y-78003313D01*
X171285635Y-78003308D01*
X171226739Y-77783504D01*
X171130568Y-77577266D01*
X171000047Y-77390861D01*
X170839139Y-77229953D01*
X170773465Y-77183968D01*
X170707458Y-77115616D01*
X170671861Y-77027512D01*
X170671861Y-76932488D01*
X170707458Y-76844384D01*
X170773465Y-76776031D01*
X170839139Y-76730047D01*
X171000047Y-76569139D01*
X171130568Y-76382734D01*
X171226739Y-76176496D01*
X171285635Y-75956692D01*
X171287821Y-75931716D01*
X171305468Y-75730000D01*
X171285636Y-75503313D01*
X171285635Y-75503308D01*
X171226739Y-75283504D01*
X171130568Y-75077266D01*
X171000047Y-74890861D01*
X170839139Y-74729953D01*
X170652734Y-74599432D01*
X170652730Y-74599430D01*
X170652727Y-74599428D01*
X170446500Y-74503263D01*
X170446496Y-74503261D01*
X170291990Y-74461861D01*
X170226686Y-74444363D01*
X170000000Y-74424531D01*
X169773313Y-74444363D01*
X169663405Y-74473813D01*
X169553504Y-74503261D01*
X169553500Y-74503262D01*
X169553499Y-74503263D01*
X169347272Y-74599428D01*
X169160861Y-74729953D01*
X168999953Y-74890861D01*
X168869428Y-75077272D01*
X168795378Y-75236074D01*
X168773261Y-75283504D01*
X168743812Y-75393406D01*
X168714363Y-75503313D01*
X168694531Y-75730000D01*
X168714363Y-75956686D01*
X168714365Y-75956692D01*
X168773261Y-76176496D01*
X168773263Y-76176500D01*
X168869428Y-76382727D01*
X168869430Y-76382730D01*
X168869432Y-76382734D01*
X168999953Y-76569139D01*
X169160861Y-76730047D01*
X169160864Y-76730049D01*
X169226533Y-76776031D01*
X169292542Y-76844385D01*
X169328138Y-76932488D01*
X169328138Y-77027512D01*
X169292542Y-77115615D01*
X169226533Y-77183969D01*
X169160864Y-77229950D01*
X168999953Y-77390861D01*
X168869428Y-77577272D01*
X168773263Y-77783499D01*
X168773261Y-77783504D01*
X168743812Y-77893406D01*
X168714363Y-78003313D01*
X168694531Y-78229999D01*
X158000000Y-78229999D01*
X158000000Y-72190257D01*
X158016930Y-72100010D01*
X158065418Y-72022035D01*
X158138870Y-71966936D01*
X158227295Y-71942205D01*
X158416692Y-71925635D01*
X158636496Y-71866739D01*
X158842734Y-71770568D01*
X159029139Y-71640047D01*
X159190047Y-71479139D01*
X159256031Y-71384902D01*
X159324384Y-71318894D01*
X159412488Y-71283298D01*
X159507512Y-71283298D01*
X159595616Y-71318894D01*
X159663968Y-71384902D01*
X159729953Y-71479139D01*
X159890861Y-71640047D01*
X160077266Y-71770568D01*
X160283504Y-71866739D01*
X160503308Y-71925635D01*
X160503309Y-71925635D01*
X160503313Y-71925636D01*
X160729999Y-71945468D01*
X160729999Y-71945467D01*
X160730000Y-71945468D01*
X160767308Y-71942204D01*
X160956686Y-71925636D01*
X160956688Y-71925635D01*
X160956692Y-71925635D01*
X161176496Y-71866739D01*
X161382734Y-71770568D01*
X161569139Y-71640047D01*
X161730047Y-71479139D01*
X161796031Y-71384902D01*
X161864384Y-71318894D01*
X161952488Y-71283298D01*
X162047512Y-71283298D01*
X162135616Y-71318894D01*
X162203968Y-71384902D01*
X162269953Y-71479139D01*
X162430861Y-71640047D01*
X162617266Y-71770568D01*
X162823504Y-71866739D01*
X163043308Y-71925635D01*
X163043309Y-71925635D01*
X163043313Y-71925636D01*
X163269999Y-71945468D01*
X163269999Y-71945467D01*
X163270000Y-71945468D01*
X163307308Y-71942204D01*
X163496686Y-71925636D01*
X163496688Y-71925635D01*
X163496692Y-71925635D01*
X163716496Y-71866739D01*
X163922734Y-71770568D01*
X164109139Y-71640047D01*
X164270047Y-71479139D01*
X164336031Y-71384902D01*
X164404384Y-71318894D01*
X164492488Y-71283298D01*
X164587512Y-71283298D01*
X164675616Y-71318894D01*
X164743968Y-71384902D01*
X164809953Y-71479139D01*
X164970861Y-71640047D01*
X165157266Y-71770568D01*
X165363504Y-71866739D01*
X165583308Y-71925635D01*
X165583309Y-71925635D01*
X165583313Y-71925636D01*
X165809999Y-71945468D01*
X165809999Y-71945467D01*
X165810000Y-71945468D01*
X165847308Y-71942204D01*
X166036686Y-71925636D01*
X166036688Y-71925635D01*
X166036692Y-71925635D01*
X166256496Y-71866739D01*
X166462734Y-71770568D01*
X166649139Y-71640047D01*
X166810047Y-71479139D01*
X166876031Y-71384902D01*
X166944384Y-71318894D01*
X167032488Y-71283298D01*
X167127512Y-71283298D01*
X167215616Y-71318894D01*
X167283968Y-71384902D01*
X167349953Y-71479139D01*
X167510861Y-71640047D01*
X167697266Y-71770568D01*
X167903504Y-71866739D01*
X168123308Y-71925635D01*
X168123309Y-71925635D01*
X168123313Y-71925636D01*
X168349999Y-71945468D01*
X168349999Y-71945467D01*
X168350000Y-71945468D01*
X168387308Y-71942204D01*
X168576686Y-71925636D01*
X168576688Y-71925635D01*
X168576692Y-71925635D01*
X168796496Y-71866739D01*
X169002734Y-71770568D01*
X169189139Y-71640047D01*
X169350047Y-71479139D01*
X169416031Y-71384902D01*
X169484384Y-71318894D01*
X169572488Y-71283298D01*
X169667512Y-71283298D01*
X169755616Y-71318894D01*
X169823968Y-71384902D01*
X169889953Y-71479139D01*
X170050861Y-71640047D01*
X170237266Y-71770568D01*
X170443504Y-71866739D01*
X170663308Y-71925635D01*
X170663309Y-71925635D01*
X170663313Y-71925636D01*
X170889999Y-71945468D01*
X170889999Y-71945467D01*
X170890000Y-71945468D01*
X170927308Y-71942204D01*
X171116686Y-71925636D01*
X171116688Y-71925635D01*
X171116692Y-71925635D01*
X171336496Y-71866739D01*
X171542734Y-71770568D01*
X171729139Y-71640047D01*
X171890047Y-71479139D01*
X172020568Y-71292734D01*
X172116739Y-71086496D01*
X172175635Y-70866692D01*
X172195468Y-70640000D01*
X172195468Y-70639999D01*
X172175636Y-70413313D01*
X172175635Y-70413308D01*
X172116739Y-70193504D01*
X172020568Y-69987266D01*
X171890047Y-69800861D01*
X171729139Y-69639953D01*
X171542734Y-69509432D01*
X171542731Y-69509431D01*
X171542729Y-69509429D01*
X171409691Y-69447392D01*
X171337895Y-69396827D01*
X171288118Y-69324484D01*
X171285861Y-69315580D01*
X171223198Y-69346969D01*
X171132564Y-69355754D01*
X171116694Y-69354365D01*
X171116692Y-69354365D01*
X170890000Y-69334532D01*
X170889997Y-69334532D01*
X170889994Y-69334532D01*
X170663313Y-69354363D01*
X170553405Y-69383813D01*
X170443504Y-69413261D01*
X170443500Y-69413262D01*
X170443499Y-69413263D01*
X170237272Y-69509428D01*
X170050861Y-69639953D01*
X169889950Y-69800864D01*
X169823969Y-69895096D01*
X169755615Y-69961105D01*
X169667512Y-69996701D01*
X169572488Y-69996701D01*
X169484385Y-69961105D01*
X169416031Y-69895096D01*
X169350049Y-69800864D01*
X169350047Y-69800861D01*
X169189139Y-69639953D01*
X169002734Y-69509432D01*
X169002728Y-69509429D01*
X169002727Y-69509428D01*
X168796500Y-69413263D01*
X168796496Y-69413261D01*
X168641990Y-69371861D01*
X168576686Y-69354363D01*
X168350000Y-69334531D01*
X168123313Y-69354363D01*
X168013405Y-69383813D01*
X167903504Y-69413261D01*
X167903500Y-69413262D01*
X167903499Y-69413263D01*
X167697272Y-69509428D01*
X167510861Y-69639953D01*
X167349950Y-69800864D01*
X167283969Y-69895096D01*
X167215615Y-69961105D01*
X167127512Y-69996701D01*
X167032488Y-69996701D01*
X166944385Y-69961105D01*
X166876031Y-69895096D01*
X166810049Y-69800864D01*
X166810047Y-69800861D01*
X166649139Y-69639953D01*
X166462734Y-69509432D01*
X166462728Y-69509429D01*
X166462727Y-69509428D01*
X166256500Y-69413263D01*
X166256496Y-69413261D01*
X166101990Y-69371861D01*
X166036686Y-69354363D01*
X165810000Y-69334531D01*
X165583313Y-69354363D01*
X165473405Y-69383813D01*
X165363504Y-69413261D01*
X165363500Y-69413262D01*
X165363499Y-69413263D01*
X165157272Y-69509428D01*
X164970861Y-69639953D01*
X164809950Y-69800864D01*
X164743969Y-69895096D01*
X164675615Y-69961105D01*
X164587512Y-69996701D01*
X164492488Y-69996701D01*
X164404385Y-69961105D01*
X164336031Y-69895096D01*
X164270049Y-69800864D01*
X164270047Y-69800861D01*
X164109139Y-69639953D01*
X163922734Y-69509432D01*
X163922728Y-69509429D01*
X163922727Y-69509428D01*
X163716500Y-69413263D01*
X163716496Y-69413261D01*
X163561990Y-69371861D01*
X163496686Y-69354363D01*
X163270000Y-69334531D01*
X163043313Y-69354363D01*
X162933405Y-69383813D01*
X162823504Y-69413261D01*
X162823500Y-69413262D01*
X162823499Y-69413263D01*
X162617272Y-69509428D01*
X162430861Y-69639953D01*
X162269950Y-69800864D01*
X162203969Y-69895096D01*
X162135615Y-69961105D01*
X162047512Y-69996701D01*
X161952488Y-69996701D01*
X161864385Y-69961105D01*
X161796031Y-69895096D01*
X161730049Y-69800864D01*
X161730047Y-69800861D01*
X161569139Y-69639953D01*
X161382734Y-69509432D01*
X161382728Y-69509429D01*
X161382727Y-69509428D01*
X161176500Y-69413263D01*
X161176496Y-69413261D01*
X161021990Y-69371861D01*
X160956686Y-69354363D01*
X160730000Y-69334531D01*
X160503313Y-69354363D01*
X160393405Y-69383813D01*
X160283504Y-69413261D01*
X160283500Y-69413262D01*
X160283499Y-69413263D01*
X160077272Y-69509428D01*
X159890861Y-69639953D01*
X159729950Y-69800864D01*
X159663969Y-69895096D01*
X159595615Y-69961105D01*
X159507512Y-69996701D01*
X159412488Y-69996701D01*
X159324385Y-69961105D01*
X159256031Y-69895096D01*
X159190049Y-69800864D01*
X159190047Y-69800861D01*
X159029139Y-69639953D01*
X158842734Y-69509432D01*
X158842728Y-69509429D01*
X158842727Y-69509428D01*
X158636500Y-69413263D01*
X158636496Y-69413261D01*
X158416692Y-69354365D01*
X158227295Y-69337794D01*
X158138870Y-69313064D01*
X158065418Y-69257965D01*
X158016930Y-69179990D01*
X158000000Y-69089743D01*
X158000000Y-65249000D01*
X158018954Y-65153712D01*
X158072930Y-65072930D01*
X158153712Y-65018954D01*
X158249000Y-65000000D01*
X158984854Y-65000000D01*
X159049299Y-65008484D01*
G37*
%TD.AperFunction*%
%TD*%
%TA.AperFunction,Conductor*%
%TO.N,+3V3*%
G36*
X144745788Y-91018954D02*
G01*
X144826570Y-91072930D01*
X144880546Y-91153712D01*
X144899500Y-91249000D01*
X144899500Y-93510003D01*
X144897370Y-93542505D01*
X144894318Y-93565686D01*
X144899500Y-93605046D01*
X144899500Y-93605047D01*
X144914956Y-93722447D01*
X144975465Y-93868529D01*
X145071716Y-93993966D01*
X145071718Y-93993968D01*
X145089952Y-94007959D01*
X145090267Y-94008201D01*
X145114755Y-94029676D01*
X148026570Y-96941491D01*
X148080546Y-97022273D01*
X148099500Y-97117561D01*
X148099500Y-108548125D01*
X148080546Y-108643413D01*
X148026570Y-108724195D01*
X144224195Y-112526570D01*
X144143413Y-112580546D01*
X144048125Y-112599500D01*
X140909792Y-112599500D01*
X140817091Y-112581601D01*
X140737717Y-112530476D01*
X140683083Y-112453476D01*
X140661043Y-112361672D01*
X140674765Y-112268261D01*
X140681497Y-112249019D01*
X140711786Y-112162461D01*
X140730091Y-112000000D01*
X140728166Y-111982919D01*
X140711786Y-111837539D01*
X140657789Y-111683226D01*
X140657789Y-111683225D01*
X140570808Y-111544796D01*
X140455204Y-111429192D01*
X140316775Y-111342211D01*
X140316774Y-111342210D01*
X140316773Y-111342210D01*
X140162460Y-111288213D01*
X140000000Y-111269908D01*
X139837539Y-111288213D01*
X139683226Y-111342210D01*
X139544797Y-111429191D01*
X139429190Y-111544798D01*
X139347168Y-111675333D01*
X139343457Y-111681063D01*
X139342835Y-111681993D01*
X139210624Y-111925617D01*
X139167844Y-111982919D01*
X138739750Y-112411013D01*
X138715267Y-112432484D01*
X138696717Y-112446718D01*
X138623444Y-112542211D01*
X138600463Y-112572159D01*
X138539956Y-112718237D01*
X138519317Y-112874999D01*
X138522370Y-112898181D01*
X138524500Y-112930683D01*
X138524500Y-115694317D01*
X138522370Y-115726816D01*
X138519318Y-115750000D01*
X138524500Y-115789361D01*
X138539956Y-115906762D01*
X138600464Y-116052841D01*
X138600465Y-116052843D01*
X138614235Y-116070788D01*
X138696718Y-116178282D01*
X138714952Y-116192273D01*
X138715267Y-116192515D01*
X138739755Y-116213990D01*
X139736012Y-117210247D01*
X139757487Y-117234736D01*
X139771718Y-117253282D01*
X139887613Y-117342211D01*
X139887614Y-117342212D01*
X139887615Y-117342213D01*
X139893976Y-117347094D01*
X139897159Y-117349536D01*
X140043238Y-117410044D01*
X140200000Y-117430683D01*
X140223189Y-117427629D01*
X140255690Y-117425500D01*
X141251000Y-117425500D01*
X141346288Y-117444454D01*
X141427070Y-117498430D01*
X141481046Y-117579212D01*
X141500000Y-117674500D01*
X141500000Y-119547624D01*
X141481046Y-119642912D01*
X141427070Y-119723694D01*
X137824195Y-123326570D01*
X137772625Y-123366140D01*
X137712571Y-123391016D01*
X137648125Y-123399500D01*
X136745857Y-123399500D01*
X136653805Y-123381860D01*
X136574795Y-123331439D01*
X136520023Y-123255380D01*
X136497249Y-123164462D01*
X136509700Y-123071565D01*
X136555611Y-122989853D01*
X136628479Y-122930902D01*
X136717977Y-122903066D01*
X136836972Y-122889657D01*
X136862461Y-122886786D01*
X137016775Y-122832789D01*
X137155204Y-122745808D01*
X137270808Y-122630204D01*
X137357789Y-122491775D01*
X137411786Y-122337461D01*
X137430091Y-122175000D01*
X137411786Y-122012539D01*
X137357789Y-121858225D01*
X137270808Y-121719796D01*
X137155204Y-121604192D01*
X137016775Y-121517211D01*
X137016774Y-121517210D01*
X137016773Y-121517210D01*
X136862460Y-121463213D01*
X136700000Y-121444908D01*
X136537536Y-121463214D01*
X136508709Y-121473300D01*
X136475183Y-121482460D01*
X136460175Y-121485453D01*
X136460172Y-121485453D01*
X136460166Y-121485455D01*
X136194417Y-121564232D01*
X136123655Y-121574500D01*
X135626875Y-121574500D01*
X135531587Y-121555546D01*
X135450805Y-121501570D01*
X134373430Y-120424195D01*
X134319454Y-120343413D01*
X134300500Y-120248125D01*
X134300500Y-119199999D01*
X136869908Y-119199999D01*
X136888213Y-119362460D01*
X136942210Y-119516773D01*
X136942211Y-119516775D01*
X137029192Y-119655204D01*
X137144796Y-119770808D01*
X137283225Y-119857789D01*
X137418826Y-119905238D01*
X137437539Y-119911786D01*
X137599999Y-119930091D01*
X137599999Y-119930090D01*
X137600000Y-119930091D01*
X137762461Y-119911786D01*
X137916775Y-119857789D01*
X138055204Y-119770808D01*
X138170808Y-119655204D01*
X138257789Y-119516775D01*
X138311786Y-119362461D01*
X138330091Y-119200000D01*
X138311786Y-119037539D01*
X138257789Y-118883225D01*
X138170808Y-118744796D01*
X138055204Y-118629192D01*
X137916775Y-118542211D01*
X137916774Y-118542210D01*
X137916773Y-118542210D01*
X137762460Y-118488213D01*
X137600000Y-118469908D01*
X137437539Y-118488213D01*
X137283226Y-118542210D01*
X137144797Y-118629191D01*
X137029191Y-118744797D01*
X136942210Y-118883226D01*
X136888213Y-119037539D01*
X136869908Y-119199999D01*
X134300500Y-119199999D01*
X134300500Y-108600000D01*
X140369908Y-108600000D01*
X140388213Y-108762460D01*
X140422568Y-108860639D01*
X140442211Y-108916775D01*
X140529192Y-109055204D01*
X140644796Y-109170808D01*
X140783225Y-109257789D01*
X140937539Y-109311786D01*
X141100000Y-109330091D01*
X141262461Y-109311786D01*
X141416775Y-109257789D01*
X141555204Y-109170808D01*
X141670808Y-109055204D01*
X141757789Y-108916775D01*
X141811786Y-108762461D01*
X141830091Y-108600000D01*
X141811786Y-108437539D01*
X141801697Y-108408708D01*
X141792532Y-108375156D01*
X141789544Y-108360168D01*
X141789544Y-108360166D01*
X141710768Y-108094422D01*
X141700500Y-108023654D01*
X141700500Y-107776346D01*
X141710768Y-107705578D01*
X141789541Y-107439842D01*
X141789544Y-107439833D01*
X141792532Y-107424838D01*
X141801702Y-107391277D01*
X141811786Y-107362461D01*
X141830091Y-107200000D01*
X141811786Y-107037539D01*
X141757789Y-106883225D01*
X141670808Y-106744796D01*
X141555204Y-106629192D01*
X141416775Y-106542211D01*
X141416774Y-106542210D01*
X141416773Y-106542210D01*
X141262460Y-106488213D01*
X141100000Y-106469908D01*
X140937539Y-106488213D01*
X140783226Y-106542210D01*
X140644797Y-106629191D01*
X140529191Y-106744797D01*
X140442210Y-106883226D01*
X140388213Y-107037539D01*
X140369908Y-107200000D01*
X140388213Y-107362459D01*
X140398297Y-107391277D01*
X140407463Y-107424826D01*
X140410456Y-107439842D01*
X140489231Y-107705576D01*
X140499500Y-107776345D01*
X140499500Y-108023655D01*
X140489231Y-108094425D01*
X140410455Y-108360163D01*
X140407461Y-108375179D01*
X140398299Y-108408711D01*
X140388214Y-108437534D01*
X140369908Y-108600000D01*
X134300500Y-108600000D01*
X134300500Y-104199999D01*
X140069908Y-104199999D01*
X140088213Y-104362460D01*
X140142210Y-104516773D01*
X140142211Y-104516775D01*
X140229192Y-104655204D01*
X140344796Y-104770808D01*
X140483225Y-104857789D01*
X140637539Y-104911786D01*
X140800000Y-104930091D01*
X140962461Y-104911786D01*
X141116775Y-104857789D01*
X141255204Y-104770808D01*
X141370808Y-104655204D01*
X141457789Y-104516775D01*
X141511786Y-104362461D01*
X141530091Y-104200000D01*
X141511786Y-104037539D01*
X141457789Y-103883225D01*
X141370808Y-103744796D01*
X141255204Y-103629192D01*
X141116775Y-103542211D01*
X141116774Y-103542210D01*
X141116773Y-103542210D01*
X140962460Y-103488213D01*
X140800000Y-103469908D01*
X140637539Y-103488213D01*
X140483226Y-103542210D01*
X140344797Y-103629191D01*
X140229191Y-103744797D01*
X140142210Y-103883226D01*
X140088213Y-104037539D01*
X140069908Y-104199999D01*
X134300500Y-104199999D01*
X134300500Y-101800000D01*
X140069908Y-101800000D01*
X140088213Y-101962460D01*
X140142210Y-102116773D01*
X140142211Y-102116775D01*
X140229192Y-102255204D01*
X140344796Y-102370808D01*
X140483225Y-102457789D01*
X140637539Y-102511786D01*
X140800000Y-102530091D01*
X140962461Y-102511786D01*
X141116775Y-102457789D01*
X141255204Y-102370808D01*
X141370808Y-102255204D01*
X141457789Y-102116775D01*
X141511786Y-101962461D01*
X141530091Y-101800000D01*
X141511786Y-101637539D01*
X141457789Y-101483225D01*
X141370808Y-101344796D01*
X141255204Y-101229192D01*
X141116775Y-101142211D01*
X141116774Y-101142210D01*
X141116773Y-101142210D01*
X140962460Y-101088213D01*
X140800000Y-101069908D01*
X140637539Y-101088213D01*
X140483226Y-101142210D01*
X140344797Y-101229191D01*
X140229191Y-101344797D01*
X140142210Y-101483226D01*
X140088213Y-101637539D01*
X140069908Y-101800000D01*
X134300500Y-101800000D01*
X134300500Y-93155683D01*
X134302630Y-93123181D01*
X134305682Y-93099999D01*
X134296478Y-93030091D01*
X134285044Y-92943238D01*
X134224536Y-92797159D01*
X134152450Y-92703215D01*
X134152450Y-92703214D01*
X134152449Y-92703214D01*
X134128283Y-92671719D01*
X134128282Y-92671718D01*
X134109728Y-92657481D01*
X134085247Y-92636012D01*
X134072930Y-92623695D01*
X134018954Y-92542913D01*
X134000000Y-92447625D01*
X134000000Y-91249000D01*
X134018954Y-91153712D01*
X134072930Y-91072930D01*
X134153712Y-91018954D01*
X134249000Y-91000000D01*
X144650500Y-91000000D01*
X144745788Y-91018954D01*
G37*
%TD.AperFunction*%
%TD*%
%TA.AperFunction,Conductor*%
%TO.N,+3V3*%
G36*
X125466137Y-89518954D02*
G01*
X125527123Y-89559703D01*
X125544795Y-89570807D01*
X125544796Y-89570808D01*
X125683225Y-89657789D01*
X125837539Y-89711786D01*
X126000000Y-89730091D01*
X126162461Y-89711786D01*
X126316775Y-89657789D01*
X126455204Y-89570808D01*
X126455206Y-89570805D01*
X126472876Y-89559703D01*
X126533863Y-89518954D01*
X126629151Y-89500000D01*
X127025079Y-89500000D01*
X127107318Y-89513973D01*
X127180327Y-89554324D01*
X127235913Y-89616523D01*
X127267836Y-89693591D01*
X127272514Y-89776878D01*
X127269908Y-89800002D01*
X127288213Y-89962460D01*
X127309676Y-90023796D01*
X127342211Y-90116775D01*
X127429192Y-90255204D01*
X127544796Y-90370808D01*
X127683225Y-90457789D01*
X127837470Y-90511762D01*
X127837539Y-90511786D01*
X127999998Y-90530091D01*
X127999998Y-90530090D01*
X128000000Y-90530091D01*
X128043381Y-90525203D01*
X128117552Y-90527978D01*
X128187611Y-90552492D01*
X128247332Y-90596567D01*
X131426570Y-93775806D01*
X131480546Y-93856588D01*
X131499500Y-93951876D01*
X131499500Y-99751000D01*
X131480546Y-99846288D01*
X131426570Y-99927070D01*
X131345788Y-99981046D01*
X131250500Y-100000000D01*
X127603140Y-100000000D01*
X127507852Y-99981046D01*
X127427070Y-99927070D01*
X125572840Y-98072840D01*
X125522201Y-97999745D01*
X125500474Y-97913519D01*
X125510431Y-97825156D01*
X125550801Y-97745926D01*
X125586152Y-97713614D01*
X125585367Y-97712829D01*
X125605202Y-97692992D01*
X125605206Y-97692991D01*
X125720810Y-97577387D01*
X125807791Y-97438958D01*
X125861788Y-97284644D01*
X125880093Y-97122183D01*
X125861788Y-96959722D01*
X125807791Y-96805408D01*
X125720810Y-96666979D01*
X125605206Y-96551375D01*
X125466777Y-96464394D01*
X125466776Y-96464393D01*
X125466775Y-96464393D01*
X125312462Y-96410396D01*
X125150002Y-96392091D01*
X124987541Y-96410396D01*
X124833228Y-96464393D01*
X124694799Y-96551374D01*
X124694798Y-96551374D01*
X124694798Y-96551375D01*
X124579194Y-96666979D01*
X124579192Y-96666981D01*
X124559356Y-96686818D01*
X124558570Y-96686032D01*
X124526243Y-96721394D01*
X124447015Y-96761757D01*
X124358656Y-96771709D01*
X124272434Y-96749981D01*
X124199344Y-96699344D01*
X123022182Y-95522182D01*
X127419910Y-95522182D01*
X127438215Y-95684643D01*
X127486343Y-95822183D01*
X127492213Y-95838958D01*
X127579194Y-95977387D01*
X127694798Y-96092991D01*
X127833227Y-96179972D01*
X127987541Y-96233969D01*
X128150002Y-96252274D01*
X128312463Y-96233969D01*
X128466777Y-96179972D01*
X128605206Y-96092991D01*
X128720810Y-95977387D01*
X128807791Y-95838958D01*
X128861788Y-95684644D01*
X128880093Y-95522183D01*
X128879398Y-95516019D01*
X128861788Y-95359722D01*
X128807791Y-95205408D01*
X128720810Y-95066979D01*
X128605206Y-94951375D01*
X128466777Y-94864394D01*
X128466776Y-94864393D01*
X128466775Y-94864393D01*
X128312462Y-94810396D01*
X128150002Y-94792091D01*
X127987541Y-94810396D01*
X127833228Y-94864393D01*
X127694799Y-94951374D01*
X127579193Y-95066980D01*
X127492212Y-95205409D01*
X127438215Y-95359722D01*
X127419910Y-95522182D01*
X123022182Y-95522182D01*
X122999992Y-95499992D01*
X118700001Y-91700001D01*
X118700000Y-91700000D01*
X118699998Y-91700000D01*
X103649000Y-91700000D01*
X103553712Y-91681046D01*
X103472930Y-91627070D01*
X103418954Y-91546288D01*
X103400000Y-91451000D01*
X103400000Y-89749000D01*
X103418954Y-89653712D01*
X103472930Y-89572930D01*
X103553712Y-89518954D01*
X103649000Y-89500000D01*
X125370849Y-89500000D01*
X125466137Y-89518954D01*
G37*
%TD.AperFunction*%
%TD*%
%TA.AperFunction,Conductor*%
%TO.N,/VIN_FUSED*%
G36*
X119992148Y-80018954D02*
G01*
X120072930Y-80072930D01*
X120927070Y-80927070D01*
X120981046Y-81007852D01*
X121000000Y-81103140D01*
X121000000Y-85396860D01*
X120981046Y-85492148D01*
X120927070Y-85572930D01*
X120072930Y-86427070D01*
X119992148Y-86481046D01*
X119896860Y-86500000D01*
X107103140Y-86500000D01*
X107007852Y-86481046D01*
X106927070Y-86427070D01*
X106072930Y-85572930D01*
X106018954Y-85492148D01*
X106000000Y-85396860D01*
X106000000Y-81103140D01*
X106018954Y-81007852D01*
X106072930Y-80927070D01*
X106927070Y-80072930D01*
X107007852Y-80018954D01*
X107103140Y-80000000D01*
X119896860Y-80000000D01*
X119992148Y-80018954D01*
G37*
%TD.AperFunction*%
%TD*%
%TA.AperFunction,Conductor*%
%TO.N,+3V3*%
G36*
X151942913Y-93018954D02*
G01*
X152023695Y-93072930D01*
X153626570Y-94675805D01*
X153680546Y-94756587D01*
X153699500Y-94851875D01*
X153699500Y-105623655D01*
X153689231Y-105694425D01*
X153610455Y-105960163D01*
X153607461Y-105975179D01*
X153598299Y-106008711D01*
X153588214Y-106037534D01*
X153569908Y-106200000D01*
X153588213Y-106362460D01*
X153642210Y-106516773D01*
X153642211Y-106516775D01*
X153729192Y-106655204D01*
X153844796Y-106770808D01*
X153844798Y-106770809D01*
X153883477Y-106795113D01*
X153945677Y-106850699D01*
X153986027Y-106923708D01*
X153998782Y-106998781D01*
X154000000Y-106999999D01*
X154000000Y-107000000D01*
X155650500Y-107000000D01*
X155745788Y-107018954D01*
X155826570Y-107072930D01*
X155880546Y-107153712D01*
X155899500Y-107249000D01*
X155899500Y-108530544D01*
X155883128Y-108619342D01*
X155836165Y-108696464D01*
X155764787Y-108751767D01*
X155678380Y-108777978D01*
X155587540Y-108788213D01*
X155433226Y-108842210D01*
X155294797Y-108929191D01*
X155179191Y-109044797D01*
X155092210Y-109183226D01*
X155038213Y-109337539D01*
X155019908Y-109499999D01*
X155038213Y-109662460D01*
X155092210Y-109816773D01*
X155092211Y-109816775D01*
X155179192Y-109955204D01*
X155294796Y-110070808D01*
X155433225Y-110157789D01*
X155587539Y-110211786D01*
X155600497Y-110213246D01*
X155678380Y-110222022D01*
X155764787Y-110248233D01*
X155836165Y-110303536D01*
X155883128Y-110380658D01*
X155899500Y-110469456D01*
X155899500Y-111030544D01*
X155883128Y-111119342D01*
X155836165Y-111196464D01*
X155764787Y-111251767D01*
X155678380Y-111277978D01*
X155587540Y-111288213D01*
X155433226Y-111342210D01*
X155294797Y-111429191D01*
X155179191Y-111544797D01*
X155092210Y-111683226D01*
X155038213Y-111837539D01*
X155019908Y-112000000D01*
X155038213Y-112162460D01*
X155092210Y-112316773D01*
X155092211Y-112316775D01*
X155179192Y-112455204D01*
X155294796Y-112570808D01*
X155433225Y-112657789D01*
X155587539Y-112711786D01*
X155600497Y-112713246D01*
X155678380Y-112722022D01*
X155764787Y-112748233D01*
X155836165Y-112803536D01*
X155883128Y-112880658D01*
X155899500Y-112969456D01*
X155899500Y-116751000D01*
X155880546Y-116846288D01*
X155826570Y-116927070D01*
X155745788Y-116981046D01*
X155650500Y-117000000D01*
X150249000Y-117000000D01*
X150153712Y-116981046D01*
X150072930Y-116927070D01*
X150018954Y-116846288D01*
X150000000Y-116751000D01*
X150000000Y-110052374D01*
X150018954Y-109957086D01*
X150072930Y-109876305D01*
X150585243Y-109363991D01*
X150609732Y-109342514D01*
X150628282Y-109328282D01*
X150724536Y-109202841D01*
X150785044Y-109056762D01*
X150800500Y-108939361D01*
X150805682Y-108900000D01*
X150802629Y-108876816D01*
X150800500Y-108844317D01*
X150800500Y-100587437D01*
X150816052Y-100500817D01*
X150860765Y-100425017D01*
X150929055Y-100369506D01*
X151012389Y-100341218D01*
X151100360Y-100343687D01*
X151181974Y-100376601D01*
X151303225Y-100452789D01*
X151440481Y-100500817D01*
X151457539Y-100506786D01*
X151619999Y-100525091D01*
X151619999Y-100525090D01*
X151620000Y-100525091D01*
X151782461Y-100506786D01*
X151936775Y-100452789D01*
X152075204Y-100365808D01*
X152190808Y-100250204D01*
X152277789Y-100111775D01*
X152331786Y-99957461D01*
X152350091Y-99795000D01*
X152331786Y-99632539D01*
X152277789Y-99478225D01*
X152190808Y-99339796D01*
X152075204Y-99224192D01*
X151980974Y-99164983D01*
X151936774Y-99137210D01*
X151763351Y-99076527D01*
X151687241Y-99033662D01*
X151630619Y-98967150D01*
X151611287Y-98914620D01*
X151589380Y-98974149D01*
X151532757Y-99040662D01*
X151456647Y-99083526D01*
X151303226Y-99137209D01*
X151217762Y-99190910D01*
X151181974Y-99213398D01*
X151100360Y-99246313D01*
X151012389Y-99248782D01*
X150929055Y-99220494D01*
X150860765Y-99164983D01*
X150816052Y-99089183D01*
X150800500Y-99002563D01*
X150800500Y-98700004D01*
X150816052Y-98613384D01*
X150860765Y-98537584D01*
X150929054Y-98482073D01*
X151012389Y-98453785D01*
X151100360Y-98456254D01*
X151181975Y-98489169D01*
X151283225Y-98552789D01*
X151437539Y-98606786D01*
X151456647Y-98613472D01*
X151532757Y-98656336D01*
X151589380Y-98722848D01*
X151608711Y-98775378D01*
X151630620Y-98715848D01*
X151687243Y-98649336D01*
X151763344Y-98606476D01*
X151916775Y-98552789D01*
X152055204Y-98465808D01*
X152170808Y-98350204D01*
X152257789Y-98211775D01*
X152311786Y-98057461D01*
X152330091Y-97895000D01*
X152311786Y-97732539D01*
X152257789Y-97578225D01*
X152170808Y-97439796D01*
X152055204Y-97324192D01*
X151916775Y-97237211D01*
X151916774Y-97237210D01*
X151916773Y-97237210D01*
X151762460Y-97183213D01*
X151600000Y-97164908D01*
X151437539Y-97183213D01*
X151283224Y-97237210D01*
X151175369Y-97304980D01*
X151099057Y-97336729D01*
X151016556Y-97341748D01*
X150936958Y-97319486D01*
X150869032Y-97272395D01*
X150820263Y-97205663D01*
X150796025Y-97126648D01*
X150785044Y-97043238D01*
X150724536Y-96897159D01*
X150652450Y-96803215D01*
X150652450Y-96803214D01*
X150652449Y-96803214D01*
X150628283Y-96771719D01*
X150628282Y-96771718D01*
X150609728Y-96757481D01*
X150585247Y-96736012D01*
X150072930Y-96223695D01*
X150018954Y-96142913D01*
X150000000Y-96047625D01*
X150000000Y-93249000D01*
X150018954Y-93153712D01*
X150072930Y-93072930D01*
X150153712Y-93018954D01*
X150249000Y-93000000D01*
X151847625Y-93000000D01*
X151942913Y-93018954D01*
G37*
%TD.AperFunction*%
%TD*%
%TA.AperFunction,Conductor*%
%TO.N,DTR*%
G36*
X189007615Y-73134649D02*
G01*
X189013780Y-73140890D01*
X189161623Y-73495498D01*
X189162524Y-73500000D01*
X189161623Y-73504502D01*
X189013780Y-73859109D01*
X189007615Y-73865350D01*
X188998844Y-73865551D01*
X188370063Y-73627859D01*
X188364575Y-73623567D01*
X188362500Y-73616915D01*
X188362500Y-73383085D01*
X188364575Y-73376433D01*
X188370063Y-73372141D01*
X188998845Y-73134448D01*
X189007615Y-73134649D01*
G37*
%TD.AperFunction*%
%TD*%
%TA.AperFunction,Conductor*%
%TO.N,DTR*%
G36*
X181983014Y-75651643D02*
G01*
X182148356Y-75816985D01*
X182151592Y-75823155D01*
X182150747Y-75830071D01*
X181874206Y-76442760D01*
X181867862Y-76448820D01*
X181859090Y-76448767D01*
X181503804Y-76302563D01*
X181499983Y-76300016D01*
X181497436Y-76296195D01*
X181351232Y-75940909D01*
X181351179Y-75932137D01*
X181357237Y-75925794D01*
X181969928Y-75649251D01*
X181976844Y-75648407D01*
X181983014Y-75651643D01*
G37*
%TD.AperFunction*%
%TD*%
%TA.AperFunction,Conductor*%
%TO.N,FPGA_INT*%
G36*
X154398264Y-105752325D02*
G01*
X154402483Y-105758375D01*
X154504890Y-106103835D01*
X154504243Y-106112174D01*
X154498194Y-106117951D01*
X154304522Y-106199105D01*
X154300000Y-106200014D01*
X154295478Y-106199105D01*
X154101805Y-106117951D01*
X154095756Y-106112174D01*
X154095109Y-106103835D01*
X154197517Y-105758375D01*
X154201736Y-105752325D01*
X154208735Y-105750000D01*
X154391265Y-105750000D01*
X154398264Y-105752325D01*
G37*
%TD.AperFunction*%
%TD*%
%TA.AperFunction,Conductor*%
%TO.N,FPGA_INT*%
G36*
X135699555Y-63440475D02*
G01*
X135703109Y-63445678D01*
X136159748Y-64793773D01*
X136160059Y-64800187D01*
X136156939Y-64805800D01*
X136025800Y-64936939D01*
X136020187Y-64940059D01*
X136013773Y-64939748D01*
X134665678Y-64483109D01*
X134660475Y-64479555D01*
X134657870Y-64473818D01*
X134658616Y-64467566D01*
X134957438Y-63743784D01*
X134959979Y-63739979D01*
X134963784Y-63737438D01*
X135687566Y-63438616D01*
X135693818Y-63437870D01*
X135699555Y-63440475D01*
G37*
%TD.AperFunction*%
%TD*%
%TA.AperFunction,Conductor*%
%TO.N,ESP32_SDA*%
G36*
X126612434Y-63438616D02*
G01*
X127336212Y-63737437D01*
X127340020Y-63739979D01*
X127342562Y-63743787D01*
X127641382Y-64467562D01*
X127642129Y-64473818D01*
X127639524Y-64479555D01*
X127634321Y-64483109D01*
X126286226Y-64939748D01*
X126279812Y-64940059D01*
X126274199Y-64936939D01*
X126143060Y-64805800D01*
X126139940Y-64800187D01*
X126140251Y-64793773D01*
X126246839Y-64479104D01*
X126596891Y-63445676D01*
X126600444Y-63440475D01*
X126606181Y-63437870D01*
X126612434Y-63438616D01*
G37*
%TD.AperFunction*%
%TD*%
%TA.AperFunction,Conductor*%
%TO.N,ESP32_SDA*%
G36*
X136612174Y-121970756D02*
G01*
X136617951Y-121976805D01*
X136699105Y-122170478D01*
X136700014Y-122175000D01*
X136699105Y-122179522D01*
X136617951Y-122373194D01*
X136612174Y-122379243D01*
X136603835Y-122379890D01*
X136389658Y-122316400D01*
X136258374Y-122277482D01*
X136252325Y-122273264D01*
X136250000Y-122266265D01*
X136250000Y-122083735D01*
X136252325Y-122076736D01*
X136258374Y-122072517D01*
X136603836Y-121970109D01*
X136612174Y-121970756D01*
G37*
%TD.AperFunction*%
%TD*%
%TA.AperFunction,Conductor*%
%TO.N,/FPGA_LED_A*%
G36*
X140779555Y-63440475D02*
G01*
X140783109Y-63445678D01*
X141239748Y-64793773D01*
X141240059Y-64800187D01*
X141236939Y-64805800D01*
X141105800Y-64936939D01*
X141100187Y-64940059D01*
X141093773Y-64939748D01*
X139745678Y-64483109D01*
X139740475Y-64479555D01*
X139737870Y-64473818D01*
X139738616Y-64467566D01*
X140037438Y-63743784D01*
X140039979Y-63739979D01*
X140043784Y-63737438D01*
X140767566Y-63438616D01*
X140773818Y-63437870D01*
X140779555Y-63440475D01*
G37*
%TD.AperFunction*%
%TD*%
%TA.AperFunction,Conductor*%
%TO.N,/FPGA_LED_A*%
G36*
X162504518Y-118000893D02*
G01*
X162698194Y-118082048D01*
X162704243Y-118087825D01*
X162704890Y-118096164D01*
X162602483Y-118441625D01*
X162598264Y-118447675D01*
X162591265Y-118450000D01*
X162408735Y-118450000D01*
X162401736Y-118447675D01*
X162397517Y-118441625D01*
X162295109Y-118096164D01*
X162295756Y-118087825D01*
X162301803Y-118082049D01*
X162495481Y-118000893D01*
X162500000Y-117999985D01*
X162504518Y-118000893D01*
G37*
%TD.AperFunction*%
%TD*%
%TA.AperFunction,Conductor*%
%TO.N,FPGA_GPIO*%
G36*
X155498264Y-105752325D02*
G01*
X155502483Y-105758375D01*
X155604890Y-106103835D01*
X155604243Y-106112174D01*
X155598194Y-106117951D01*
X155404522Y-106199105D01*
X155400000Y-106200014D01*
X155395478Y-106199105D01*
X155201805Y-106117951D01*
X155195756Y-106112174D01*
X155195109Y-106103835D01*
X155297517Y-105758375D01*
X155301736Y-105752325D01*
X155308735Y-105750000D01*
X155491265Y-105750000D01*
X155498264Y-105752325D01*
G37*
%TD.AperFunction*%
%TD*%
%TA.AperFunction,Conductor*%
%TO.N,FPGA_GPIO*%
G36*
X138239555Y-63440475D02*
G01*
X138243109Y-63445678D01*
X138699748Y-64793773D01*
X138700059Y-64800187D01*
X138696939Y-64805800D01*
X138565800Y-64936939D01*
X138560187Y-64940059D01*
X138553773Y-64939748D01*
X137205678Y-64483109D01*
X137200475Y-64479555D01*
X137197870Y-64473818D01*
X137198616Y-64467566D01*
X137497438Y-63743784D01*
X137499979Y-63739979D01*
X137503784Y-63737438D01*
X138227566Y-63438616D01*
X138233818Y-63437870D01*
X138239555Y-63440475D01*
G37*
%TD.AperFunction*%
%TD*%
%TA.AperFunction,Conductor*%
%TO.N,MOTOR2_STEP_IN*%
G36*
X162698916Y-97201751D02*
G01*
X162703230Y-97206480D01*
X163379706Y-98563502D01*
X163380894Y-98569704D01*
X163378685Y-98575620D01*
X163373724Y-98579527D01*
X162604489Y-98899134D01*
X162600000Y-98900029D01*
X162595511Y-98899134D01*
X161826275Y-98579527D01*
X161821314Y-98575620D01*
X161819105Y-98569704D01*
X161820292Y-98563504D01*
X162496769Y-97206480D01*
X162501084Y-97201751D01*
X162507241Y-97200000D01*
X162692759Y-97200000D01*
X162698916Y-97201751D01*
G37*
%TD.AperFunction*%
%TD*%
%TA.AperFunction,Conductor*%
%TO.N,MOTOR2_STEP_IN*%
G36*
X154922434Y-70338616D02*
G01*
X155646212Y-70637437D01*
X155650020Y-70639979D01*
X155652562Y-70643787D01*
X155951382Y-71367562D01*
X155952129Y-71373818D01*
X155949524Y-71379555D01*
X155944321Y-71383109D01*
X154596226Y-71839748D01*
X154589812Y-71840059D01*
X154584199Y-71836939D01*
X154453060Y-71705800D01*
X154449940Y-71700187D01*
X154450251Y-71693773D01*
X154556839Y-71379104D01*
X154906891Y-70345676D01*
X154910444Y-70340475D01*
X154916181Y-70337870D01*
X154922434Y-70338616D01*
G37*
%TD.AperFunction*%
%TD*%
%TA.AperFunction,Conductor*%
%TO.N,I2C2_INT*%
G36*
X112004488Y-100750865D02*
G01*
X112773724Y-101070472D01*
X112778685Y-101074379D01*
X112780894Y-101080295D01*
X112779706Y-101086497D01*
X112103230Y-102443520D01*
X112098916Y-102448249D01*
X112092759Y-102450000D01*
X111907241Y-102450000D01*
X111901084Y-102448249D01*
X111896770Y-102443520D01*
X111220293Y-101086497D01*
X111219105Y-101080295D01*
X111221314Y-101074379D01*
X111226273Y-101070473D01*
X111995512Y-100750864D01*
X111999999Y-100749970D01*
X112004488Y-100750865D01*
G37*
%TD.AperFunction*%
%TD*%
%TA.AperFunction,Conductor*%
%TO.N,I2C2_INT*%
G36*
X143801835Y-117917870D02*
G01*
X143996169Y-117997435D01*
X144000009Y-117999990D01*
X144002564Y-118003830D01*
X144082128Y-118198162D01*
X144082320Y-118206524D01*
X144076881Y-118212878D01*
X143760190Y-118384741D01*
X143752929Y-118386037D01*
X143746336Y-118382731D01*
X143617268Y-118253663D01*
X143613962Y-118247070D01*
X143615257Y-118239811D01*
X143787123Y-117923115D01*
X143793475Y-117917679D01*
X143801835Y-117917870D01*
G37*
%TD.AperFunction*%
%TD*%
%TA.AperFunction,Conductor*%
%TO.N,I2C3_INT*%
G36*
X105285730Y-100426378D02*
G01*
X105289275Y-100431603D01*
X105770494Y-101869504D01*
X105770788Y-101875898D01*
X105767672Y-101881490D01*
X105636490Y-102012672D01*
X105630898Y-102015788D01*
X105624504Y-102015494D01*
X104186603Y-101534275D01*
X104181378Y-101530730D01*
X104178756Y-101524985D01*
X104179501Y-101518715D01*
X104497439Y-100748780D01*
X104499978Y-100744978D01*
X104503780Y-100742439D01*
X105273715Y-100424501D01*
X105279985Y-100423756D01*
X105285730Y-100426378D01*
G37*
%TD.AperFunction*%
%TD*%
%TA.AperFunction,Conductor*%
%TO.N,I2C3_INT*%
G36*
X143901835Y-118917870D02*
G01*
X144096169Y-118997435D01*
X144100009Y-118999990D01*
X144102564Y-119003830D01*
X144182128Y-119198162D01*
X144182320Y-119206524D01*
X144176881Y-119212878D01*
X143860190Y-119384741D01*
X143852929Y-119386037D01*
X143846336Y-119382731D01*
X143717268Y-119253663D01*
X143713962Y-119247070D01*
X143715257Y-119239811D01*
X143887123Y-118923115D01*
X143893475Y-118917679D01*
X143901835Y-118917870D01*
G37*
%TD.AperFunction*%
%TD*%
%TA.AperFunction,Conductor*%
%TO.N,SERVO*%
G36*
X115810680Y-123354127D02*
G01*
X115814323Y-123359068D01*
X116274188Y-124545037D01*
X116478994Y-125073219D01*
X116479533Y-125079862D01*
X116476358Y-125085722D01*
X116345722Y-125216358D01*
X116339862Y-125219533D01*
X116333220Y-125218994D01*
X114619068Y-124554323D01*
X114614127Y-124550680D01*
X114611711Y-124545037D01*
X114612484Y-124538947D01*
X114957439Y-123703779D01*
X114959978Y-123699978D01*
X114963779Y-123697439D01*
X115798948Y-123352483D01*
X115805037Y-123351711D01*
X115810680Y-123354127D01*
G37*
%TD.AperFunction*%
%TD*%
%TA.AperFunction,Conductor*%
%TO.N,SERVO*%
G36*
X144701137Y-119517585D02*
G01*
X144896169Y-119597435D01*
X144900009Y-119599990D01*
X144902564Y-119603830D01*
X144981798Y-119797355D01*
X144981825Y-119806152D01*
X144975716Y-119812482D01*
X144642845Y-119960195D01*
X144635960Y-119961004D01*
X144629826Y-119957774D01*
X144500750Y-119828698D01*
X144497390Y-119821675D01*
X144499180Y-119814103D01*
X144686863Y-119522086D01*
X144693185Y-119517255D01*
X144701137Y-119517585D01*
G37*
%TD.AperFunction*%
%TD*%
%TA.AperFunction,Conductor*%
%TO.N,SCL4*%
G36*
X138241625Y-128497517D02*
G01*
X138247675Y-128501736D01*
X138250000Y-128508735D01*
X138250000Y-128691265D01*
X138247675Y-128698264D01*
X138241625Y-128702482D01*
X138144320Y-128731327D01*
X137896164Y-128804890D01*
X137887825Y-128804243D01*
X137882048Y-128798194D01*
X137800893Y-128604518D01*
X137799985Y-128600000D01*
X137800893Y-128595481D01*
X137882049Y-128401803D01*
X137887825Y-128395756D01*
X137896163Y-128395109D01*
X138241625Y-128497517D01*
G37*
%TD.AperFunction*%
%TD*%
%TA.AperFunction,Conductor*%
%TO.N,SCL4*%
G36*
X188601835Y-123617870D02*
G01*
X188796169Y-123697435D01*
X188800009Y-123699990D01*
X188802564Y-123703830D01*
X188882128Y-123898162D01*
X188882320Y-123906524D01*
X188876881Y-123912878D01*
X188560190Y-124084741D01*
X188552929Y-124086037D01*
X188546336Y-124082731D01*
X188417268Y-123953663D01*
X188413962Y-123947070D01*
X188415257Y-123939811D01*
X188587123Y-123623115D01*
X188593475Y-123617679D01*
X188601835Y-123617870D01*
G37*
%TD.AperFunction*%
%TD*%
%TA.AperFunction,Conductor*%
%TO.N,SDA4*%
G36*
X189601835Y-123617870D02*
G01*
X189796169Y-123697435D01*
X189800009Y-123699990D01*
X189802564Y-123703830D01*
X189882128Y-123898162D01*
X189882320Y-123906524D01*
X189876881Y-123912878D01*
X189560190Y-124084741D01*
X189552929Y-124086037D01*
X189546336Y-124082731D01*
X189417268Y-123953663D01*
X189413962Y-123947070D01*
X189415257Y-123939811D01*
X189587123Y-123623115D01*
X189593475Y-123617679D01*
X189601835Y-123617870D01*
G37*
%TD.AperFunction*%
%TD*%
%TA.AperFunction,Conductor*%
%TO.N,SDA4*%
G36*
X138841625Y-129097517D02*
G01*
X138847675Y-129101736D01*
X138850000Y-129108735D01*
X138850000Y-129291265D01*
X138847675Y-129298264D01*
X138841625Y-129302482D01*
X138744320Y-129331327D01*
X138496164Y-129404890D01*
X138487825Y-129404243D01*
X138482048Y-129398194D01*
X138441943Y-129302483D01*
X138400893Y-129204519D01*
X138399985Y-129199999D01*
X138400892Y-129195482D01*
X138482049Y-129001803D01*
X138487825Y-128995756D01*
X138496163Y-128995109D01*
X138841625Y-129097517D01*
G37*
%TD.AperFunction*%
%TD*%
%TA.AperFunction,Conductor*%
%TO.N,SCL5*%
G36*
X138053663Y-127017268D02*
G01*
X138182731Y-127146336D01*
X138186037Y-127152929D01*
X138184741Y-127160190D01*
X138012878Y-127476881D01*
X138006524Y-127482320D01*
X137998162Y-127482128D01*
X137803830Y-127402564D01*
X137799990Y-127400009D01*
X137797435Y-127396169D01*
X137717871Y-127201837D01*
X137717679Y-127193475D01*
X137723115Y-127187123D01*
X138039811Y-127015257D01*
X138047070Y-127013962D01*
X138053663Y-127017268D01*
G37*
%TD.AperFunction*%
%TD*%
%TA.AperFunction,Conductor*%
%TO.N,SCL5*%
G36*
X178204518Y-123700893D02*
G01*
X178398194Y-123782048D01*
X178404243Y-123787825D01*
X178404890Y-123796164D01*
X178302483Y-124141625D01*
X178298264Y-124147675D01*
X178291265Y-124150000D01*
X178108735Y-124150000D01*
X178101736Y-124147675D01*
X178097517Y-124141625D01*
X177995109Y-123796164D01*
X177995756Y-123787825D01*
X178001803Y-123782049D01*
X178195481Y-123700893D01*
X178200000Y-123699985D01*
X178204518Y-123700893D01*
G37*
%TD.AperFunction*%
%TD*%
%TA.AperFunction,Conductor*%
%TO.N,SDA5*%
G36*
X179204518Y-123700893D02*
G01*
X179398194Y-123782048D01*
X179404243Y-123787825D01*
X179404890Y-123796164D01*
X179302483Y-124141625D01*
X179298264Y-124147675D01*
X179291265Y-124150000D01*
X179108735Y-124150000D01*
X179101736Y-124147675D01*
X179097517Y-124141625D01*
X178995109Y-123796164D01*
X178995756Y-123787825D01*
X179001803Y-123782049D01*
X179195481Y-123700893D01*
X179200000Y-123699985D01*
X179204518Y-123700893D01*
G37*
%TD.AperFunction*%
%TD*%
%TA.AperFunction,Conductor*%
%TO.N,SDA5*%
G36*
X138653663Y-127617268D02*
G01*
X138782731Y-127746336D01*
X138786037Y-127752929D01*
X138784741Y-127760190D01*
X138612878Y-128076881D01*
X138606524Y-128082320D01*
X138598162Y-128082128D01*
X138403830Y-128002564D01*
X138399990Y-128000009D01*
X138397435Y-127996169D01*
X138317871Y-127801837D01*
X138317679Y-127793475D01*
X138323115Y-127787123D01*
X138639811Y-127615257D01*
X138647070Y-127613962D01*
X138653663Y-127617268D01*
G37*
%TD.AperFunction*%
%TD*%
%TA.AperFunction,Conductor*%
%TO.N,ESP32_SCL*%
G36*
X134685189Y-123090257D02*
G01*
X135001882Y-123262122D01*
X135007320Y-123268475D01*
X135007128Y-123276837D01*
X134927564Y-123471169D01*
X134925009Y-123475009D01*
X134921169Y-123477564D01*
X134726837Y-123557128D01*
X134718475Y-123557320D01*
X134712122Y-123551882D01*
X134540257Y-123235189D01*
X134538962Y-123227929D01*
X134542266Y-123221338D01*
X134671338Y-123092266D01*
X134677929Y-123088962D01*
X134685189Y-123090257D01*
G37*
%TD.AperFunction*%
%TD*%
%TA.AperFunction,Conductor*%
%TO.N,ESP32_SCL*%
G36*
X124799382Y-63741272D02*
G01*
X124803696Y-63746534D01*
X125102082Y-64469260D01*
X125102270Y-64477703D01*
X125096726Y-64484073D01*
X123962776Y-65082251D01*
X123955569Y-65083472D01*
X123949044Y-65080176D01*
X123817919Y-64949051D01*
X123815071Y-64944414D01*
X123814629Y-64938993D01*
X123998469Y-63749900D01*
X124002412Y-63742812D01*
X124010020Y-63739991D01*
X124792874Y-63739299D01*
X124799382Y-63741272D01*
G37*
%TD.AperFunction*%
%TD*%
%TA.AperFunction,Conductor*%
%TO.N,+3V3*%
G36*
X183991307Y-63990108D02*
G01*
X184373124Y-64088773D01*
X184378764Y-64092133D01*
X184381706Y-64098002D01*
X184381024Y-64104533D01*
X184301898Y-64297806D01*
X184299317Y-64301672D01*
X184149675Y-64450379D01*
X184144210Y-64453444D01*
X184137947Y-64453250D01*
X184132683Y-64449852D01*
X183935797Y-64228325D01*
X183932842Y-64220553D01*
X183932842Y-63990108D01*
X183934938Y-63983426D01*
X183940475Y-63979138D01*
X183947469Y-63978780D01*
X183991307Y-63990108D01*
G37*
%TD.AperFunction*%
%TD*%
%TA.AperFunction,Conductor*%
%TO.N,+3V3*%
G36*
X182940898Y-63972927D02*
G01*
X182947446Y-63977038D01*
X182950000Y-63984335D01*
X182950000Y-64215665D01*
X182947446Y-64222962D01*
X182940898Y-64227072D01*
X182864285Y-64244520D01*
X182595692Y-64305689D01*
X182587743Y-64304686D01*
X182582303Y-64298803D01*
X182552246Y-64227073D01*
X182500893Y-64104519D01*
X182499985Y-64099999D01*
X182500892Y-64095482D01*
X182582304Y-63901194D01*
X182587743Y-63895313D01*
X182595690Y-63894310D01*
X182940898Y-63972927D01*
G37*
%TD.AperFunction*%
%TD*%
%TA.AperFunction,Conductor*%
%TO.N,BATT{slash}4*%
G36*
X172801835Y-97117870D02*
G01*
X172996169Y-97197435D01*
X173000009Y-97199990D01*
X173002564Y-97203830D01*
X173082128Y-97398162D01*
X173082320Y-97406524D01*
X173076881Y-97412878D01*
X172760190Y-97584741D01*
X172752929Y-97586037D01*
X172746336Y-97582731D01*
X172617268Y-97453663D01*
X172613962Y-97447070D01*
X172615257Y-97439811D01*
X172787123Y-97123115D01*
X172793475Y-97117679D01*
X172801835Y-97117870D01*
G37*
%TD.AperFunction*%
%TD*%
%TA.AperFunction,Conductor*%
%TO.N,BATT{slash}4*%
G36*
X171798264Y-119852325D02*
G01*
X171802483Y-119858375D01*
X171904890Y-120203835D01*
X171904243Y-120212174D01*
X171898194Y-120217951D01*
X171704522Y-120299105D01*
X171700000Y-120300014D01*
X171695478Y-120299105D01*
X171501805Y-120217951D01*
X171495756Y-120212174D01*
X171495109Y-120203835D01*
X171597517Y-119858375D01*
X171601736Y-119852325D01*
X171608735Y-119850000D01*
X171791265Y-119850000D01*
X171798264Y-119852325D01*
G37*
%TD.AperFunction*%
%TD*%
%TA.AperFunction,Conductor*%
%TO.N,VBUS{slash}2*%
G36*
X170467207Y-119831204D02*
G01*
X170472431Y-119835731D01*
X170700610Y-120202231D01*
X170702376Y-120208650D01*
X170700354Y-120214993D01*
X170695200Y-120219206D01*
X170502893Y-120299790D01*
X170498334Y-120300699D01*
X170288459Y-120300042D01*
X170282150Y-120298171D01*
X170277848Y-120293191D01*
X170276915Y-120286679D01*
X170322670Y-119968496D01*
X170325975Y-119961893D01*
X170454228Y-119833640D01*
X170460340Y-119830416D01*
X170467207Y-119831204D01*
G37*
%TD.AperFunction*%
%TD*%
%TA.AperFunction,Conductor*%
%TO.N,VBUS{slash}2*%
G36*
X174104518Y-97200893D02*
G01*
X174298194Y-97282048D01*
X174304243Y-97287825D01*
X174304890Y-97296164D01*
X174202483Y-97641625D01*
X174198264Y-97647675D01*
X174191265Y-97650000D01*
X174008735Y-97650000D01*
X174001736Y-97647675D01*
X173997517Y-97641625D01*
X173895109Y-97296164D01*
X173895756Y-97287825D01*
X173901803Y-97282049D01*
X174095481Y-97200893D01*
X174100000Y-97199985D01*
X174104518Y-97200893D01*
G37*
%TD.AperFunction*%
%TD*%
%TA.AperFunction,Conductor*%
%TO.N,VBUS{slash}2*%
G36*
X174198264Y-99852325D02*
G01*
X174202483Y-99858375D01*
X174304890Y-100203835D01*
X174304243Y-100212174D01*
X174298194Y-100217951D01*
X174104522Y-100299105D01*
X174100000Y-100300014D01*
X174095478Y-100299105D01*
X173901805Y-100217951D01*
X173895756Y-100212174D01*
X173895109Y-100203835D01*
X173997517Y-99858375D01*
X174001736Y-99852325D01*
X174008735Y-99850000D01*
X174191265Y-99850000D01*
X174198264Y-99852325D01*
G37*
%TD.AperFunction*%
%TD*%
%TA.AperFunction,Conductor*%
%TO.N,VBUS{slash}2*%
G36*
X168612877Y-117823117D02*
G01*
X168654217Y-117899293D01*
X168784741Y-118139809D01*
X168786037Y-118147070D01*
X168782731Y-118153663D01*
X168653663Y-118282731D01*
X168647070Y-118286037D01*
X168639809Y-118284741D01*
X168505558Y-118211885D01*
X168323117Y-118112877D01*
X168317679Y-118106524D01*
X168317870Y-118098164D01*
X168397436Y-117903828D01*
X168399990Y-117899990D01*
X168403828Y-117897436D01*
X168598164Y-117817870D01*
X168606524Y-117817679D01*
X168612877Y-117823117D01*
G37*
%TD.AperFunction*%
%TD*%
%TA.AperFunction,Conductor*%
%TO.N,/REGOUT*%
G36*
X148504518Y-86300893D02*
G01*
X148698194Y-86382048D01*
X148704243Y-86387825D01*
X148704890Y-86396164D01*
X148602483Y-86741625D01*
X148598264Y-86747675D01*
X148591265Y-86750000D01*
X148408735Y-86750000D01*
X148401736Y-86747675D01*
X148397517Y-86741625D01*
X148295109Y-86396164D01*
X148295756Y-86387825D01*
X148301803Y-86382049D01*
X148495481Y-86300893D01*
X148500000Y-86299985D01*
X148504518Y-86300893D01*
G37*
%TD.AperFunction*%
%TD*%
%TA.AperFunction,Conductor*%
%TO.N,/REGOUT*%
G36*
X148598264Y-87052325D02*
G01*
X148602483Y-87058375D01*
X148704890Y-87403835D01*
X148704243Y-87412174D01*
X148698194Y-87417951D01*
X148504522Y-87499105D01*
X148500000Y-87500014D01*
X148495478Y-87499105D01*
X148301805Y-87417951D01*
X148295756Y-87412174D01*
X148295109Y-87403835D01*
X148397517Y-87058375D01*
X148401736Y-87052325D01*
X148408735Y-87050000D01*
X148591265Y-87050000D01*
X148598264Y-87052325D01*
G37*
%TD.AperFunction*%
%TD*%
%TA.AperFunction,Conductor*%
%TO.N,MOTOR2_STEP*%
G36*
X165144489Y-98900865D02*
G01*
X165913724Y-99220472D01*
X165918685Y-99224379D01*
X165920894Y-99230295D01*
X165919706Y-99236497D01*
X165243230Y-100593520D01*
X165238916Y-100598249D01*
X165232759Y-100600000D01*
X165047241Y-100600000D01*
X165041084Y-100598249D01*
X165036770Y-100593520D01*
X164360293Y-99236497D01*
X164359105Y-99230295D01*
X164361314Y-99224379D01*
X164366273Y-99220473D01*
X165135511Y-98900864D01*
X165140000Y-98899970D01*
X165144489Y-98900865D01*
G37*
%TD.AperFunction*%
%TD*%
%TA.AperFunction,Conductor*%
%TO.N,MOTOR2_STEP*%
G36*
X160503663Y-117967268D02*
G01*
X160632731Y-118096336D01*
X160636037Y-118102929D01*
X160634741Y-118110190D01*
X160462878Y-118426881D01*
X160456524Y-118432320D01*
X160448162Y-118432128D01*
X160253830Y-118352564D01*
X160249990Y-118350009D01*
X160247435Y-118346169D01*
X160167871Y-118151837D01*
X160167679Y-118143475D01*
X160173115Y-118137123D01*
X160489811Y-117965257D01*
X160497070Y-117963962D01*
X160503663Y-117967268D01*
G37*
%TD.AperFunction*%
%TD*%
%TA.AperFunction,Conductor*%
%TO.N,MOTOR2_DIR*%
G36*
X160040189Y-119235257D02*
G01*
X160356882Y-119407122D01*
X160362320Y-119413475D01*
X160362128Y-119421837D01*
X160282564Y-119616169D01*
X160280009Y-119620009D01*
X160276169Y-119622564D01*
X160081837Y-119702128D01*
X160073475Y-119702320D01*
X160067122Y-119696882D01*
X159895257Y-119380189D01*
X159893962Y-119372929D01*
X159897266Y-119366338D01*
X160026338Y-119237266D01*
X160032929Y-119233962D01*
X160040189Y-119235257D01*
G37*
%TD.AperFunction*%
%TD*%
%TA.AperFunction,Conductor*%
%TO.N,MOTOR2_DIR*%
G36*
X152382434Y-70338616D02*
G01*
X153106212Y-70637437D01*
X153110020Y-70639979D01*
X153112562Y-70643787D01*
X153411382Y-71367562D01*
X153412129Y-71373818D01*
X153409524Y-71379555D01*
X153404321Y-71383109D01*
X152056226Y-71839748D01*
X152049812Y-71840059D01*
X152044199Y-71836939D01*
X151913060Y-71705800D01*
X151909940Y-71700187D01*
X151910251Y-71693773D01*
X152016839Y-71379104D01*
X152366891Y-70345676D01*
X152370444Y-70340475D01*
X152376181Y-70337870D01*
X152382434Y-70338616D01*
G37*
%TD.AperFunction*%
%TD*%
%TA.AperFunction,Conductor*%
%TO.N,MOTOR1_STEP*%
G36*
X146848264Y-85052325D02*
G01*
X146852483Y-85058375D01*
X146954890Y-85403835D01*
X146954243Y-85412174D01*
X146948194Y-85417951D01*
X146754522Y-85499105D01*
X146750000Y-85500014D01*
X146745478Y-85499105D01*
X146551805Y-85417951D01*
X146545756Y-85412174D01*
X146545109Y-85403835D01*
X146647517Y-85058375D01*
X146651736Y-85052325D01*
X146658735Y-85050000D01*
X146841265Y-85050000D01*
X146848264Y-85052325D01*
G37*
%TD.AperFunction*%
%TD*%
%TA.AperFunction,Conductor*%
%TO.N,MOTOR1_STEP*%
G36*
X140441625Y-113097517D02*
G01*
X140447675Y-113101736D01*
X140450000Y-113108735D01*
X140450000Y-113291265D01*
X140447675Y-113298264D01*
X140441625Y-113302482D01*
X140344320Y-113331327D01*
X140096164Y-113404890D01*
X140087825Y-113404243D01*
X140082048Y-113398194D01*
X140000893Y-113204518D01*
X139999985Y-113200000D01*
X140000893Y-113195481D01*
X140082049Y-113001803D01*
X140087825Y-112995756D01*
X140096163Y-112995109D01*
X140441625Y-113097517D01*
G37*
%TD.AperFunction*%
%TD*%
%TA.AperFunction,Conductor*%
%TO.N,MOTOR1_STEP*%
G36*
X130715800Y-69443060D02*
G01*
X130846939Y-69574199D01*
X130850059Y-69579812D01*
X130849748Y-69586226D01*
X130393109Y-70934321D01*
X130389555Y-70939524D01*
X130383818Y-70942129D01*
X130377562Y-70941382D01*
X130096586Y-70825377D01*
X129653787Y-70642562D01*
X129649979Y-70640020D01*
X129647437Y-70636212D01*
X129348616Y-69912434D01*
X129347870Y-69906181D01*
X129350475Y-69900444D01*
X129355676Y-69896891D01*
X130703774Y-69440250D01*
X130710187Y-69439940D01*
X130715800Y-69443060D01*
G37*
%TD.AperFunction*%
%TD*%
%TA.AperFunction,Conductor*%
%TO.N,MOTOR1_STEP*%
G36*
X146551835Y-85417870D02*
G01*
X146746169Y-85497435D01*
X146750009Y-85499990D01*
X146752564Y-85503830D01*
X146832128Y-85698162D01*
X146832320Y-85706524D01*
X146826881Y-85712878D01*
X146510190Y-85884741D01*
X146502929Y-85886037D01*
X146496336Y-85882731D01*
X146367268Y-85753663D01*
X146363962Y-85747070D01*
X146365257Y-85739811D01*
X146537123Y-85423115D01*
X146543475Y-85417679D01*
X146551835Y-85417870D01*
G37*
%TD.AperFunction*%
%TD*%
%TA.AperFunction,Conductor*%
%TO.N,MOTOR1_DIR*%
G36*
X128175800Y-69443060D02*
G01*
X128306939Y-69574199D01*
X128310059Y-69579812D01*
X128309748Y-69586226D01*
X127853109Y-70934321D01*
X127849555Y-70939524D01*
X127843818Y-70942129D01*
X127837562Y-70941382D01*
X127556586Y-70825377D01*
X127113787Y-70642562D01*
X127109979Y-70640020D01*
X127107437Y-70636212D01*
X126808616Y-69912434D01*
X126807870Y-69906181D01*
X126810475Y-69900444D01*
X126815676Y-69896891D01*
X128163774Y-69440250D01*
X128170187Y-69439940D01*
X128175800Y-69443060D01*
G37*
%TD.AperFunction*%
%TD*%
%TA.AperFunction,Conductor*%
%TO.N,MOTOR1_DIR*%
G36*
X140441625Y-114397517D02*
G01*
X140447675Y-114401736D01*
X140450000Y-114408735D01*
X140450000Y-114591265D01*
X140447675Y-114598264D01*
X140441625Y-114602482D01*
X140344320Y-114631327D01*
X140096164Y-114704890D01*
X140087825Y-114704243D01*
X140082048Y-114698194D01*
X140000893Y-114504518D01*
X139999985Y-114500000D01*
X140000893Y-114495481D01*
X140082049Y-114301803D01*
X140087825Y-114295756D01*
X140096163Y-114295109D01*
X140441625Y-114397517D01*
G37*
%TD.AperFunction*%
%TD*%
%TA.AperFunction,Conductor*%
%TO.N,IO0*%
G36*
X189804518Y-109300893D02*
G01*
X189998194Y-109382048D01*
X190004243Y-109387825D01*
X190004890Y-109396164D01*
X189902483Y-109741625D01*
X189898264Y-109747675D01*
X189891265Y-109750000D01*
X189708735Y-109750000D01*
X189701736Y-109747675D01*
X189697517Y-109741625D01*
X189595109Y-109396164D01*
X189595756Y-109387825D01*
X189601803Y-109382049D01*
X189795481Y-109300893D01*
X189800000Y-109299985D01*
X189804518Y-109300893D01*
G37*
%TD.AperFunction*%
%TD*%
%TA.AperFunction,Conductor*%
%TO.N,IO0*%
G36*
X139801835Y-111917870D02*
G01*
X139996169Y-111997435D01*
X140000009Y-111999990D01*
X140002564Y-112003830D01*
X140082128Y-112198162D01*
X140082320Y-112206524D01*
X140076881Y-112212878D01*
X139760190Y-112384741D01*
X139752929Y-112386037D01*
X139746336Y-112382731D01*
X139617268Y-112253663D01*
X139613962Y-112247070D01*
X139615257Y-112239811D01*
X139787123Y-111923115D01*
X139793475Y-111917679D01*
X139801835Y-111917870D01*
G37*
%TD.AperFunction*%
%TD*%
%TA.AperFunction,Conductor*%
%TO.N,IMU_INT*%
G36*
X141198264Y-108152325D02*
G01*
X141202483Y-108158375D01*
X141304890Y-108503835D01*
X141304243Y-108512174D01*
X141298194Y-108517951D01*
X141104522Y-108599105D01*
X141100000Y-108600014D01*
X141095478Y-108599105D01*
X140901805Y-108517951D01*
X140895756Y-108512174D01*
X140895109Y-108503835D01*
X140997517Y-108158375D01*
X141001736Y-108152325D01*
X141008735Y-108150000D01*
X141191265Y-108150000D01*
X141198264Y-108152325D01*
G37*
%TD.AperFunction*%
%TD*%
%TA.AperFunction,Conductor*%
%TO.N,IMU_INT*%
G36*
X141104518Y-107200893D02*
G01*
X141298194Y-107282048D01*
X141304243Y-107287825D01*
X141304890Y-107296164D01*
X141202483Y-107641625D01*
X141198264Y-107647675D01*
X141191265Y-107650000D01*
X141008735Y-107650000D01*
X141001736Y-107647675D01*
X140997517Y-107641625D01*
X140895109Y-107296164D01*
X140895756Y-107287825D01*
X140901803Y-107282049D01*
X141095481Y-107200893D01*
X141100000Y-107199985D01*
X141104518Y-107200893D01*
G37*
%TD.AperFunction*%
%TD*%
%TA.AperFunction,Conductor*%
%TO.N,ESP32_RX*%
G36*
X187158562Y-68295552D02*
G01*
X187162201Y-68300468D01*
X187295982Y-68642684D01*
X187296537Y-68649341D01*
X187293358Y-68655217D01*
X187164289Y-68784286D01*
X187157035Y-68787669D01*
X187149304Y-68785597D01*
X186802269Y-68542560D01*
X186798114Y-68537311D01*
X186797516Y-68530644D01*
X186800668Y-68524743D01*
X186947619Y-68376481D01*
X186951490Y-68373893D01*
X187146872Y-68293899D01*
X187152940Y-68293143D01*
X187158562Y-68295552D01*
G37*
%TD.AperFunction*%
%TD*%
%TA.AperFunction,Conductor*%
%TO.N,ESP32_RX*%
G36*
X186862174Y-68171256D02*
G01*
X186867951Y-68177305D01*
X186949105Y-68370977D01*
X186950014Y-68375499D01*
X186949105Y-68380021D01*
X186867951Y-68573694D01*
X186862174Y-68579743D01*
X186853835Y-68580390D01*
X186639658Y-68516900D01*
X186508374Y-68477982D01*
X186502325Y-68473764D01*
X186500000Y-68466765D01*
X186500000Y-68284235D01*
X186502325Y-68277236D01*
X186508374Y-68273017D01*
X186853836Y-68170609D01*
X186862174Y-68171256D01*
G37*
%TD.AperFunction*%
%TD*%
%TA.AperFunction,Conductor*%
%TO.N,ESP32_RX*%
G36*
X167699555Y-63440475D02*
G01*
X167703109Y-63445678D01*
X168159748Y-64793773D01*
X168160059Y-64800187D01*
X168156939Y-64805800D01*
X168025800Y-64936939D01*
X168020187Y-64940059D01*
X168013773Y-64939748D01*
X166665678Y-64483109D01*
X166660475Y-64479555D01*
X166657870Y-64473818D01*
X166658616Y-64467566D01*
X166957438Y-63743784D01*
X166959979Y-63739979D01*
X166963784Y-63737438D01*
X167687566Y-63438616D01*
X167693818Y-63437870D01*
X167699555Y-63440475D01*
G37*
%TD.AperFunction*%
%TD*%
%TA.AperFunction,Conductor*%
%TO.N,ESP32_RX*%
G36*
X143141625Y-123347517D02*
G01*
X143147675Y-123351736D01*
X143150000Y-123358735D01*
X143150000Y-123541265D01*
X143147675Y-123548264D01*
X143141625Y-123552482D01*
X143044320Y-123581327D01*
X142796164Y-123654890D01*
X142787825Y-123654243D01*
X142782048Y-123648194D01*
X142700893Y-123454518D01*
X142699985Y-123450000D01*
X142700893Y-123445481D01*
X142782049Y-123251803D01*
X142787825Y-123245756D01*
X142796163Y-123245109D01*
X143141625Y-123347517D01*
G37*
%TD.AperFunction*%
%TD*%
%TA.AperFunction,Conductor*%
%TO.N,ESP32_TX*%
G36*
X188484714Y-68265875D02*
G01*
X188488933Y-68271925D01*
X188591340Y-68617385D01*
X188590693Y-68625724D01*
X188584644Y-68631501D01*
X188390972Y-68712655D01*
X188386450Y-68713564D01*
X188381928Y-68712655D01*
X188188255Y-68631501D01*
X188182206Y-68625724D01*
X188181559Y-68617385D01*
X188283967Y-68271925D01*
X188288186Y-68265875D01*
X188295185Y-68263550D01*
X188477715Y-68263550D01*
X188484714Y-68265875D01*
G37*
%TD.AperFunction*%
%TD*%
%TA.AperFunction,Conductor*%
%TO.N,ESP32_TX*%
G36*
X143141625Y-124597517D02*
G01*
X143147675Y-124601736D01*
X143150000Y-124608735D01*
X143150000Y-124791265D01*
X143147675Y-124798264D01*
X143141625Y-124802482D01*
X143044320Y-124831327D01*
X142796164Y-124904890D01*
X142787825Y-124904243D01*
X142782048Y-124898194D01*
X142700893Y-124704518D01*
X142699985Y-124700000D01*
X142700893Y-124695481D01*
X142782049Y-124501803D01*
X142787825Y-124495756D01*
X142796163Y-124495109D01*
X143141625Y-124597517D01*
G37*
%TD.AperFunction*%
%TD*%
%TA.AperFunction,Conductor*%
%TO.N,ESP32_TX*%
G36*
X188599327Y-68636667D02*
G01*
X188640667Y-68712843D01*
X188771191Y-68953359D01*
X188772487Y-68960620D01*
X188769181Y-68967213D01*
X188640113Y-69096281D01*
X188633520Y-69099587D01*
X188626259Y-69098291D01*
X188492008Y-69025435D01*
X188309567Y-68926427D01*
X188304129Y-68920074D01*
X188304320Y-68911714D01*
X188383886Y-68717378D01*
X188386440Y-68713540D01*
X188390278Y-68710986D01*
X188584614Y-68631420D01*
X188592974Y-68631229D01*
X188599327Y-68636667D01*
G37*
%TD.AperFunction*%
%TD*%
%TA.AperFunction,Conductor*%
%TO.N,ESP32_TX*%
G36*
X170239555Y-63440475D02*
G01*
X170243109Y-63445678D01*
X170699748Y-64793773D01*
X170700059Y-64800187D01*
X170696939Y-64805800D01*
X170565800Y-64936939D01*
X170560187Y-64940059D01*
X170553773Y-64939748D01*
X169205678Y-64483109D01*
X169200475Y-64479555D01*
X169197870Y-64473818D01*
X169198616Y-64467566D01*
X169497438Y-63743784D01*
X169499979Y-63739979D01*
X169503784Y-63737438D01*
X170227566Y-63438616D01*
X170233818Y-63437870D01*
X170239555Y-63440475D01*
G37*
%TD.AperFunction*%
%TD*%
%TA.AperFunction,Conductor*%
%TO.N,SDA0*%
G36*
X188726284Y-97429501D02*
G01*
X189496216Y-97747438D01*
X189500021Y-97749978D01*
X189502562Y-97753785D01*
X189820497Y-98523714D01*
X189821243Y-98529985D01*
X189818621Y-98535730D01*
X189813396Y-98539275D01*
X188375495Y-99020494D01*
X188369101Y-99020788D01*
X188363509Y-99017672D01*
X188232327Y-98886490D01*
X188229211Y-98880898D01*
X188229504Y-98874508D01*
X188710725Y-97436600D01*
X188714269Y-97431378D01*
X188720014Y-97428756D01*
X188726284Y-97429501D01*
G37*
%TD.AperFunction*%
%TD*%
%TA.AperFunction,Conductor*%
%TO.N,SDA0*%
G36*
X180053663Y-99267268D02*
G01*
X180182731Y-99396336D01*
X180186037Y-99402929D01*
X180184741Y-99410190D01*
X180012878Y-99726881D01*
X180006524Y-99732320D01*
X179998162Y-99732128D01*
X179803830Y-99652564D01*
X179799990Y-99650009D01*
X179797435Y-99646169D01*
X179717871Y-99451837D01*
X179717679Y-99443475D01*
X179723115Y-99437123D01*
X180039811Y-99265257D01*
X180047070Y-99263962D01*
X180053663Y-99267268D01*
G37*
%TD.AperFunction*%
%TD*%
%TA.AperFunction,Conductor*%
%TO.N,/CC1*%
G36*
X186591625Y-58597517D02*
G01*
X186597675Y-58601736D01*
X186600000Y-58608735D01*
X186600000Y-58791265D01*
X186597675Y-58798264D01*
X186591625Y-58802482D01*
X186494320Y-58831327D01*
X186246164Y-58904890D01*
X186237825Y-58904243D01*
X186232048Y-58898194D01*
X186191943Y-58802483D01*
X186150893Y-58704519D01*
X186149985Y-58699999D01*
X186150892Y-58695482D01*
X186232049Y-58501803D01*
X186237825Y-58495756D01*
X186246163Y-58495109D01*
X186591625Y-58597517D01*
G37*
%TD.AperFunction*%
%TD*%
%TA.AperFunction,Conductor*%
%TO.N,/CC1*%
G36*
X188660189Y-60015257D02*
G01*
X188976882Y-60187122D01*
X188982320Y-60193475D01*
X188982128Y-60201837D01*
X188902564Y-60396169D01*
X188900009Y-60400009D01*
X188896169Y-60402564D01*
X188701837Y-60482128D01*
X188693475Y-60482320D01*
X188687122Y-60476882D01*
X188515257Y-60160189D01*
X188513962Y-60152929D01*
X188517266Y-60146338D01*
X188646338Y-60017266D01*
X188652929Y-60013962D01*
X188660189Y-60015257D01*
G37*
%TD.AperFunction*%
%TD*%
%TA.AperFunction,Conductor*%
%TO.N,/CC2*%
G36*
X184959339Y-55300812D02*
G01*
X185089187Y-55430660D01*
X185092435Y-55436895D01*
X185091523Y-55443867D01*
X184881877Y-55894670D01*
X184875531Y-55900632D01*
X184866824Y-55900559D01*
X184603815Y-55792563D01*
X184599986Y-55790013D01*
X184597436Y-55786184D01*
X184489440Y-55523175D01*
X184489367Y-55514468D01*
X184495327Y-55508124D01*
X184946135Y-55298475D01*
X184953104Y-55297564D01*
X184959339Y-55300812D01*
G37*
%TD.AperFunction*%
%TD*%
%TA.AperFunction,Conductor*%
%TO.N,/CC2*%
G36*
X190353663Y-60017268D02*
G01*
X190482731Y-60146336D01*
X190486037Y-60152929D01*
X190484741Y-60160190D01*
X190312878Y-60476881D01*
X190306524Y-60482320D01*
X190298162Y-60482128D01*
X190103830Y-60402564D01*
X190099990Y-60400009D01*
X190097435Y-60396169D01*
X190017871Y-60201837D01*
X190017679Y-60193475D01*
X190023115Y-60187123D01*
X190339811Y-60015257D01*
X190347070Y-60013962D01*
X190353663Y-60017268D01*
G37*
%TD.AperFunction*%
%TD*%
%TA.AperFunction,Conductor*%
%TO.N,/DP*%
G36*
X184798742Y-61754430D02*
G01*
X184803056Y-61759555D01*
X184953157Y-62105538D01*
X184954042Y-62111578D01*
X184951765Y-62117240D01*
X184946946Y-62120986D01*
X184754522Y-62201617D01*
X184750000Y-62202526D01*
X184745478Y-62201617D01*
X184553053Y-62120986D01*
X184548234Y-62117240D01*
X184545957Y-62111578D01*
X184546841Y-62105540D01*
X184696944Y-61759553D01*
X184701258Y-61754430D01*
X184707677Y-61752512D01*
X184792323Y-61752512D01*
X184798742Y-61754430D01*
G37*
%TD.AperFunction*%
%TD*%
%TA.AperFunction,Conductor*%
%TO.N,/DP*%
G36*
X185005547Y-56494573D02*
G01*
X185205166Y-56695133D01*
X185208534Y-56702428D01*
X185206402Y-56710175D01*
X185159514Y-56775994D01*
X185158258Y-56777479D01*
X185091133Y-56844605D01*
X185089361Y-56846060D01*
X185069398Y-56859399D01*
X185039521Y-56904116D01*
X185014034Y-56942258D01*
X185004047Y-56992464D01*
X185002101Y-56996969D01*
X184953499Y-57065197D01*
X184949330Y-57068809D01*
X184943970Y-57070109D01*
X184858931Y-57070109D01*
X184851832Y-57067709D01*
X184847645Y-57061493D01*
X184792414Y-56859399D01*
X184725545Y-56614721D01*
X184726318Y-56606505D01*
X184732319Y-56600842D01*
X184992746Y-56492030D01*
X184999532Y-56491351D01*
X185005547Y-56494573D01*
G37*
%TD.AperFunction*%
%TD*%
%TA.AperFunction,Conductor*%
%TO.N,/DN*%
G36*
X185296230Y-61251918D02*
G01*
X185300544Y-61257043D01*
X185450645Y-61603026D01*
X185451530Y-61609066D01*
X185449253Y-61614728D01*
X185444434Y-61618474D01*
X185252009Y-61699105D01*
X185247487Y-61700014D01*
X185242966Y-61699105D01*
X185150014Y-61660156D01*
X185050541Y-61618474D01*
X185045722Y-61614728D01*
X185043445Y-61609066D01*
X185044329Y-61603028D01*
X185194432Y-61257041D01*
X185198746Y-61251918D01*
X185205165Y-61250000D01*
X185289811Y-61250000D01*
X185296230Y-61251918D01*
G37*
%TD.AperFunction*%
%TD*%
%TA.AperFunction,Conductor*%
%TO.N,/DN*%
G36*
X185534123Y-56379829D02*
G01*
X185678308Y-56439034D01*
X185796184Y-56487436D01*
X185800013Y-56489986D01*
X185802563Y-56493815D01*
X185910169Y-56755874D01*
X185910918Y-56762043D01*
X185908402Y-56767726D01*
X185903331Y-56771319D01*
X185418087Y-56947084D01*
X185411561Y-56947504D01*
X185405829Y-56944356D01*
X185346288Y-56884815D01*
X185342901Y-56877514D01*
X185345030Y-56869757D01*
X185373775Y-56829408D01*
X185379920Y-56816478D01*
X185381640Y-56813847D01*
X185425377Y-56763373D01*
X185485165Y-56632457D01*
X185505647Y-56490000D01*
X185499131Y-56444681D01*
X185499710Y-56439038D01*
X185518680Y-56386667D01*
X185522273Y-56381597D01*
X185527956Y-56379081D01*
X185534123Y-56379829D01*
G37*
%TD.AperFunction*%
%TD*%
%TA.AperFunction,Conductor*%
%TO.N,SDA2*%
G36*
X112838643Y-98209990D02*
G01*
X112846788Y-98213302D01*
X112850327Y-98221352D01*
X112888468Y-99542149D01*
X112887646Y-99546808D01*
X112885046Y-99550760D01*
X112753878Y-99681928D01*
X112746840Y-99685290D01*
X112739253Y-99683481D01*
X111682899Y-99000586D01*
X111678083Y-98994247D01*
X111678437Y-98986294D01*
X111996303Y-98216533D01*
X112000616Y-98211272D01*
X112007125Y-98209299D01*
X112838643Y-98209990D01*
G37*
%TD.AperFunction*%
%TD*%
%TA.AperFunction,Conductor*%
%TO.N,SDA2*%
G36*
X127712174Y-114795756D02*
G01*
X127717951Y-114801805D01*
X127799105Y-114995477D01*
X127800014Y-114999999D01*
X127799105Y-115004521D01*
X127717951Y-115198194D01*
X127712174Y-115204243D01*
X127703835Y-115204890D01*
X127489658Y-115141400D01*
X127358374Y-115102482D01*
X127352325Y-115098264D01*
X127350000Y-115091265D01*
X127350000Y-114908735D01*
X127352325Y-114901736D01*
X127358374Y-114897517D01*
X127703836Y-114795109D01*
X127712174Y-114795756D01*
G37*
%TD.AperFunction*%
%TD*%
%TA.AperFunction,Conductor*%
%TO.N,SCL2*%
G36*
X125896996Y-113779599D02*
G01*
X125900650Y-113787423D01*
X125924272Y-114187665D01*
X125922955Y-114193786D01*
X125918670Y-114198352D01*
X125912644Y-114200054D01*
X125702379Y-114200989D01*
X125697805Y-114200080D01*
X125504738Y-114119180D01*
X125499595Y-114114982D01*
X125497563Y-114108661D01*
X125499298Y-114102253D01*
X125696573Y-113781976D01*
X125700830Y-113777897D01*
X125706535Y-113776412D01*
X125888970Y-113776412D01*
X125896996Y-113779599D01*
G37*
%TD.AperFunction*%
%TD*%
%TA.AperFunction,Conductor*%
%TO.N,SCL2*%
G36*
X112785073Y-95352417D02*
G01*
X112788353Y-95358252D01*
X113133497Y-96887206D01*
X113133323Y-96893034D01*
X113130357Y-96898055D01*
X112999152Y-97029260D01*
X112993039Y-97032486D01*
X112986172Y-97031698D01*
X112430178Y-96787332D01*
X111685191Y-96459900D01*
X111679045Y-96453556D01*
X111679084Y-96444725D01*
X111997439Y-95673780D01*
X111999978Y-95669978D01*
X112003780Y-95667439D01*
X112772475Y-95350013D01*
X112779133Y-95349335D01*
X112785073Y-95352417D01*
G37*
%TD.AperFunction*%
%TD*%
%TA.AperFunction,Conductor*%
%TO.N,SDA3*%
G36*
X105289838Y-97890350D02*
G01*
X105851796Y-99206207D01*
X105852523Y-99213022D01*
X105849309Y-99219075D01*
X105718099Y-99350285D01*
X105713019Y-99353268D01*
X105707128Y-99353397D01*
X104188073Y-98993462D01*
X104182303Y-98990151D01*
X104179271Y-98984229D01*
X104179956Y-98977614D01*
X104497439Y-98208780D01*
X104499978Y-98204978D01*
X104503780Y-98202439D01*
X105274613Y-97884130D01*
X105283502Y-97884114D01*
X105289838Y-97890350D01*
G37*
%TD.AperFunction*%
%TD*%
%TA.AperFunction,Conductor*%
%TO.N,SDA3*%
G36*
X127649674Y-118058256D02*
G01*
X127655451Y-118064305D01*
X127736605Y-118257978D01*
X127737514Y-118262500D01*
X127736605Y-118267022D01*
X127655451Y-118460694D01*
X127649674Y-118466743D01*
X127641335Y-118467390D01*
X127427158Y-118403900D01*
X127295874Y-118364982D01*
X127289825Y-118360764D01*
X127287500Y-118353765D01*
X127287500Y-118171235D01*
X127289825Y-118164236D01*
X127295874Y-118160017D01*
X127641336Y-118057609D01*
X127649674Y-118058256D01*
G37*
%TD.AperFunction*%
%TD*%
%TA.AperFunction,Conductor*%
%TO.N,SCL3*%
G36*
X105336819Y-95664989D02*
G01*
X105343064Y-95666801D01*
X105347377Y-95671668D01*
X105348425Y-95678086D01*
X105184745Y-97038824D01*
X105181402Y-97045700D01*
X105050258Y-97176844D01*
X105042622Y-97180254D01*
X105034661Y-97177695D01*
X103909123Y-96274200D01*
X103905397Y-96268921D01*
X103905041Y-96262469D01*
X103908162Y-96256815D01*
X104495860Y-95667733D01*
X104499664Y-95665188D01*
X104504152Y-95664297D01*
X105336819Y-95664989D01*
G37*
%TD.AperFunction*%
%TD*%
%TA.AperFunction,Conductor*%
%TO.N,SCL3*%
G36*
X125693191Y-117177848D02*
G01*
X125698171Y-117182150D01*
X125700042Y-117188459D01*
X125700699Y-117398334D01*
X125699790Y-117402893D01*
X125619206Y-117595200D01*
X125614993Y-117600354D01*
X125608650Y-117602376D01*
X125602231Y-117600610D01*
X125235731Y-117372431D01*
X125231204Y-117367207D01*
X125230416Y-117360340D01*
X125233640Y-117354228D01*
X125361893Y-117225975D01*
X125368496Y-117222670D01*
X125686679Y-117176915D01*
X125693191Y-117177848D01*
G37*
%TD.AperFunction*%
%TD*%
%TA.AperFunction,Conductor*%
%TO.N,MOTOR_EN*%
G36*
X159942256Y-81295313D02*
G01*
X159947696Y-81301196D01*
X160029105Y-81495477D01*
X160030014Y-81499999D01*
X160029105Y-81504521D01*
X159947696Y-81698803D01*
X159942256Y-81704686D01*
X159934307Y-81705689D01*
X159716091Y-81655993D01*
X159589101Y-81627072D01*
X159582554Y-81622962D01*
X159580000Y-81615665D01*
X159580000Y-81384335D01*
X159582554Y-81377038D01*
X159589101Y-81372927D01*
X159934309Y-81294310D01*
X159942256Y-81295313D01*
G37*
%TD.AperFunction*%
%TD*%
%TA.AperFunction,Conductor*%
%TO.N,MOTOR_EN*%
G36*
X134471625Y-81397517D02*
G01*
X134477675Y-81401736D01*
X134480000Y-81408735D01*
X134480000Y-81591265D01*
X134477675Y-81598264D01*
X134471625Y-81602482D01*
X134374320Y-81631327D01*
X134126164Y-81704890D01*
X134117825Y-81704243D01*
X134112048Y-81698194D01*
X134071943Y-81602483D01*
X134030893Y-81504519D01*
X134029985Y-81499999D01*
X134030892Y-81495482D01*
X134112049Y-81301803D01*
X134117825Y-81295756D01*
X134126163Y-81295109D01*
X134471625Y-81397517D01*
G37*
%TD.AperFunction*%
%TD*%
%TA.AperFunction,Conductor*%
%TO.N,MOTOR_EN*%
G36*
X145612174Y-84995756D02*
G01*
X145617951Y-85001805D01*
X145699105Y-85195478D01*
X145700014Y-85200000D01*
X145699105Y-85204522D01*
X145617951Y-85398194D01*
X145612174Y-85404243D01*
X145603835Y-85404890D01*
X145389658Y-85341400D01*
X145258374Y-85302482D01*
X145252325Y-85298264D01*
X145250000Y-85291265D01*
X145250000Y-85108735D01*
X145252325Y-85101736D01*
X145258374Y-85097517D01*
X145603836Y-84995109D01*
X145612174Y-84995756D01*
G37*
%TD.AperFunction*%
%TD*%
%TA.AperFunction,Conductor*%
%TO.N,MOTOR_EN*%
G36*
X153040898Y-84572927D02*
G01*
X153047446Y-84577038D01*
X153050000Y-84584335D01*
X153050000Y-84815665D01*
X153047446Y-84822962D01*
X153040898Y-84827072D01*
X152964285Y-84844520D01*
X152695692Y-84905689D01*
X152687743Y-84904686D01*
X152682303Y-84898803D01*
X152600893Y-84704518D01*
X152599985Y-84700000D01*
X152600893Y-84695481D01*
X152682304Y-84501194D01*
X152687743Y-84495313D01*
X152695690Y-84494310D01*
X153040898Y-84572927D01*
G37*
%TD.AperFunction*%
%TD*%
%TA.AperFunction,Conductor*%
%TO.N,/SW3*%
G36*
X120233922Y-73176013D02*
G01*
X120238112Y-73182676D01*
X120597553Y-74802755D01*
X120597364Y-74808562D01*
X120594404Y-74813562D01*
X120462062Y-74945904D01*
X120457062Y-74948864D01*
X120451255Y-74949053D01*
X118831176Y-74589612D01*
X118824513Y-74585422D01*
X118822012Y-74577960D01*
X118849070Y-73212035D01*
X118852495Y-73203995D01*
X118860535Y-73200570D01*
X120226460Y-73173512D01*
X120233922Y-73176013D01*
G37*
%TD.AperFunction*%
%TD*%
%TA.AperFunction,Conductor*%
%TO.N,/SW3*%
G36*
X126098264Y-88552325D02*
G01*
X126102483Y-88558375D01*
X126204890Y-88903835D01*
X126204243Y-88912174D01*
X126198194Y-88917951D01*
X126004521Y-88999105D01*
X125999999Y-89000014D01*
X125995478Y-88999105D01*
X125911147Y-88963768D01*
X125801805Y-88917951D01*
X125795756Y-88912174D01*
X125795109Y-88903835D01*
X125897517Y-88558375D01*
X125901736Y-88552325D01*
X125908735Y-88550000D01*
X126091265Y-88550000D01*
X126098264Y-88552325D01*
G37*
%TD.AperFunction*%
%TD*%
M02*
