%TF.GenerationSoftware,KiCad,Pcbnew,7.0.1*%
%TF.CreationDate,2023-06-08T02:49:51+01:00*%
%TF.ProjectId,DE10-lite_shield,44453130-2d6c-4697-9465-5f736869656c,rev?*%
%TF.SameCoordinates,Original*%
%TF.FileFunction,Paste,Top*%
%TF.FilePolarity,Positive*%
%FSLAX46Y46*%
G04 Gerber Fmt 4.6, Leading zero omitted, Abs format (unit mm)*
G04 Created by KiCad (PCBNEW 7.0.1) date 2023-06-08 02:49:51*
%MOMM*%
%LPD*%
G01*
G04 APERTURE LIST*
G04 Aperture macros list*
%AMRoundRect*
0 Rectangle with rounded corners*
0 $1 Rounding radius*
0 $2 $3 $4 $5 $6 $7 $8 $9 X,Y pos of 4 corners*
0 Add a 4 corners polygon primitive as box body*
4,1,4,$2,$3,$4,$5,$6,$7,$8,$9,$2,$3,0*
0 Add four circle primitives for the rounded corners*
1,1,$1+$1,$2,$3*
1,1,$1+$1,$4,$5*
1,1,$1+$1,$6,$7*
1,1,$1+$1,$8,$9*
0 Add four rect primitives between the rounded corners*
20,1,$1+$1,$2,$3,$4,$5,0*
20,1,$1+$1,$4,$5,$6,$7,0*
20,1,$1+$1,$6,$7,$8,$9,0*
20,1,$1+$1,$8,$9,$2,$3,0*%
G04 Aperture macros list end*
%ADD10RoundRect,0.140000X-0.170000X0.140000X-0.170000X-0.140000X0.170000X-0.140000X0.170000X0.140000X0*%
%ADD11RoundRect,0.135000X-0.185000X0.135000X-0.185000X-0.135000X0.185000X-0.135000X0.185000X0.135000X0*%
%ADD12RoundRect,0.140000X0.140000X0.170000X-0.140000X0.170000X-0.140000X-0.170000X0.140000X-0.170000X0*%
%ADD13RoundRect,0.135000X0.185000X-0.135000X0.185000X0.135000X-0.185000X0.135000X-0.185000X-0.135000X0*%
%ADD14RoundRect,0.150000X-0.512500X-0.150000X0.512500X-0.150000X0.512500X0.150000X-0.512500X0.150000X0*%
%ADD15RoundRect,0.135000X0.135000X0.185000X-0.135000X0.185000X-0.135000X-0.185000X0.135000X-0.185000X0*%
%ADD16RoundRect,0.218750X0.218750X0.256250X-0.218750X0.256250X-0.218750X-0.256250X0.218750X-0.256250X0*%
%ADD17RoundRect,0.250000X0.475000X-0.250000X0.475000X0.250000X-0.475000X0.250000X-0.475000X-0.250000X0*%
%ADD18R,0.300000X0.900000*%
%ADD19RoundRect,0.050000X0.225000X0.050000X-0.225000X0.050000X-0.225000X-0.050000X0.225000X-0.050000X0*%
%ADD20RoundRect,0.050000X-0.050000X0.225000X-0.050000X-0.225000X0.050000X-0.225000X0.050000X0.225000X0*%
%ADD21R,0.600000X1.750000*%
%ADD22RoundRect,0.140000X-0.140000X-0.170000X0.140000X-0.170000X0.140000X0.170000X-0.140000X0.170000X0*%
%ADD23RoundRect,0.140000X0.170000X-0.140000X0.170000X0.140000X-0.170000X0.140000X-0.170000X-0.140000X0*%
%ADD24RoundRect,0.150000X0.150000X-0.512500X0.150000X0.512500X-0.150000X0.512500X-0.150000X-0.512500X0*%
%ADD25RoundRect,0.250000X-0.475000X0.250000X-0.475000X-0.250000X0.475000X-0.250000X0.475000X0.250000X0*%
%ADD26RoundRect,0.225000X-0.225000X0.225000X-0.225000X-0.225000X0.225000X-0.225000X0.225000X0.225000X0*%
%ADD27RoundRect,0.062500X-0.062500X0.337500X-0.062500X-0.337500X0.062500X-0.337500X0.062500X0.337500X0*%
%ADD28RoundRect,0.062500X-0.337500X0.062500X-0.337500X-0.062500X0.337500X-0.062500X0.337500X0.062500X0*%
%ADD29R,1.050000X0.650000*%
%ADD30RoundRect,0.212500X-0.212500X0.212500X-0.212500X-0.212500X0.212500X-0.212500X0.212500X0.212500X0*%
%ADD31RoundRect,0.062500X-0.062500X0.375000X-0.062500X-0.375000X0.062500X-0.375000X0.062500X0.375000X0*%
%ADD32RoundRect,0.062500X-0.375000X0.062500X-0.375000X-0.062500X0.375000X-0.062500X0.375000X0.062500X0*%
%ADD33RoundRect,0.100000X-0.100000X0.637500X-0.100000X-0.637500X0.100000X-0.637500X0.100000X0.637500X0*%
%ADD34RoundRect,0.012000X-0.163000X-0.088000X0.163000X-0.088000X0.163000X0.088000X-0.163000X0.088000X0*%
%ADD35RoundRect,0.012000X-0.138000X-0.088000X0.138000X-0.088000X0.138000X0.088000X-0.138000X0.088000X0*%
%ADD36RoundRect,0.012000X0.138000X0.088000X-0.138000X0.088000X-0.138000X-0.088000X0.138000X-0.088000X0*%
%ADD37RoundRect,0.150000X0.512500X0.150000X-0.512500X0.150000X-0.512500X-0.150000X0.512500X-0.150000X0*%
%ADD38R,0.600000X1.550000*%
%ADD39R,1.200000X1.800000*%
%ADD40RoundRect,0.135000X-0.135000X-0.185000X0.135000X-0.185000X0.135000X0.185000X-0.135000X0.185000X0*%
%ADD41O,0.599999X0.299999*%
%ADD42O,0.299999X0.599999*%
%ADD43R,1.500000X0.900000*%
%ADD44R,0.900000X1.500000*%
%ADD45R,1.050000X1.050000*%
%ADD46RoundRect,0.112500X-0.187500X-0.112500X0.187500X-0.112500X0.187500X0.112500X-0.187500X0.112500X0*%
G04 APERTURE END LIST*
%TO.C,U3*%
G36*
X124725004Y-99672182D02*
G01*
X123537003Y-99672182D01*
X123537003Y-98484181D01*
X124725004Y-98484181D01*
X124725004Y-99672182D01*
G37*
G36*
X124725004Y-101060180D02*
G01*
X123537003Y-101060180D01*
X123537003Y-99872179D01*
X124725004Y-99872179D01*
X124725004Y-101060180D01*
G37*
G36*
X126113002Y-99672182D02*
G01*
X124925001Y-99672182D01*
X124925001Y-98484181D01*
X126113002Y-98484181D01*
X126113002Y-99672182D01*
G37*
G36*
X126113002Y-101060180D02*
G01*
X124925001Y-101060180D01*
X124925001Y-99872179D01*
X126113002Y-99872179D01*
X126113002Y-101060180D01*
G37*
%TD*%
D10*
%TO.C,C5*%
X128100000Y-99295000D03*
X128100000Y-100255000D03*
%TD*%
D11*
%TO.C,R2*%
X128150002Y-102112183D03*
X128150002Y-103132183D03*
%TD*%
D12*
%TO.C,C11*%
X127105001Y-96422182D03*
X126145001Y-96422182D03*
%TD*%
D10*
%TO.C,C3*%
X121650002Y-101242183D03*
X121650002Y-102202183D03*
%TD*%
D13*
%TO.C,R4*%
X128150002Y-97432183D03*
X128150002Y-96412183D03*
%TD*%
D14*
%TO.C,Q2*%
X180025000Y-76250000D03*
X180025000Y-74350000D03*
X182300000Y-75300000D03*
%TD*%
D12*
%TO.C,C13*%
X181880000Y-64100000D03*
X180920000Y-64100000D03*
%TD*%
D11*
%TO.C,R21*%
X178600000Y-62690000D03*
X178600000Y-63710000D03*
%TD*%
D15*
%TO.C,R9*%
X178610000Y-68250000D03*
X177590000Y-68250000D03*
%TD*%
D11*
%TO.C,R31*%
X128000000Y-87990000D03*
X128000000Y-89010000D03*
%TD*%
D16*
%TO.C,D3*%
X127887500Y-110400000D03*
X126312500Y-110400000D03*
%TD*%
D10*
%TO.C,C22*%
X160375000Y-127395000D03*
X160375000Y-128355000D03*
%TD*%
D13*
%TO.C,R1*%
X129250002Y-103132183D03*
X129250002Y-102112183D03*
%TD*%
D17*
%TO.C,C7*%
X120550002Y-106872184D03*
X120550002Y-104972184D03*
%TD*%
D13*
%TO.C,R12*%
X132825000Y-125910000D03*
X132825000Y-124890000D03*
%TD*%
D18*
%TO.C,J4*%
X188150000Y-57700000D03*
X187650000Y-57700000D03*
X187150000Y-57700000D03*
X186650000Y-57700000D03*
X186150000Y-57700000D03*
X185650000Y-57700000D03*
X185150000Y-57700000D03*
X184650000Y-57700000D03*
X184150000Y-57700000D03*
X183650000Y-57700000D03*
X183150000Y-57700000D03*
X182650000Y-57700000D03*
%TD*%
D15*
%TO.C,R19*%
X174310000Y-86200000D03*
X173290000Y-86200000D03*
%TD*%
D19*
%TO.C,U5*%
X150500000Y-91000000D03*
X150500000Y-90600000D03*
X150500000Y-90200000D03*
X150500000Y-89800000D03*
X150500000Y-89400000D03*
X150500000Y-89000000D03*
D20*
X150000000Y-88500000D03*
X149600000Y-88500000D03*
X149200000Y-88500000D03*
X148800000Y-88500000D03*
X148400000Y-88500000D03*
X148000000Y-88500000D03*
D19*
X147500000Y-89000000D03*
X147500000Y-89400000D03*
X147500000Y-89800000D03*
X147500000Y-90200000D03*
X147500000Y-90600000D03*
X147500000Y-91000000D03*
D20*
X148000000Y-91500000D03*
X148400000Y-91500000D03*
X148800000Y-91500000D03*
X149200000Y-91500000D03*
X149600000Y-91500000D03*
X150000000Y-91500000D03*
%TD*%
D21*
%TO.C,L1*%
X123825001Y-104372183D03*
X123825001Y-107472183D03*
%TD*%
D22*
%TO.C,C15*%
X150660000Y-102395000D03*
X151620000Y-102395000D03*
%TD*%
D23*
%TO.C,C23*%
X151900000Y-88180000D03*
X151900000Y-87220000D03*
%TD*%
D22*
%TO.C,C18*%
X149420000Y-86300000D03*
X150380000Y-86300000D03*
%TD*%
D23*
%TO.C,C9*%
X120500000Y-98402182D03*
X120500000Y-97442182D03*
%TD*%
D16*
%TO.C,D4*%
X165037500Y-116000000D03*
X163462500Y-116000000D03*
%TD*%
D13*
%TO.C,R8*%
X178287500Y-75860000D03*
X178287500Y-74840000D03*
%TD*%
D24*
%TO.C,U7*%
X150670000Y-100932500D03*
X151620000Y-100932500D03*
X152570000Y-100932500D03*
X152570000Y-98657500D03*
X150670000Y-98657500D03*
%TD*%
D11*
%TO.C,R22*%
X177600000Y-64390000D03*
X177600000Y-65410000D03*
%TD*%
D25*
%TO.C,C6*%
X120550002Y-92772183D03*
X120550002Y-94672183D03*
%TD*%
D26*
%TO.C,U2*%
X184520000Y-67780000D03*
X183400000Y-67780000D03*
X182280000Y-67780000D03*
X184520000Y-68900000D03*
X183400000Y-68900000D03*
X182280000Y-68900000D03*
X184520000Y-70020000D03*
X183400000Y-70020000D03*
X182280000Y-70020000D03*
D27*
X184900000Y-66450000D03*
X184400000Y-66450000D03*
X183900000Y-66450000D03*
X183400000Y-66450000D03*
X182900000Y-66450000D03*
X182400000Y-66450000D03*
X181900000Y-66450000D03*
D28*
X180950000Y-67400000D03*
X180950000Y-67900000D03*
X180950000Y-68400000D03*
X180950000Y-68900000D03*
X180950000Y-69400000D03*
X180950000Y-69900000D03*
X180950000Y-70400000D03*
D27*
X181900000Y-71350000D03*
X182400000Y-71350000D03*
X182900000Y-71350000D03*
X183400000Y-71350000D03*
X183900000Y-71350000D03*
X184400000Y-71350000D03*
X184900000Y-71350000D03*
D28*
X185850000Y-70400000D03*
X185850000Y-69900000D03*
X185850000Y-69400000D03*
X185850000Y-68900000D03*
X185850000Y-68400000D03*
X185850000Y-67900000D03*
X185850000Y-67400000D03*
%TD*%
D11*
%TO.C,R6*%
X188900000Y-61190000D03*
X188900000Y-62210000D03*
%TD*%
D29*
%TO.C,S2*%
X195075000Y-115675000D03*
X190925000Y-115675000D03*
X195075000Y-113525000D03*
X190925000Y-113525000D03*
%TD*%
D30*
%TO.C,U4*%
X132112500Y-120900000D03*
X131062500Y-120900000D03*
X132112500Y-121950000D03*
X131062500Y-121950000D03*
D31*
X132837500Y-119487500D03*
X132337500Y-119487500D03*
X131837500Y-119487500D03*
X131337500Y-119487500D03*
X130837500Y-119487500D03*
X130337500Y-119487500D03*
D32*
X129650000Y-120175000D03*
X129650000Y-120675000D03*
X129650000Y-121175000D03*
X129650000Y-121675000D03*
X129650000Y-122175000D03*
X129650000Y-122675000D03*
D31*
X130337500Y-123362500D03*
X130837500Y-123362500D03*
X131337500Y-123362500D03*
X131837500Y-123362500D03*
X132337500Y-123362500D03*
X132837500Y-123362500D03*
D32*
X133525000Y-122675000D03*
X133525000Y-122175000D03*
X133525000Y-121675000D03*
X133525000Y-121175000D03*
X133525000Y-120675000D03*
X133525000Y-120175000D03*
%TD*%
D11*
%TO.C,R3*%
X129250002Y-96412183D03*
X129250002Y-97432183D03*
%TD*%
D16*
%TO.C,D2*%
X127887500Y-112600000D03*
X126312500Y-112600000D03*
%TD*%
D22*
%TO.C,C16*%
X150640000Y-97165000D03*
X151600000Y-97165000D03*
%TD*%
D10*
%TO.C,C21*%
X161425000Y-127390000D03*
X161425000Y-128350000D03*
%TD*%
D33*
%TO.C,U8*%
X146650000Y-97275000D03*
X146000000Y-97275000D03*
X145350000Y-97275000D03*
X144700000Y-97275000D03*
X144050000Y-97275000D03*
X143400000Y-97275000D03*
X142750000Y-97275000D03*
X142100000Y-97275000D03*
X141450000Y-97275000D03*
X140800000Y-97275000D03*
X140800000Y-103000000D03*
X141450000Y-103000000D03*
X142100000Y-103000000D03*
X142750000Y-103000000D03*
X143400000Y-103000000D03*
X144050000Y-103000000D03*
X144700000Y-103000000D03*
X145350000Y-103000000D03*
X146000000Y-103000000D03*
X146650000Y-103000000D03*
%TD*%
D13*
%TO.C,R30*%
X127000000Y-89010000D03*
X127000000Y-87990000D03*
%TD*%
D11*
%TO.C,R5*%
X190100000Y-61190000D03*
X190100000Y-62210000D03*
%TD*%
D34*
%TO.C,U9*%
X186175000Y-61700000D03*
D35*
X186150000Y-62200000D03*
X186150000Y-62700000D03*
D36*
X186750000Y-62700000D03*
X186750000Y-62200000D03*
X186750000Y-61700000D03*
%TD*%
D23*
%TO.C,C20*%
X188950000Y-115055000D03*
X188950000Y-114095000D03*
%TD*%
D15*
%TO.C,R14*%
X136535000Y-120175000D03*
X135515000Y-120175000D03*
%TD*%
D21*
%TO.C,L2*%
X123825001Y-95272182D03*
X123825001Y-92172182D03*
%TD*%
D11*
%TO.C,R7*%
X189162500Y-74790000D03*
X189162500Y-75810000D03*
%TD*%
D37*
%TO.C,Q1*%
X187300000Y-74350000D03*
X187300000Y-76250000D03*
X185025000Y-75300000D03*
%TD*%
D23*
%TO.C,C14*%
X137725000Y-121130000D03*
X137725000Y-120170000D03*
%TD*%
D10*
%TO.C,C17*%
X146100000Y-90020000D03*
X146100000Y-90980000D03*
%TD*%
D38*
%TO.C,J11*%
X186800000Y-125000000D03*
X187800000Y-125000000D03*
X188800000Y-125000000D03*
X189800000Y-125000000D03*
D39*
X185500000Y-128875000D03*
X191100000Y-128875000D03*
%TD*%
D40*
%TO.C,R23*%
X185015000Y-79675000D03*
X186035000Y-79675000D03*
%TD*%
D29*
%TO.C,S1*%
X195075000Y-109275000D03*
X190925000Y-109275000D03*
X195075000Y-107125000D03*
X190925000Y-107125000D03*
%TD*%
D38*
%TO.C,J12*%
X176200000Y-125000000D03*
X177200000Y-125000000D03*
X178200000Y-125000000D03*
X179200000Y-125000000D03*
D39*
X174900000Y-128875000D03*
X180500000Y-128875000D03*
%TD*%
D41*
%TO.C,U3*%
X122925002Y-98797183D03*
X122925002Y-99447181D03*
X122925002Y-100097183D03*
X122925002Y-100747181D03*
D42*
X123850002Y-101672181D03*
X124500000Y-101672181D03*
X125150002Y-101672181D03*
X125800000Y-101672181D03*
D41*
X126725000Y-100747181D03*
X126725000Y-100097183D03*
X126725000Y-99447181D03*
X126725000Y-98797183D03*
D42*
X125800000Y-97872183D03*
X125150002Y-97872183D03*
X124500000Y-97872183D03*
X123850002Y-97872183D03*
%TD*%
D11*
%TO.C,R10*%
X179700000Y-62690000D03*
X179700000Y-63710000D03*
%TD*%
D15*
%TO.C,R28*%
X164797500Y-119500000D03*
X163777500Y-119500000D03*
%TD*%
%TO.C,R11*%
X178610000Y-67050000D03*
X177590000Y-67050000D03*
%TD*%
%TO.C,R26*%
X164797500Y-114500000D03*
X163777500Y-114500000D03*
%TD*%
D16*
%TO.C,D5*%
X165037500Y-118000000D03*
X163462500Y-118000000D03*
%TD*%
D12*
%TO.C,C10*%
X127105001Y-103122182D03*
X126145001Y-103122182D03*
%TD*%
D23*
%TO.C,C4*%
X121650002Y-98402183D03*
X121650002Y-97442183D03*
%TD*%
D11*
%TO.C,R20*%
X174300000Y-84090000D03*
X174300000Y-85110000D03*
%TD*%
D13*
%TO.C,R17*%
X138975000Y-122160000D03*
X138975000Y-121140000D03*
%TD*%
D43*
%TO.C,U1*%
X158795000Y-128510000D03*
X158795000Y-127240000D03*
X158795000Y-125970000D03*
X158795000Y-124700000D03*
X158795000Y-123430000D03*
X158795000Y-122160000D03*
X158795000Y-120890000D03*
X158795000Y-119620000D03*
X158795000Y-118350000D03*
X158795000Y-117080000D03*
X158795000Y-115810000D03*
X158795000Y-114540000D03*
X158795000Y-113270000D03*
X158795000Y-112000000D03*
D44*
X155755000Y-110750000D03*
X154485000Y-110750000D03*
X153215000Y-110750000D03*
X151945000Y-110750000D03*
X150675000Y-110750000D03*
X149405000Y-110750000D03*
X148135000Y-110750000D03*
X146865000Y-110750000D03*
X145595000Y-110750000D03*
X144325000Y-110750000D03*
D43*
X141295000Y-112000000D03*
X141295000Y-113270000D03*
X141295000Y-114540000D03*
X141295000Y-115810000D03*
X141295000Y-117080000D03*
X141295000Y-118350000D03*
X141295000Y-119620000D03*
X141295000Y-120890000D03*
X141295000Y-122160000D03*
X141295000Y-123430000D03*
X141295000Y-124700000D03*
X141295000Y-125970000D03*
X141295000Y-127240000D03*
X141295000Y-128510000D03*
D45*
X152250000Y-122695000D03*
X152250000Y-121170000D03*
X152250000Y-119645000D03*
X150725000Y-122695000D03*
X150725000Y-121170000D03*
X150725000Y-119645000D03*
X149200000Y-122695000D03*
X149200000Y-121170000D03*
X149200000Y-119645000D03*
%TD*%
D15*
%TO.C,R27*%
X184010000Y-79675000D03*
X182990000Y-79675000D03*
%TD*%
D46*
%TO.C,D1*%
X175200000Y-61500000D03*
X177300000Y-61500000D03*
%TD*%
D40*
%TO.C,R15*%
X134565000Y-117775000D03*
X135585000Y-117775000D03*
%TD*%
D11*
%TO.C,R18*%
X139125000Y-97227500D03*
X139125000Y-98247500D03*
%TD*%
D15*
%TO.C,R13*%
X136535000Y-119125000D03*
X135515000Y-119125000D03*
%TD*%
D13*
%TO.C,R16*%
X137000000Y-125510000D03*
X137000000Y-124490000D03*
%TD*%
D10*
%TO.C,C24*%
X162475000Y-127390000D03*
X162475000Y-128350000D03*
%TD*%
%TO.C,C8*%
X120500000Y-101242183D03*
X120500000Y-102202183D03*
%TD*%
D13*
%TO.C,R24*%
X129900000Y-108285000D03*
X129900000Y-107265000D03*
%TD*%
%TO.C,R25*%
X128825000Y-108285000D03*
X128825000Y-107265000D03*
%TD*%
D12*
%TO.C,C12*%
X181880000Y-65150000D03*
X180920000Y-65150000D03*
%TD*%
D23*
%TO.C,C19*%
X189025000Y-108675000D03*
X189025000Y-107715000D03*
%TD*%
M02*
